<svg width="224" height="187" viewBox="0 0 224 187" fill="none" xmlns="http://www.w3.org/2000/svg">
<g opacity="0.66">
<g opacity="0.41">
<path opacity="0.017" d="M161.501 130.547C162.467 125.961 143.836 118.141 119.888 113.08C95.9403 108.02 75.7438 107.635 74.7781 112.221C73.8124 116.806 92.4432 124.626 116.391 129.687C140.339 134.748 160.536 135.133 161.501 130.547Z" fill="#130F3D"/>
<path opacity="0.034" d="M161.13 130.414C162.086 125.871 143.629 118.123 119.903 113.11C96.178 108.096 76.1692 107.715 75.2125 112.258C74.2558 116.801 92.7134 124.548 116.439 129.562C140.164 134.575 160.173 134.957 161.13 130.414Z" fill="#130F3D"/>
<path opacity="0.052" d="M160.758 130.28C161.706 125.779 143.422 118.105 119.919 113.138C96.416 108.172 76.5949 107.794 75.6472 112.294C74.6995 116.795 92.9839 124.47 116.487 129.436C139.989 134.403 159.81 134.781 160.758 130.28Z" fill="#130F3D"/>
<path opacity="0.069" d="M160.387 130.146C161.325 125.688 143.214 118.086 119.934 113.167C96.6537 108.247 77.0204 107.873 76.0816 112.331C75.1429 116.789 93.2541 124.391 116.534 129.31C139.814 134.23 159.448 134.604 160.387 130.146Z" fill="#130F3D"/>
<path opacity="0.086" d="M160.015 130.013C160.945 125.597 143.007 118.068 119.949 113.196C96.8917 108.323 77.4461 107.952 76.5163 112.368C75.5865 116.783 93.5246 124.312 116.582 129.185C139.64 134.057 159.085 134.428 160.015 130.013Z" fill="#130F3D"/>
<path opacity="0.103" d="M159.643 129.879C160.564 125.507 142.799 118.05 119.964 113.225C97.1294 108.399 77.8716 108.032 76.9507 112.405C76.0299 116.778 93.7948 124.234 116.63 129.06C139.465 133.885 158.723 134.252 159.643 129.879Z" fill="#130F3D"/>
<path opacity="0.121" d="M159.272 129.746C160.184 125.416 142.592 118.032 119.98 113.253C97.3672 108.475 78.297 108.111 77.3852 112.442C76.4733 116.772 94.0651 124.155 116.677 128.934C139.29 133.712 158.36 134.076 159.272 129.746Z" fill="#130F3D"/>
<path opacity="0.138" d="M158.9 129.612C159.803 125.325 142.384 118.013 119.995 113.282C97.6049 108.551 78.7225 108.191 77.8196 112.478C76.9167 116.766 94.3353 124.077 116.725 128.808C139.115 133.54 157.997 133.899 158.9 129.612Z" fill="#130F3D"/>
<path opacity="0.155" d="M158.529 129.478C159.423 125.234 142.177 117.995 120.01 113.311C97.8429 108.626 79.1482 108.27 78.2543 112.515C77.3604 116.76 94.6058 123.998 116.773 128.682C138.94 133.367 157.635 133.723 158.529 129.478Z" fill="#130F3D"/>
<path opacity="0.172" d="M158.157 129.345C159.042 125.142 141.97 117.977 120.025 113.339C98.0806 108.702 79.5736 108.349 78.6887 112.551C77.8038 116.754 94.876 123.919 116.821 128.557C138.765 133.194 157.272 133.547 158.157 129.345Z" fill="#130F3D"/>
<path opacity="0.19" d="M157.785 129.211C158.661 125.052 141.762 117.959 120.04 113.368C98.3183 108.778 79.9991 108.429 79.1231 112.589C78.2472 116.748 95.1462 123.841 116.868 128.432C138.59 133.022 156.909 133.371 157.785 129.211Z" fill="#130F3D"/>
<path opacity="0.207" d="M157.414 129.078C158.281 124.961 141.555 117.94 120.056 113.397C98.5563 108.854 80.4248 108.508 79.5578 112.625C78.6909 116.742 95.4167 123.763 116.916 128.306C138.415 132.849 156.547 133.195 157.414 129.078Z" fill="#130F3D"/>
<path opacity="0.224" d="M157.042 128.944C157.9 124.87 141.348 117.922 120.071 113.426C98.794 108.93 80.8502 108.588 79.9922 112.662C79.1343 116.736 95.687 123.684 116.964 128.18C138.241 132.676 156.184 133.018 157.042 128.944Z" fill="#130F3D"/>
<path opacity="0.241" d="M156.671 128.81C157.52 124.779 141.14 117.904 120.086 113.454C99.0318 109.005 81.2757 108.667 80.4267 112.699C79.5777 116.73 95.9572 123.605 117.011 128.054C138.066 132.504 155.822 132.842 156.671 128.81Z" fill="#130F3D"/>
<path opacity="0.259" d="M156.299 128.677C157.139 124.688 140.933 117.886 120.101 113.484C99.2695 109.081 81.7011 108.747 80.8611 112.736C80.0211 116.725 96.2274 123.527 117.059 127.929C137.891 132.331 155.459 132.666 156.299 128.677Z" fill="#130F3D"/>
<path opacity="0.276" d="M155.928 128.543C156.759 124.597 140.725 117.867 120.116 113.512C99.5075 109.157 82.1268 108.826 81.2958 112.772C80.4647 116.719 96.4979 123.448 117.107 127.804C137.716 132.159 155.097 132.49 155.928 128.543Z" fill="#130F3D"/>
<path opacity="0.293" d="M155.556 128.41C156.378 124.506 140.518 117.849 120.132 113.541C99.7452 109.233 82.5523 108.905 81.7302 112.809C80.9081 116.713 96.7681 123.37 117.155 127.678C137.541 131.986 154.734 132.314 155.556 128.41Z" fill="#130F3D"/>
<path opacity="0.31" d="M155.184 128.276C155.998 124.415 140.311 117.83 120.147 113.57C99.9831 109.309 82.978 108.984 82.1649 112.846C81.3518 116.707 97.0386 123.291 117.202 127.552C137.366 131.813 154.371 132.137 155.184 128.276Z" fill="#130F3D"/>
<path opacity="0.328" d="M154.813 128.142C155.617 124.324 140.103 117.812 120.162 113.598C100.221 109.384 83.4034 109.064 82.5993 112.882C81.7952 116.701 97.3089 123.212 117.25 127.426C137.191 131.64 154.009 131.961 154.813 128.142Z" fill="#130F3D"/>
<path opacity="0.345" d="M154.441 128.009C155.236 124.233 139.896 117.794 120.177 113.627C100.459 109.461 83.8289 109.144 83.0337 112.919C82.2386 116.695 97.5791 123.134 117.298 127.301C137.016 131.468 153.646 131.785 154.441 128.009Z" fill="#130F3D"/>
<path opacity="0.362" d="M154.07 127.876C154.856 124.142 139.689 117.776 120.193 113.656C100.697 109.536 84.2546 109.223 83.4684 112.956C82.6822 116.689 97.8496 123.056 117.346 127.176C136.842 131.295 153.284 131.609 154.07 127.876Z" fill="#130F3D"/>
<path opacity="0.379" d="M153.698 127.742C154.475 124.051 139.481 117.758 120.208 113.685C100.934 109.612 84.68 109.302 83.9028 112.993C83.1256 116.683 98.1198 122.977 117.393 127.05C136.667 131.123 152.921 131.432 153.698 127.742Z" fill="#130F3D"/>
<path opacity="0.397" d="M153.326 127.608C154.095 123.96 139.274 117.739 120.223 113.713C101.172 109.688 85.1055 109.381 84.3373 113.029C83.5691 116.677 98.39 122.898 117.441 126.924C136.492 130.95 152.558 131.256 153.326 127.608Z" fill="#130F3D"/>
<path opacity="0.414" d="M152.955 127.474C153.714 123.869 139.066 117.721 120.238 113.742C101.41 109.763 85.531 109.461 84.7717 113.066C84.0125 116.671 98.6603 122.82 117.489 126.798C136.317 130.777 152.196 131.08 152.955 127.474Z" fill="#130F3D"/>
<path opacity="0.431" d="M152.583 127.341C153.334 123.778 138.859 117.703 120.253 113.771C101.648 109.839 85.9567 109.54 85.2064 113.103C84.4561 116.666 98.9308 122.741 117.536 126.673C136.142 130.605 151.833 130.904 152.583 127.341Z" fill="#130F3D"/>
<path opacity="0.448" d="M152.212 127.208C152.953 123.687 138.652 117.685 120.269 113.8C101.885 109.915 86.3821 109.62 85.6408 113.14C84.8995 116.66 99.201 122.663 117.584 126.548C135.967 130.432 151.47 130.728 152.212 127.208Z" fill="#130F3D"/>
<path opacity="0.466" d="M151.84 127.074C152.573 123.596 138.444 117.666 120.284 113.829C102.123 109.991 86.8078 109.699 86.0755 113.176C85.3432 116.654 99.4715 122.584 117.632 126.422C135.792 130.259 151.108 130.551 151.84 127.074Z" fill="#130F3D"/>
<path opacity="0.483" d="M151.469 126.94C152.192 123.505 138.237 117.648 120.299 113.857C102.361 110.067 87.2333 109.778 86.5099 113.213C85.7866 116.648 99.7417 122.506 117.68 126.296C135.617 130.087 150.745 130.375 151.469 126.94Z" fill="#130F3D"/>
<path opacity="0.5" d="M151.097 126.807C151.811 123.415 138.029 117.63 120.314 113.886C102.599 110.143 87.6587 109.858 86.9444 113.25C86.23 116.643 100.012 122.427 117.727 126.171C135.442 129.914 150.383 130.199 151.097 126.807Z" fill="#130F3D"/>
<path opacity="0.517" d="M150.725 126.673C151.431 123.324 137.822 117.611 120.329 113.915C102.837 110.218 88.0844 109.937 87.379 113.287C86.6736 116.637 100.282 122.349 117.775 126.045C135.268 129.742 150.02 130.023 150.725 126.673Z" fill="#130F3D"/>
<path opacity="0.534" d="M150.354 126.54C151.05 123.232 137.614 117.593 120.344 113.944C103.074 110.294 88.5096 110.017 87.8132 113.324C87.1168 116.631 100.552 122.27 117.822 125.92C135.093 129.569 149.657 129.847 150.354 126.54Z" fill="#130F3D"/>
<path opacity="0.552" d="M149.982 126.406C150.67 123.141 137.407 117.575 120.36 113.972C103.312 110.37 88.9353 110.096 88.2479 113.36C87.5605 116.625 100.823 122.191 117.87 125.794C134.918 129.396 149.295 129.67 149.982 126.406Z" fill="#130F3D"/>
<path opacity="0.569" d="M149.611 126.272C150.289 123.05 137.2 117.556 120.375 114.001C103.55 110.446 89.3608 110.175 88.6823 113.397C88.0039 116.619 101.093 122.113 117.918 125.668C134.743 129.224 148.932 129.494 149.611 126.272Z" fill="#130F3D"/>
<path opacity="0.586" d="M149.239 126.139C149.909 122.96 136.993 117.538 120.39 114.03C103.788 110.522 89.7865 110.255 89.117 113.434C88.4475 116.613 101.364 122.035 117.966 125.543C134.568 129.051 148.57 129.318 149.239 126.139Z" fill="#130F3D"/>
<path opacity="0.603" d="M148.867 126.005C149.528 122.869 136.785 117.52 120.405 114.059C104.026 110.597 90.212 110.334 89.5514 113.471C88.8909 116.607 101.634 121.956 118.013 125.417C134.393 128.879 148.207 129.142 148.867 126.005Z" fill="#130F3D"/>
<path opacity="0.621" d="M148.496 125.872C149.147 122.778 136.578 117.502 120.421 114.087C104.263 110.673 90.6374 110.413 89.9859 113.507C89.3343 116.601 101.904 121.877 118.061 125.292C134.218 128.706 147.844 128.965 148.496 125.872Z" fill="#130F3D"/>
<path opacity="0.638" d="M148.124 125.738C148.767 122.687 136.37 117.483 120.436 114.116C104.501 110.749 91.0628 110.493 90.4203 113.544C89.7777 116.595 102.174 121.799 118.109 125.166C134.043 128.533 147.482 128.789 148.124 125.738Z" fill="#130F3D"/>
<path opacity="0.655" d="M147.753 125.604C148.386 122.596 136.163 117.465 120.451 114.145C104.739 110.825 91.4885 110.572 90.855 113.581C90.2214 116.589 102.445 121.72 118.157 125.04C133.869 128.36 147.119 128.613 147.753 125.604Z" fill="#130F3D"/>
<path opacity="0.672" d="M147.381 125.471C148.006 122.505 135.955 117.447 120.466 114.174C104.977 110.901 91.914 110.652 91.2894 113.618C90.6648 116.584 102.715 121.642 118.204 124.915C133.694 128.188 146.756 128.437 147.381 125.471Z" fill="#130F3D"/>
<path opacity="0.69" d="M147.009 125.337C147.625 122.414 135.748 117.429 120.481 114.203C105.215 110.976 92.3395 110.731 91.7238 113.654C91.1082 116.578 102.985 121.563 118.252 124.789C133.519 128.015 146.394 128.261 147.009 125.337Z" fill="#130F3D"/>
<path opacity="0.707" d="M146.638 125.204C147.245 122.323 135.541 117.41 120.497 114.231C105.453 111.052 92.7651 110.81 92.1585 113.691C91.5518 116.572 103.256 121.484 118.3 124.663C133.344 127.843 146.031 128.084 146.638 125.204Z" fill="#130F3D"/>
<path opacity="0.724" d="M146.266 125.07C146.864 122.232 135.333 117.392 120.512 114.26C105.69 111.128 93.1906 110.89 92.5929 113.728C91.9953 116.566 103.526 121.406 118.347 124.538C133.169 127.67 145.669 127.908 146.266 125.07Z" fill="#130F3D"/>
<path opacity="0.741" d="M145.895 124.937C146.483 122.141 135.126 117.374 120.527 114.289C105.928 111.204 93.6161 110.969 93.0274 113.765C92.4387 116.56 103.796 121.328 118.395 124.413C132.994 127.498 145.306 127.732 145.895 124.937Z" fill="#130F3D"/>
<path opacity="0.759" d="M145.523 124.803C146.103 122.05 134.919 117.356 120.542 114.318C106.166 111.28 94.0418 111.049 93.462 113.802C92.8823 116.554 104.067 121.249 118.443 124.287C132.819 127.325 144.944 127.556 145.523 124.803Z" fill="#130F3D"/>
<path opacity="0.776" d="M145.152 124.669C145.722 121.959 134.711 117.337 120.557 114.346C106.404 111.355 94.4672 111.128 93.8965 113.838C93.3257 116.548 104.337 121.17 118.491 124.161C132.644 127.152 144.581 127.38 145.152 124.669Z" fill="#130F3D"/>
<path opacity="0.793" d="M144.78 124.536C145.342 121.868 134.504 117.319 120.573 114.375C106.642 111.431 94.8929 111.207 94.3311 113.875C93.7694 116.543 104.607 121.092 118.538 124.035C132.47 126.979 144.218 127.203 144.78 124.536Z" fill="#130F3D"/>
<path opacity="0.81" d="M144.408 124.402C144.961 121.777 134.296 117.301 120.588 114.404C106.879 111.507 95.3184 111.286 94.7656 113.911C94.2128 116.537 104.878 121.013 118.586 123.91C132.295 126.807 143.856 127.027 144.408 124.402Z" fill="#130F3D"/>
<path opacity="0.828" d="M144.037 124.269C144.581 121.686 134.089 117.283 120.603 114.433C107.117 111.583 95.7438 111.366 95.2 113.949C94.6562 116.531 105.148 120.935 118.634 123.785C132.12 126.634 143.493 126.851 144.037 124.269Z" fill="#130F3D"/>
<path opacity="0.845" d="M143.665 124.135C144.2 121.595 133.882 117.264 120.618 114.461C107.355 111.659 96.1693 111.445 95.6344 113.985C95.0996 116.525 105.418 120.856 118.681 123.659C131.945 126.462 143.13 126.675 143.665 124.135Z" fill="#130F3D"/>
<path opacity="0.862" d="M143.294 124.001C143.819 121.504 133.674 117.246 120.633 114.49C107.593 111.734 96.5947 111.525 96.0689 114.022C95.543 116.519 105.688 120.777 118.729 123.533C131.77 126.289 142.768 126.499 143.294 124.001Z" fill="#130F3D"/>
<path opacity="0.879" d="M142.922 123.868C143.439 121.413 133.467 117.227 120.649 114.519C107.831 111.81 97.0204 111.604 96.5035 114.059C95.9867 116.513 105.959 120.699 118.777 123.407C131.595 126.116 142.405 126.322 142.922 123.868Z" fill="#130F3D"/>
<path opacity="0.897" d="M142.551 123.734C143.059 121.323 133.26 117.21 120.664 114.548C108.069 111.886 97.4461 111.684 96.9382 114.096C96.4303 116.508 106.229 120.621 118.825 123.282C131.42 125.944 142.043 126.146 142.551 123.734Z" fill="#130F3D"/>
<path opacity="0.914" d="M142.179 123.601C142.678 121.231 133.052 117.191 120.679 114.577C108.306 111.962 97.8716 111.763 97.3727 114.132C96.8737 116.502 106.499 120.542 118.872 123.157C131.245 125.771 141.68 125.97 142.179 123.601Z" fill="#130F3D"/>
<path opacity="0.931" d="M141.807 123.467C142.297 121.14 132.845 117.173 120.694 114.605C108.544 112.038 98.2971 111.842 97.8071 114.169C97.3171 116.496 106.77 120.463 118.92 123.031C131.07 125.598 141.317 125.794 141.807 123.467Z" fill="#130F3D"/>
<path opacity="0.948" d="M141.436 123.333C141.917 121.049 132.637 117.155 120.709 114.634C108.782 112.113 98.7225 111.922 98.2415 114.206C97.7605 116.49 107.04 120.385 118.968 122.905C130.895 125.426 140.955 125.617 141.436 123.333Z" fill="#130F3D"/>
<path opacity="0.966" d="M141.064 123.2C141.536 120.958 132.43 117.136 120.725 114.663C109.02 112.189 99.1482 112.001 98.6762 114.242C98.2042 116.484 107.31 120.306 119.016 122.779C130.721 125.253 140.592 125.441 141.064 123.2Z" fill="#130F3D"/>
<path opacity="0.983" d="M140.693 123.067C141.156 120.868 132.223 117.118 120.74 114.692C109.257 112.265 99.5736 112.081 99.1106 114.279C98.6476 116.478 107.581 120.228 119.063 122.654C130.546 125.081 140.23 125.265 140.693 123.067Z" fill="#130F3D"/>
<path d="M140.321 122.933C140.775 120.777 132.015 117.1 120.755 114.72C109.495 112.341 99.9991 112.16 99.545 114.316C99.091 116.472 107.851 120.149 119.111 122.529C130.371 124.908 139.867 125.089 140.321 122.933Z" fill="#130F3D"/>
</g>
</g>
<g opacity="0.41">
<path opacity="0.017" d="M105.077 165.848C129.549 165.44 149.286 159.044 149.162 151.562C149.037 144.081 129.098 138.347 104.627 138.755C80.1549 139.163 60.4175 145.559 60.5418 153.041C60.6662 160.522 80.6053 166.256 105.077 165.848Z" fill="#130F3D"/>
<path opacity="0.034" d="M105.095 165.636C129.339 165.231 148.893 158.895 148.769 151.483C148.646 144.071 128.893 138.39 104.648 138.795C80.4041 139.199 60.8501 145.535 60.9733 152.947C61.0965 160.359 80.8503 166.04 105.095 165.636Z" fill="#130F3D"/>
<path opacity="0.052" d="M105.112 165.423C129.129 165.022 148.499 158.745 148.377 151.403C148.255 144.061 128.687 138.433 104.67 138.834C80.6531 139.234 61.2825 145.511 61.4046 152.854C61.5266 160.196 81.0951 165.824 105.112 165.423Z" fill="#130F3D"/>
<path opacity="0.069" d="M105.129 165.211C128.919 164.814 148.106 158.596 147.985 151.324C147.864 144.051 128.481 138.476 104.692 138.873C80.9023 139.27 61.7152 145.488 61.8361 152.761C61.957 160.033 81.3401 165.608 105.129 165.211Z" fill="#130F3D"/>
<path opacity="0.086" d="M105.147 164.999C128.709 164.605 147.712 158.447 147.593 151.244C147.473 144.041 128.275 138.52 104.713 138.913C81.1515 139.306 62.1479 145.464 62.2676 152.667C62.3873 159.871 81.5851 165.392 105.147 164.999Z" fill="#130F3D"/>
<path opacity="0.103" d="M105.164 164.786C128.499 164.397 147.319 158.298 147.2 151.165C147.082 144.031 128.069 138.563 104.735 138.952C81.4006 139.342 62.5805 145.44 62.6991 152.574C62.8177 159.708 81.8301 165.175 105.164 164.786Z" fill="#130F3D"/>
<path opacity="0.121" d="M105.182 164.574C128.289 164.189 146.926 158.149 146.808 151.085C146.691 144.021 127.864 138.607 104.757 138.992C81.6498 139.377 63.0132 145.417 63.1306 152.481C63.248 159.545 82.0751 164.96 105.182 164.574Z" fill="#130F3D"/>
<path opacity="0.138" d="M105.199 164.362C128.079 163.98 146.532 158 146.416 151.006C146.299 144.011 127.658 138.65 104.778 139.032C81.8988 139.413 63.4456 145.393 63.5619 152.388C63.6781 159.382 82.3199 164.743 105.199 164.362Z" fill="#130F3D"/>
<path opacity="0.155" d="M105.217 164.15C127.869 163.772 146.139 157.851 146.023 150.926C145.908 144.001 127.452 138.693 104.8 139.071C82.148 139.449 63.8782 145.369 63.9934 152.295C64.1085 159.22 82.5648 164.527 105.217 164.15Z" fill="#130F3D"/>
<path opacity="0.172" d="M105.234 163.937C127.659 163.563 145.745 157.702 145.631 150.847C145.517 143.991 127.246 138.737 104.822 139.111C82.3972 139.485 64.3109 145.346 64.4249 152.201C64.5388 159.057 82.8099 164.311 105.234 163.937Z" fill="#130F3D"/>
<path opacity="0.19" d="M105.252 163.725C127.449 163.355 145.352 157.553 145.239 150.767C145.126 143.981 127.041 138.78 104.843 139.15C82.6464 139.521 64.7435 145.322 64.8564 152.108C64.9692 158.894 83.0549 164.095 105.252 163.725Z" fill="#130F3D"/>
<path opacity="0.207" d="M105.27 163.513C127.239 163.146 144.959 157.404 144.847 150.688C144.735 143.971 126.835 138.823 104.865 139.19C82.8956 139.556 65.1762 145.298 65.2879 152.015C65.3995 158.732 83.2999 163.879 105.27 163.513Z" fill="#130F3D"/>
<path opacity="0.224" d="M105.287 163.301C127.029 162.938 144.565 157.255 144.454 150.608C144.344 143.961 126.629 138.867 104.887 139.23C83.1445 139.592 65.6086 145.275 65.7191 151.922C65.8296 158.569 83.5447 163.663 105.287 163.301Z" fill="#130F3D"/>
<path opacity="0.241" d="M105.304 163.088C126.819 162.73 144.171 157.106 144.062 150.529C143.953 143.951 126.423 138.91 104.908 139.269C83.3937 139.628 66.0413 145.251 66.1506 151.829C66.26 158.406 83.7897 163.447 105.304 163.088Z" fill="#130F3D"/>
<path opacity="0.259" d="M105.322 162.876C126.609 162.521 143.778 156.957 143.67 150.449C143.562 143.942 126.217 138.954 104.93 139.309C83.6429 139.664 66.4739 145.227 66.5821 151.735C66.6903 158.243 84.0347 163.231 105.322 162.876Z" fill="#130F3D"/>
<path opacity="0.276" d="M105.339 162.664C126.399 162.313 143.385 156.808 143.278 150.37C143.171 143.932 126.012 138.997 104.952 139.348C83.8921 139.7 66.9066 145.204 67.0136 151.642C67.1206 158.081 84.2797 163.015 105.339 162.664Z" fill="#130F3D"/>
<path opacity="0.293" d="M105.357 162.452C126.189 162.104 142.991 156.659 142.885 150.291C142.779 143.922 125.806 139.04 104.973 139.388C84.1411 139.735 67.339 145.18 67.4449 151.549C67.5507 157.918 84.5245 162.799 105.357 162.452Z" fill="#130F3D"/>
<path opacity="0.31" d="M105.374 162.239C125.979 161.896 142.598 156.51 142.493 150.211C142.388 143.912 125.6 139.084 104.995 139.427C84.3903 139.771 67.7717 145.156 67.8764 151.456C67.9811 157.755 84.7695 162.583 105.374 162.239Z" fill="#130F3D"/>
<path opacity="0.328" d="M105.392 162.027C125.769 161.687 142.204 156.361 142.101 150.132C141.997 143.902 125.394 139.127 105.017 139.467C84.6395 139.807 68.2043 145.133 68.3079 151.363C68.4114 157.592 85.0145 162.367 105.392 162.027Z" fill="#130F3D"/>
<path opacity="0.345" d="M105.409 161.815C125.559 161.479 141.811 156.212 141.709 150.052C141.606 143.892 125.188 139.171 105.039 139.507C84.8887 139.843 68.637 145.109 68.7394 151.269C68.8418 157.43 85.2595 162.151 105.409 161.815Z" fill="#130F3D"/>
<path opacity="0.362" d="M105.427 161.603C125.349 161.27 141.418 156.063 141.316 149.973C141.215 143.882 124.983 139.214 105.06 139.546C85.1379 139.879 69.0696 145.085 69.1709 151.176C69.2721 157.267 85.5045 161.935 105.427 161.603Z" fill="#130F3D"/>
<path opacity="0.379" d="M105.444 161.39C125.139 161.062 141.024 155.914 140.924 149.893C140.824 143.872 124.777 139.257 105.082 139.586C85.3871 139.914 69.5023 145.062 69.6024 151.083C69.7025 157.104 85.7495 161.719 105.444 161.39Z" fill="#130F3D"/>
<path opacity="0.397" d="M105.462 161.178C124.929 160.853 140.631 155.765 140.532 149.814C140.433 143.862 124.571 139.301 105.103 139.625C85.636 139.95 69.9347 145.038 70.0336 150.99C70.1326 156.941 85.9943 161.503 105.462 161.178Z" fill="#130F3D"/>
<path opacity="0.414" d="M105.479 160.966C124.719 160.645 140.237 155.616 140.139 149.734C140.042 143.852 124.365 139.344 105.125 139.665C85.8852 139.986 70.3674 145.014 70.4651 150.897C70.5629 156.779 86.2393 161.287 105.479 160.966Z" fill="#130F3D"/>
<path opacity="0.431" d="M105.497 160.754C124.509 160.436 139.844 155.467 139.747 149.655C139.651 143.842 124.16 139.387 105.147 139.705C86.1344 140.022 70.8 144.991 70.8966 150.803C70.9933 156.616 86.4843 161.071 105.497 160.754Z" fill="#130F3D"/>
<path opacity="0.448" d="M105.514 160.541C124.3 160.228 139.45 155.318 139.355 149.575C139.26 143.832 123.954 139.431 105.169 139.744C86.3836 140.058 71.2327 144.967 71.3281 150.71C71.4236 156.453 86.7293 160.855 105.514 160.541Z" fill="#130F3D"/>
<path opacity="0.466" d="M105.532 160.329C124.09 160.02 139.057 155.169 138.963 149.496C138.868 143.822 123.748 139.474 105.19 139.784C86.6328 140.093 71.6653 144.943 71.7596 150.617C71.8539 156.29 86.9743 160.639 105.532 160.329Z" fill="#130F3D"/>
<path opacity="0.483" d="M105.549 160.117C123.879 159.811 138.663 155.02 138.57 149.416C138.477 143.813 123.542 139.518 105.212 139.823C86.8817 140.129 72.0977 144.92 72.1909 150.524C72.284 156.128 87.2191 160.423 105.549 160.117Z" fill="#130F3D"/>
<path opacity="0.5" d="M105.567 159.905C123.67 159.603 138.27 154.871 138.178 149.337C138.086 143.803 123.337 139.561 105.234 139.863C87.1312 140.165 72.5306 144.896 72.6226 150.431C72.7146 155.965 87.4643 160.207 105.567 159.905Z" fill="#130F3D"/>
<path opacity="0.517" d="M105.584 159.692C123.46 159.394 137.877 154.722 137.786 149.258C137.695 143.793 123.131 139.604 105.255 139.902C87.3801 140.201 72.963 144.873 73.0539 150.337C73.1447 155.802 87.7091 159.991 105.584 159.692Z" fill="#130F3D"/>
<path opacity="0.534" d="M105.602 159.48C123.25 159.185 137.483 154.573 137.394 149.178C137.304 143.782 122.925 139.647 105.277 139.942C87.6294 140.236 73.3957 144.848 73.4854 150.244C73.5751 155.639 87.9541 159.774 105.602 159.48Z" fill="#130F3D"/>
<path opacity="0.552" d="M105.619 159.268C123.04 158.977 137.09 154.424 137.001 149.099C136.913 143.773 122.719 139.691 105.299 139.982C87.8783 140.272 73.8281 144.825 73.9166 150.151C74.0052 155.477 88.1989 159.559 105.619 159.268Z" fill="#130F3D"/>
<path opacity="0.569" d="M105.637 159.056C122.83 158.769 136.697 154.275 136.609 149.019C136.522 143.763 122.513 139.734 105.321 140.021C88.1277 140.308 74.261 144.802 74.3484 150.058C74.4358 155.314 88.4442 159.342 105.637 159.056Z" fill="#130F3D"/>
<path opacity="0.586" d="M105.654 158.843C122.62 158.56 136.303 154.126 136.217 148.939C136.13 143.753 122.307 139.777 105.342 140.06C88.3767 140.343 74.6934 144.777 74.7796 149.964C74.8659 155.151 88.6889 159.126 105.654 158.843Z" fill="#130F3D"/>
<path opacity="0.603" d="M105.672 158.631C122.41 158.352 135.91 153.977 135.824 148.86C135.739 143.743 122.102 139.821 105.364 140.1C88.6259 140.379 75.1261 144.754 75.2111 149.871C75.2962 154.988 88.9339 158.91 105.672 158.631Z" fill="#130F3D"/>
<path opacity="0.621" d="M105.689 158.418C122.2 158.143 135.516 153.828 135.432 148.78C135.348 143.733 121.896 139.864 105.386 140.14C88.8751 140.415 75.5587 144.73 75.6426 149.778C75.7266 154.825 89.1789 158.694 105.689 158.418Z" fill="#130F3D"/>
<path opacity="0.638" d="M105.707 158.207C121.99 157.935 135.123 153.679 135.04 148.701C134.957 143.723 121.69 139.908 105.407 140.18C89.1243 140.451 75.9914 144.707 76.0741 149.685C76.1569 154.663 89.4239 158.478 105.707 158.207Z" fill="#130F3D"/>
<path opacity="0.655" d="M105.724 157.994C121.78 157.726 134.729 153.53 134.648 148.621C134.566 143.713 121.484 139.951 105.429 140.219C89.3733 140.487 76.4238 144.683 76.5054 149.591C76.587 154.5 89.6687 158.262 105.724 157.994Z" fill="#130F3D"/>
<path opacity="0.672" d="M105.742 157.782C121.57 157.518 134.336 153.381 134.255 148.542C134.175 143.703 121.279 139.994 105.451 140.258C89.6224 140.522 76.8565 144.659 76.9369 149.498C77.0173 154.337 89.9137 158.046 105.742 157.782Z" fill="#130F3D"/>
<path opacity="0.69" d="M105.759 157.569C121.36 157.309 133.942 153.232 133.863 148.462C133.784 143.693 121.073 140.038 105.472 140.298C89.8716 140.558 77.2891 144.635 77.3684 149.405C77.4477 154.174 90.1587 157.83 105.759 157.569Z" fill="#130F3D"/>
<path opacity="0.707" d="M105.777 157.357C121.15 157.101 133.549 153.083 133.471 148.383C133.393 143.683 120.867 140.081 105.494 140.337C90.1208 140.594 77.7218 144.612 77.7999 149.312C77.878 154.011 90.4037 157.614 105.777 157.357Z" fill="#130F3D"/>
<path opacity="0.724" d="M105.794 157.145C120.94 156.892 133.156 152.934 133.079 148.304C133.002 143.673 120.661 140.124 105.516 140.377C90.37 140.63 78.1544 144.588 78.2314 149.218C78.3084 153.849 90.6488 157.398 105.794 157.145Z" fill="#130F3D"/>
<path opacity="0.741" d="M105.812 156.933C120.73 156.684 132.762 152.785 132.686 148.224C132.61 143.663 120.455 140.168 105.537 140.417C90.619 140.665 78.5869 144.564 78.6627 149.125C78.7385 153.686 90.8935 157.182 105.812 156.933Z" fill="#130F3D"/>
<path opacity="0.759" d="M105.829 156.72C120.52 156.475 132.369 152.636 132.294 148.145C132.219 143.653 120.25 140.211 105.559 140.456C90.8682 140.701 79.0195 144.541 79.0942 149.032C79.1688 153.523 91.1385 156.966 105.829 156.72Z" fill="#130F3D"/>
<path opacity="0.776" d="M105.847 156.508C120.31 156.267 131.975 152.487 131.902 148.065C131.828 143.643 120.044 140.255 105.581 140.496C91.1174 140.737 79.4522 144.517 79.5257 148.939C79.5992 153.361 91.3836 156.749 105.847 156.508Z" fill="#130F3D"/>
<path opacity="0.793" d="M105.864 156.296C120.1 156.059 131.582 152.338 131.51 147.986C131.437 143.634 119.838 140.298 105.602 140.535C91.3666 140.773 79.8848 144.493 79.9572 148.846C80.0295 153.198 91.6286 156.534 105.864 156.296Z" fill="#130F3D"/>
<path opacity="0.81" d="M105.882 156.084C119.89 155.85 131.189 152.189 131.117 147.906C131.046 143.624 119.632 140.341 105.624 140.575C91.6158 140.809 80.3175 144.47 80.3887 148.752C80.4599 153.035 91.8736 156.317 105.882 156.084Z" fill="#130F3D"/>
<path opacity="0.828" d="M105.899 155.872C119.68 155.642 130.795 152.04 130.725 147.827C130.655 143.614 119.427 140.385 105.646 140.615C91.865 140.844 80.7501 144.446 80.8202 148.659C80.8902 152.872 92.1186 156.101 105.899 155.872Z" fill="#130F3D"/>
<path opacity="0.845" d="M105.917 155.659C119.47 155.433 130.401 151.891 130.333 147.747C130.264 143.604 119.221 140.428 105.667 140.654C92.1139 140.88 81.1825 144.423 81.2514 148.566C81.3203 152.71 92.3633 155.885 105.917 155.659Z" fill="#130F3D"/>
<path opacity="0.862" d="M105.934 155.447C119.26 155.225 130.008 151.742 129.94 147.668C129.873 143.594 119.015 140.471 105.689 140.694C92.3631 140.916 81.6152 144.399 81.6829 148.473C81.7506 152.547 92.6084 155.669 105.934 155.447Z" fill="#130F3D"/>
<path opacity="0.879" d="M105.952 155.235C119.05 155.016 129.615 151.593 129.548 147.588C129.482 143.584 118.809 140.515 105.711 140.733C92.6123 140.952 82.0479 144.375 82.1144 148.38C82.181 152.384 92.8534 155.453 105.952 155.235Z" fill="#130F3D"/>
<path opacity="0.897" d="M105.969 155.023C118.84 154.808 129.221 151.444 129.156 147.509C129.091 143.574 118.604 140.558 105.733 140.773C92.8615 140.988 82.4805 144.352 82.5459 148.286C82.6113 152.221 93.0984 155.237 105.969 155.023Z" fill="#130F3D"/>
<path opacity="0.914" d="M105.987 154.81C118.63 154.599 128.828 151.295 128.764 147.43C128.699 143.564 118.398 140.602 105.754 140.812C93.1105 141.023 82.9129 144.328 82.9772 148.193C83.0414 152.059 93.3432 155.021 105.987 154.81Z" fill="#130F3D"/>
<path opacity="0.931" d="M106.004 154.598C118.42 154.391 128.434 151.146 128.371 147.35C128.308 143.554 118.192 140.645 105.776 140.852C93.3597 141.059 83.3456 144.304 83.4087 148.1C83.4718 151.896 93.5882 154.805 106.004 154.598Z" fill="#130F3D"/>
<path opacity="0.948" d="M106.022 154.386C118.21 154.183 128.041 150.997 127.979 147.271C127.917 143.544 117.986 140.688 105.797 140.892C93.6088 141.095 83.7782 144.281 83.8402 148.007C83.9021 151.733 93.8332 154.589 106.022 154.386Z" fill="#130F3D"/>
<path opacity="0.966" d="M106.039 154.174C118 153.974 127.648 150.848 127.587 147.191C127.526 143.534 117.78 140.732 105.819 140.931C93.858 141.131 84.2109 144.257 84.2717 147.914C84.3325 151.57 94.0782 154.373 106.039 154.174Z" fill="#130F3D"/>
<path opacity="0.983" d="M106.057 153.961C117.791 153.765 127.254 150.698 127.195 147.111C127.135 143.524 117.575 140.775 105.841 140.97C94.1072 141.166 84.6436 144.233 84.7032 147.82C84.7628 151.407 94.3232 154.157 106.057 153.961Z" fill="#130F3D"/>
<path d="M106.074 153.749C117.581 153.557 126.861 150.549 126.802 147.032C126.744 143.514 117.369 140.818 105.863 141.01C94.3564 141.202 85.0762 144.209 85.1347 147.727C85.1932 151.244 94.5682 153.941 106.074 153.749Z" fill="#130F3D"/>
</g>
<path d="M136.678 117.905L124.2 125.859C123.278 126.451 122.144 126.593 121.104 126.262L98.5585 118.994C97.0696 118.497 96.8097 116.508 98.1333 115.656L108.13 109.288C109.477 108.436 109.264 106.423 107.799 105.855L104.703 104.648C103.001 103.985 101.938 102.233 102.174 100.387L102.363 98.8242L131.148 105.69L130.888 107.797C130.652 109.62 131.715 111.371 133.44 112.058L136.205 113.123C138.261 113.928 138.544 116.722 136.678 117.905Z" fill="url(#paint0_linear_73_36)"/>
<path d="M133.44 112.058L107.798 105.855L104.703 104.648C103.001 103.985 101.938 102.233 102.174 100.387L102.363 98.8242L131.148 105.69L130.887 107.797C130.651 109.62 131.715 111.371 133.44 112.058Z" fill="url(#paint1_linear_73_36)"/>
<path d="M92.5413 22.9912L178.764 33.4691L181.111 37.1357L163.853 114.581L74.8682 94.372L72.521 90.7054L92.5413 22.9912Z" fill="url(#paint2_linear_73_36)"/>
<path d="M90.194 19.3247L178.764 33.4691L161.505 110.914L72.521 90.7054L90.194 19.3247Z" fill="url(#paint3_linear_73_36)"/>
<path d="M76.6814 88.244L92.7894 23.1885L174.69 36.1741L158.773 106.887L76.6814 88.244Z" fill="url(#paint4_linear_73_36)"/>
<path d="M161.505 110.915L163.853 114.581L181.111 37.1358L178.764 33.4692L161.505 110.915Z" fill="url(#paint5_linear_73_36)"/>
<path d="M65.2565 115.777L142.796 140.794L116.243 167.468L43.0029 134.424L42.6514 131.749L65.2565 115.777Z" fill="url(#paint6_linear_73_36)"/>
<path d="M64.9049 113.102L142.444 138.118L115.891 163.841L42.6514 131.749L64.9049 113.102Z" fill="url(#paint7_linear_73_36)"/>
<path d="M142.444 138.118L142.796 140.793L116.242 167.468L115.891 163.841L142.444 138.118Z" fill="url(#paint8_linear_73_36)"/>
<path d="M68.3519 118.849C66.6755 118.309 65.8382 118.04 64.166 117.504C64.8909 116.899 65.2582 116.594 66.0069 115.976C67.6774 116.504 68.514 116.768 70.189 117.3C69.446 117.924 69.079 118.233 68.3519 118.849Z" fill="url(#paint9_linear_73_36)"/>
<path d="M73.4219 120.484C71.741 119.941 70.9014 119.67 69.2241 119.13C69.9518 118.512 70.3186 118.202 71.0605 117.577C72.7365 118.109 73.5753 118.376 75.2548 118.911C74.5185 119.542 74.152 119.856 73.4219 120.484Z" fill="url(#paint10_linear_73_36)"/>
<path d="M78.5039 122.129C76.8193 121.583 75.9779 121.31 74.2964 120.766C75.0271 120.137 75.3933 119.822 76.1286 119.189C77.8087 119.725 78.6497 119.994 80.3327 120.532C79.6029 121.171 79.2372 121.49 78.504 122.129H78.5039Z" fill="url(#paint11_linear_73_36)"/>
<path d="M83.5954 123.783C81.9083 123.234 81.0649 122.96 79.3799 122.413C80.1136 121.772 80.4795 121.452 81.2082 120.812C82.8918 121.351 83.7344 121.621 85.4204 122.162C84.6972 122.807 84.3317 123.131 83.5954 123.783Z" fill="url(#paint12_linear_73_36)"/>
<path d="M88.6947 125.443C87.0053 124.892 86.1607 124.617 84.4729 124.068C85.2099 123.415 85.5751 123.09 86.2972 122.443C87.9836 122.985 88.8272 123.256 90.5152 123.798C89.7988 124.451 89.434 124.78 88.6947 125.443Z" fill="url(#paint13_linear_73_36)"/>
<path d="M64.8339 121.705C63.2214 121.157 62.4168 120.884 60.8081 120.34C61.9334 119.38 62.5046 118.897 63.6777 117.914C65.3004 118.436 66.1125 118.699 67.7392 119.225C66.5593 120.226 65.9798 120.721 64.8339 121.705Z" fill="url(#paint14_linear_73_36)"/>
<path d="M69.7094 123.363C68.093 122.812 67.286 122.538 65.6729 121.99C66.8231 121 67.4043 120.503 68.5856 119.499C70.2132 120.026 71.0274 120.29 72.6583 120.82C71.4701 121.842 70.8804 122.35 69.7094 123.363Z" fill="url(#paint15_linear_73_36)"/>
<path d="M74.5958 125.031C72.976 124.477 72.1672 124.201 70.55 123.65C71.7255 122.632 72.3169 122.121 73.5066 121.096C75.1382 121.626 75.9543 121.892 77.5887 122.426C76.3918 123.467 75.7922 123.989 74.5958 125.031L74.5958 125.031Z" fill="url(#paint16_linear_73_36)"/>
<path d="M79.4916 126.707C77.8691 126.151 77.0587 125.873 75.4385 125.319C76.6391 124.272 77.2406 123.748 78.4387 122.703C80.0736 123.236 80.8912 123.503 82.5284 124.038C81.3232 125.101 80.7133 125.636 79.4917 126.707L79.4916 126.707Z" fill="url(#paint17_linear_73_36)"/>
<path d="M84.3959 128.388C82.771 127.83 81.9594 127.552 80.3362 126.996C81.5622 125.92 82.1737 125.383 83.3805 124.317C85.0181 124.852 85.837 125.12 87.4763 125.657C86.2626 126.74 85.6427 127.288 84.3959 128.388Z" fill="url(#paint18_linear_73_36)"/>
<path d="M89.1708 130.026C87.5443 129.468 86.7315 129.189 85.1064 128.631C86.3567 127.528 86.9783 126.978 88.1929 125.892C89.8324 126.429 90.6522 126.698 92.293 127.236C91.0716 128.339 90.4418 128.899 89.1708 130.026Z" fill="url(#paint19_linear_73_36)"/>
<path d="M94.0852 131.714C92.4576 131.155 91.6443 130.876 90.0173 130.317C91.2926 129.185 91.924 128.623 93.1467 127.516C94.7877 128.054 95.6079 128.323 97.2495 128.862C96.0204 129.985 95.3807 130.558 94.0852 131.714Z" fill="url(#paint20_linear_73_36)"/>
<path d="M99.002 133.402C97.3737 132.843 96.56 132.564 94.9319 132.005C96.2316 130.844 96.873 130.268 98.1034 129.142C99.7451 129.68 100.566 129.949 102.207 130.488C100.971 131.631 100.322 132.218 99.002 133.402Z" fill="url(#paint21_linear_73_36)"/>
<path d="M103.92 135.088C102.291 134.53 101.478 134.251 99.8489 133.693C101.173 132.503 101.824 131.914 103.061 130.768C104.703 131.306 105.523 131.575 107.165 132.112C105.921 133.276 105.263 133.876 103.92 135.088H103.92Z" fill="url(#paint22_linear_73_36)"/>
<path d="M108.837 136.772C107.209 136.215 106.396 135.937 104.767 135.379C106.114 134.161 106.774 133.559 108.019 132.392C109.66 132.929 110.48 133.198 112.12 133.734C110.871 134.918 110.204 135.531 108.837 136.772Z" fill="url(#paint23_linear_73_36)"/>
<path d="M113.618 138.406C111.991 137.851 111.177 137.573 109.549 137.016C110.918 135.77 111.587 135.156 112.837 133.969C114.477 134.505 115.297 134.772 116.936 135.307C115.681 136.511 115.005 137.137 113.618 138.406Z" fill="url(#paint24_linear_73_36)"/>
<path d="M118.528 140.079C116.903 139.526 116.09 139.249 114.463 138.694C115.855 137.42 116.532 136.792 117.787 135.585C119.426 136.119 120.244 136.385 121.88 136.917C120.621 138.141 119.937 138.78 118.528 140.079Z" fill="url(#paint25_linear_73_36)"/>
<path d="M123.433 141.743C121.81 141.193 120.998 140.917 119.373 140.366C120.786 139.062 121.471 138.421 122.731 137.193C124.366 137.725 125.183 137.99 126.816 138.518C125.554 139.764 124.862 140.416 123.433 141.743Z" fill="url(#paint26_linear_73_36)"/>
<path d="M130.627 144.171C128.09 143.318 126.82 142.889 124.277 142.029C125.709 140.697 126.402 140.042 127.665 138.793C130.224 139.621 131.501 140.034 134.051 140.854C132.786 142.129 132.084 142.802 130.627 144.171L130.627 144.171Z" fill="url(#paint27_linear_73_36)"/>
<path d="M122.221 146.802C123.819 147.379 124.617 147.668 126.213 148.243C127.762 146.83 128.54 146.122 130.019 144.741C128.403 144.193 127.594 143.918 125.976 143.367C124.514 144.722 123.747 145.417 122.221 146.802Z" fill="url(#paint28_linear_73_36)"/>
<path d="M117.393 145.051C118.993 145.632 119.792 145.922 121.39 146.501C122.911 145.121 123.675 144.429 125.133 143.079C123.514 142.527 122.704 142.25 121.084 141.696C119.643 143.021 118.891 143.699 117.393 145.051Z" fill="url(#paint29_linear_73_36)"/>
<path d="M112.562 143.292C114.162 143.875 114.962 144.167 116.562 144.748C118.054 143.402 118.804 142.727 120.24 141.407C118.619 140.852 117.808 140.574 116.185 140.016C114.768 141.311 114.03 141.973 112.562 143.292Z" fill="url(#paint30_linear_73_36)"/>
<path d="M107.729 141.525C109.329 142.111 110.129 142.403 111.73 142.988C113.192 141.675 113.928 141.015 115.341 139.725C113.718 139.167 112.907 138.888 111.283 138.328C109.889 139.594 109.166 140.239 107.729 141.525Z" fill="url(#paint31_linear_73_36)"/>
<path d="M102.894 139.753C104.494 140.34 105.295 140.634 106.896 141.22C108.328 139.94 109.048 139.297 110.438 138.037C108.813 137.477 108.001 137.196 106.376 136.635C105.006 137.871 104.299 138.5 102.894 139.753V139.753Z" fill="url(#paint32_linear_73_36)"/>
<path d="M98.1921 138.026C99.7927 138.615 100.593 138.908 102.194 139.496C103.595 138.247 104.3 137.621 105.666 136.389C104.041 135.828 103.228 135.546 101.603 134.984C100.258 136.192 99.5668 136.804 98.1921 138.026Z" fill="url(#paint33_linear_73_36)"/>
<path d="M93.3589 136.248C94.9588 136.837 95.7585 137.131 97.3591 137.72C98.7282 136.504 99.4166 135.894 100.757 134.692C99.1323 134.129 98.3202 133.848 96.6953 133.285C95.376 134.463 94.7011 135.059 93.3589 136.248Z" fill="url(#paint34_linear_73_36)"/>
<path d="M88.5295 134.47C90.1283 135.059 90.9273 135.353 92.5269 135.942C93.8633 134.759 94.5355 134.165 95.8504 132.992C94.2255 132.429 93.4137 132.148 91.7897 131.585C90.4967 132.734 89.8383 133.314 88.5295 134.47Z" fill="url(#paint35_linear_73_36)"/>
<path d="M83.7051 132.693C85.302 133.281 86.1003 133.575 87.6986 134.164C89.0016 133.013 89.6569 132.436 90.9455 131.292C89.3218 130.73 88.5106 130.448 86.8881 129.886C85.6217 131.005 84.98 131.569 83.7051 132.693Z" fill="url(#paint36_linear_73_36)"/>
<path d="M78.8855 130.919C80.4802 131.506 81.2781 131.799 82.8745 132.387C84.144 131.269 84.7825 130.708 86.0442 129.594C84.422 129.032 83.6113 128.752 81.9906 128.19C80.7513 129.28 80.1267 129.827 78.8855 130.919V130.919Z" fill="url(#paint37_linear_73_36)"/>
<path d="M74.2058 129.197C75.7978 129.782 76.594 130.075 78.1883 130.662C79.4247 129.575 80.0467 129.03 81.2822 127.945C79.662 127.385 78.8527 127.105 77.2347 126.545C76.0217 127.607 75.4139 128.137 74.2058 129.197Z" fill="url(#paint38_linear_73_36)"/>
<path d="M69.4022 127.433C70.9911 128.015 71.786 128.307 73.3774 128.892C74.5797 127.839 75.1844 127.31 76.3927 126.255C74.7751 125.696 73.9674 125.417 72.3524 124.86C71.1667 125.892 70.5759 126.406 69.4021 127.433L69.4022 127.433Z" fill="url(#paint39_linear_73_36)"/>
<path d="M64.6089 125.676C66.1944 126.257 66.9873 126.547 68.5758 127.13C69.7437 126.109 70.3314 125.597 71.5125 124.571C69.8981 124.015 69.0921 123.737 67.4805 123.184C66.3221 124.185 65.7484 124.683 64.6089 125.676Z" fill="url(#paint40_linear_73_36)"/>
<path d="M57.5857 123.112C60.0609 124.014 61.3007 124.466 63.7845 125.374C64.9184 124.387 65.4891 123.892 66.6429 122.896C64.1185 122.029 62.8584 121.597 60.3429 120.737C59.2238 121.694 58.6753 122.168 57.5857 123.112Z" fill="url(#paint41_linear_73_36)"/>
<path d="M114.323 149.458C117.29 150.613 118.773 151.189 121.737 152.334C123.237 150.951 124.02 150.241 125.571 148.828C122.565 147.735 121.06 147.184 118.049 146.08C116.543 147.441 115.783 148.124 114.324 149.458H114.323Z" fill="url(#paint42_linear_73_36)"/>
<path d="M109.578 147.606C111.149 148.221 111.935 148.527 113.506 149.14C114.961 147.811 115.719 147.13 117.22 145.776C115.625 145.19 114.827 144.897 113.231 144.309C111.755 145.637 111.011 146.303 109.578 147.606Z" fill="url(#paint43_linear_73_36)"/>
<path d="M104.832 145.747C106.403 146.364 107.189 146.672 108.76 147.287C110.188 145.989 110.93 145.325 112.401 144.004C110.805 143.415 110.007 143.121 108.411 142.531C106.965 143.826 106.237 144.475 104.832 145.747Z" fill="url(#paint44_linear_73_36)"/>
<path d="M100.087 143.882C101.658 144.5 102.444 144.809 104.015 145.426C105.415 144.159 106.14 143.513 107.581 142.224C105.984 141.633 105.186 141.338 103.589 140.746C102.175 142.008 101.463 142.64 100.087 143.882Z" fill="url(#paint45_linear_73_36)"/>
<path d="M95.4749 142.065C97.0447 142.684 97.8294 142.993 99.4002 143.612C100.772 142.375 101.481 141.745 102.891 140.488C101.294 139.896 100.496 139.6 98.9002 139.007C97.5169 140.237 96.8227 140.853 95.4749 142.065Z" fill="url(#paint46_linear_73_36)"/>
<path d="M90.7354 140.194C92.304 140.814 93.0883 141.124 94.6579 141.743C96.0006 140.537 96.6921 139.923 98.0695 138.699C96.4733 138.106 95.6757 137.81 94.0802 137.216C92.7301 138.413 92.0531 139.013 90.7354 140.194Z" fill="url(#paint47_linear_73_36)"/>
<path d="M86.0007 138.322C87.5677 138.942 88.3511 139.252 89.9195 139.872C91.2322 138.696 91.9061 138.099 93.2504 136.908C91.6552 136.314 90.858 136.018 89.2637 135.425C87.947 136.589 87.2879 137.172 86.0007 138.322Z" fill="url(#paint48_linear_73_36)"/>
<path d="M81.2715 136.451C82.8366 137.07 83.6191 137.38 85.1859 138C86.4676 136.855 87.1237 136.275 88.4347 135.116C86.8406 134.522 86.0444 134.226 84.4517 133.633C83.1688 134.765 82.5276 135.331 81.2715 136.451Z" fill="url(#paint49_linear_73_36)"/>
<path d="M76.5484 134.582C78.1113 135.2 78.8932 135.51 80.4579 136.129C81.7084 135.015 82.3465 134.451 83.6236 133.325C82.0312 132.732 81.2354 132.436 79.6448 131.845C78.3962 132.944 77.7731 133.493 76.5484 134.582Z" fill="url(#paint50_linear_73_36)"/>
<path d="M71.9624 132.768C73.5224 133.385 74.3028 133.693 75.8651 134.311C77.0853 133.227 77.7057 132.68 78.9493 131.586C77.3592 130.994 76.5648 130.699 74.9768 130.108C73.7617 131.176 73.1563 131.709 71.9624 132.768Z" fill="url(#paint51_linear_73_36)"/>
<path d="M67.2551 130.907C68.8124 131.522 69.5911 131.83 71.1506 132.447C72.3394 131.393 72.9416 130.863 74.1506 129.801C72.5631 129.212 71.7701 128.917 70.1851 128.329C69.0045 129.364 68.4175 129.879 67.2551 130.907Z" fill="url(#paint52_linear_73_36)"/>
<path d="M62.5582 129.054C64.1119 129.666 64.889 129.973 66.4455 130.588C67.6025 129.565 68.1863 129.052 69.361 128.023C67.7762 127.436 66.9851 127.142 65.4034 126.557C64.2574 127.558 63.6889 128.057 62.5582 129.054Z" fill="url(#paint53_linear_73_36)"/>
<path d="M54.4351 125.859C57.3552 127.005 58.8185 127.58 61.7501 128.735C62.8751 127.744 63.4407 127.248 64.5809 126.252C61.5963 125.148 60.1068 124.598 57.1343 123.504C56.048 124.447 55.5108 124.917 54.4351 125.859Z" fill="url(#paint54_linear_73_36)"/>
<path d="M107.862 152.234C111.76 153.842 113.711 154.644 117.612 156.237C118.921 154.954 119.639 154.279 121.12 152.906C117.182 151.37 115.212 150.597 111.272 149.045C109.842 150.355 109.145 151 107.862 152.234Z" fill="url(#paint55_linear_73_36)"/>
<path d="M103.178 150.298C104.728 150.94 105.503 151.261 107.055 151.901C108.336 150.671 109.031 150.029 110.456 148.724C108.888 148.106 108.105 147.797 106.537 147.177C105.133 148.457 104.448 149.087 103.178 150.298L103.178 150.298Z" fill="url(#paint56_linear_73_36)"/>
<path d="M98.4973 148.356C100.047 149 100.821 149.321 102.372 149.964C103.64 148.757 104.322 148.129 105.722 146.854C104.154 146.234 103.37 145.924 101.803 145.302C100.426 146.552 99.7537 147.168 98.4973 148.356Z" fill="url(#paint57_linear_73_36)"/>
<path d="M93.9488 146.463C95.4967 147.108 96.2705 147.43 97.8196 148.074C99.0736 146.89 99.7446 146.275 101.118 145.03C99.5503 144.408 98.7674 144.097 97.2008 143.474C95.8509 144.695 95.1903 145.297 93.9488 146.463Z" fill="url(#paint58_linear_73_36)"/>
<path d="M89.2764 144.513C90.8227 145.159 91.5962 145.482 93.1437 146.127C94.3828 144.965 95.0412 144.365 96.3861 143.15C94.8198 142.527 94.0369 142.215 92.4718 141.591C91.1501 142.782 90.5024 143.37 89.2764 144.513Z" fill="url(#paint59_linear_73_36)"/>
<path d="M84.6104 142.562C86.1547 143.208 86.9267 143.531 88.4725 144.177C89.6957 143.038 90.3411 142.452 91.6579 141.267C90.0927 140.643 89.3109 140.331 87.7472 139.708C86.4546 140.868 85.8201 141.442 84.6104 142.562Z" fill="url(#paint60_linear_73_36)"/>
<path d="M79.9509 140.611C81.4928 141.257 82.2638 141.58 83.8077 142.226C85.0144 141.11 85.6466 140.538 86.934 139.383C85.3705 138.759 84.5897 138.447 83.0278 137.823C81.7646 138.954 81.1436 139.514 79.9509 140.611Z" fill="url(#paint61_linear_73_36)"/>
<path d="M110.303 158.085C111.856 158.738 112.632 159.064 114.186 159.715C115.162 158.605 115.745 158.001 117.014 156.739C115.463 156.101 114.687 155.782 113.136 155.142C111.873 156.386 111.29 156.983 110.303 158.085Z" fill="url(#paint62_linear_73_36)"/>
<path d="M105.745 156.162C107.296 156.818 108.071 157.145 109.624 157.799C110.614 156.698 111.196 156.103 112.457 154.862C110.907 154.222 110.132 153.901 108.581 153.259C107.328 154.482 106.746 155.069 105.745 156.162L105.745 156.162Z" fill="url(#paint63_linear_73_36)"/>
<path d="M101.063 154.178C102.613 154.836 103.387 155.165 104.938 155.821C105.941 154.73 106.523 154.143 107.775 152.924C106.225 152.281 105.45 151.959 103.901 151.314C102.657 152.516 102.077 153.095 101.063 154.178Z" fill="url(#paint64_linear_73_36)"/>
<path d="M96.3882 152.189C97.9352 152.849 98.7087 153.178 100.258 153.836C101.273 152.755 101.854 152.177 103.095 150.98C101.546 150.334 100.773 150.011 99.2246 149.365C97.9921 150.545 97.4127 151.115 96.3882 152.189Z" fill="url(#paint65_linear_73_36)"/>
<path d="M90.6067 149.719C92.5958 150.571 93.5915 150.996 95.5837 151.846C96.6103 150.774 97.1891 150.204 98.4196 149.028C96.4263 148.195 95.4299 147.778 93.4388 146.943C92.2211 148.097 91.6445 148.657 90.6067 149.719Z" fill="url(#paint66_linear_73_36)"/>
<path d="M75.2981 138.661C76.8376 139.306 77.6074 139.629 79.1491 140.275C80.3387 139.182 80.9577 138.624 82.2155 137.499C80.6541 136.875 79.8742 136.563 78.3144 135.94C77.0814 137.041 76.4735 137.587 75.2981 138.661Z" fill="url(#paint67_linear_73_36)"/>
<path d="M70.78 136.767C72.317 137.412 73.0854 137.734 74.6247 138.379C75.7976 137.308 76.4032 136.764 77.6321 135.668C76.0726 135.045 75.2939 134.734 73.7366 134.112C72.5329 135.183 71.9385 135.716 70.78 136.767Z" fill="url(#paint68_linear_73_36)"/>
<path d="M66.1431 134.824C67.6769 135.467 68.4445 135.789 69.981 136.433C71.1364 135.385 71.7285 134.855 72.9268 133.789C71.37 133.167 70.5923 132.856 69.0378 132.236C67.8645 133.278 67.284 133.796 66.1431 134.824Z" fill="url(#paint69_linear_73_36)"/>
<path d="M61.5161 132.887C63.0468 133.528 63.8124 133.848 65.3456 134.49C66.4835 133.466 67.0619 132.95 68.2299 131.914C66.6759 131.294 65.9002 130.985 64.3491 130.367C63.2061 131.378 62.6394 131.882 61.5161 132.887Z" fill="url(#paint70_linear_73_36)"/>
<path d="M61.4104 137.156C63.5295 138.069 64.5899 138.526 66.7139 139.442C67.7963 138.426 68.3572 137.91 69.5039 136.866C67.3751 135.968 66.3123 135.52 64.1886 134.625C63.0588 135.644 62.5019 136.151 61.4104 137.156Z" fill="url(#paint71_linear_73_36)"/>
<path d="M67.51 139.785C76.3888 143.613 80.851 145.541 89.8037 149.376C90.8431 148.314 91.4192 147.756 92.6347 146.606C83.6723 142.847 79.2 140.955 70.3017 137.203C69.1526 138.25 68.591 138.768 67.51 139.785Z" fill="url(#paint72_linear_73_36)"/>
<path d="M57.0566 135.281C58.5376 135.919 59.2783 136.238 60.7616 136.877C61.8543 135.873 62.4105 135.367 63.5381 134.351C62.0513 133.725 61.3087 133.412 59.8248 132.788C58.709 133.787 58.1556 134.285 57.0566 135.281Z" fill="url(#paint73_linear_73_36)"/>
<path d="M52.5894 133.359C54.0671 133.994 54.8062 134.312 56.2864 134.949C57.3865 133.955 57.9395 133.458 59.0527 132.463C57.5692 131.838 56.8282 131.527 55.3472 130.905C54.246 131.883 53.6957 132.372 52.5894 133.359L52.5894 133.359Z" fill="url(#paint74_linear_73_36)"/>
<path d="M48.1321 131.446C49.6063 132.078 50.344 132.395 51.821 133.029C52.9288 132.044 53.4783 131.556 54.5772 130.582C53.0969 129.96 52.3579 129.65 50.8804 129.031C49.7931 129.987 49.2463 130.469 48.1322 131.446L48.1321 131.446Z" fill="url(#paint75_linear_73_36)"/>
<path d="M51.2925 128.619C55.0541 130.185 56.9402 130.973 60.72 132.554C61.8402 131.553 62.4049 131.051 63.5425 130.046C59.7119 128.52 57.8003 127.76 53.989 126.25C52.9131 127.193 52.3767 127.666 51.2925 128.619Z" fill="url(#paint76_linear_73_36)"/>
<path d="M93.8 127.107C92.1091 126.555 91.2637 126.28 89.574 125.729C90.3137 125.064 90.6785 124.734 91.3938 124.081C93.0821 124.624 93.9266 124.896 95.6158 125.439C94.9064 126.098 94.542 126.432 93.8 127.107Z" fill="url(#paint77_linear_73_36)"/>
<path d="M98.908 128.773C97.2162 128.222 96.3706 127.945 94.6794 127.394C95.4218 126.717 95.7861 126.382 96.4944 125.722C98.1838 126.266 99.0288 126.538 100.718 127.082C100.016 127.748 99.6524 128.087 98.908 128.773Z" fill="url(#paint78_linear_73_36)"/>
<path d="M104.017 130.439C102.325 129.888 101.479 129.612 99.7876 129.06C100.532 128.372 100.896 128.032 101.597 127.365C103.287 127.909 104.132 128.181 105.821 128.725C105.126 129.398 104.764 129.741 104.017 130.439Z" fill="url(#paint79_linear_73_36)"/>
<path d="M109.125 132.104C107.434 131.553 106.588 131.278 104.896 130.726C105.644 130.026 106.006 129.682 106.7 129.008C108.389 129.552 109.234 129.824 110.922 130.367C110.235 131.046 109.873 131.395 109.125 132.104Z" fill="url(#paint80_linear_73_36)"/>
<path d="M114.229 133.765C112.54 133.216 111.695 132.941 110.004 132.39C110.754 131.679 111.115 131.33 111.801 130.649C113.489 131.192 114.333 131.463 116.019 132.004C115.34 132.69 114.98 133.044 114.23 133.765L114.229 133.765Z" fill="url(#paint81_linear_73_36)"/>
<path d="M119.328 135.42C117.641 134.873 116.797 134.599 115.108 134.05C115.858 133.327 116.218 132.973 116.896 132.285C118.582 132.826 119.424 133.096 121.108 133.635C120.438 134.328 120.079 134.686 119.328 135.42Z" fill="url(#paint82_linear_73_36)"/>
<path d="M124.418 137.067C122.734 136.523 121.892 136.25 120.205 135.704C120.956 134.969 121.315 134.61 121.983 133.915C123.666 134.454 124.507 134.722 126.188 135.258C125.527 135.958 125.17 136.321 124.418 137.067L124.418 137.067Z" fill="url(#paint83_linear_73_36)"/>
<path d="M129.499 138.703C127.818 138.163 126.978 137.893 125.294 137.349C126.046 136.602 126.402 136.238 127.061 135.537C128.741 136.072 129.579 136.338 131.255 136.871C130.604 137.578 130.25 137.946 129.499 138.703Z" fill="url(#paint84_linear_73_36)"/>
<path d="M134.567 140.329C132.891 139.793 132.052 139.524 130.373 138.985C131.124 138.225 131.478 137.856 132.127 137.147C133.802 137.679 134.638 137.944 136.309 138.472C135.669 139.186 135.317 139.559 134.567 140.329Z" fill="url(#paint85_linear_73_36)"/>
<g opacity="0.41">
<path opacity="0.017" d="M91.4017 70.4829C88.2146 85.2925 103.028 100.887 124.487 105.315C145.947 109.742 165.927 101.326 169.114 86.5161C172.301 71.7066 157.488 56.1119 136.029 51.6844C114.569 47.257 94.5887 55.6733 91.4017 70.4829Z" fill="#130F3D"/>
<path opacity="0.034" d="M91.6384 70.4247C88.4809 85.0966 103.156 100.546 124.417 104.933C145.677 109.319 165.471 100.981 168.629 86.3089C171.786 71.6369 157.111 56.1873 135.851 51.8009C114.59 47.4146 94.7957 55.7527 91.6384 70.4247Z" fill="#130F3D"/>
<path opacity="0.052" d="M91.8753 70.3669C88.7476 84.9011 103.285 100.206 124.346 104.551C145.407 108.896 165.016 100.636 168.143 86.1021C171.271 71.5678 156.733 56.263 135.673 51.9178C114.612 47.5727 95.0031 55.8327 91.8753 70.3669Z" fill="#130F3D"/>
<path opacity="0.069" d="M92.1123 70.3087C89.0141 84.7053 103.414 99.8652 124.275 104.169C145.137 108.473 164.56 100.291 167.658 85.8948C170.756 71.4982 156.356 56.3383 135.495 52.0343C114.633 47.7303 95.2105 55.9121 92.1123 70.3087Z" fill="#130F3D"/>
<path opacity="0.086" d="M92.349 70.2509C89.2805 84.5099 103.543 99.5248 124.205 103.788C144.866 108.05 164.104 99.947 167.172 85.688C170.241 71.429 155.979 56.4142 135.317 52.1513C114.655 47.8884 95.4176 55.9919 92.349 70.2509Z" fill="#130F3D"/>
<path opacity="0.103" d="M92.586 70.1927C89.547 84.314 103.672 99.1839 124.134 103.406C144.596 107.627 163.648 99.6021 166.687 85.4807C169.726 71.3594 155.601 56.4895 135.139 52.2678C114.676 48.0461 95.6249 56.0713 92.586 70.1927Z" fill="#130F3D"/>
<path opacity="0.121" d="M92.8229 70.1349C89.8136 84.1186 103.801 98.8435 124.063 103.024C144.326 107.205 163.192 99.2576 166.202 85.2739C169.211 71.2903 155.224 56.5653 134.961 52.3847C114.698 48.2042 95.8322 56.1513 92.8229 70.1349Z" fill="#130F3D"/>
<path opacity="0.138" d="M93.0596 70.0771C90.08 83.9231 103.929 98.5031 123.993 102.642C144.056 106.782 162.736 98.9131 165.716 85.0671C168.696 71.2211 154.846 56.6411 134.783 52.5017C114.719 48.3623 96.0393 56.2311 93.0596 70.0771Z" fill="#130F3D"/>
<path opacity="0.155" d="M93.2966 70.0188C90.3465 83.7271 104.058 98.1622 123.922 102.26C143.786 106.359 162.28 98.5681 165.231 84.8598C168.181 71.1515 154.469 56.7164 134.605 52.6182C114.741 48.52 96.2466 56.3105 93.2966 70.0188Z" fill="#130F3D"/>
<path opacity="0.172" d="M93.5335 69.9611C90.6131 83.5318 104.187 97.8219 123.851 101.879C143.516 105.936 161.825 98.2238 164.745 84.6531C167.666 71.0824 154.092 56.7923 134.427 52.7351C114.763 48.678 96.4539 56.3904 93.5335 69.9611Z" fill="#130F3D"/>
<path opacity="0.19" d="M93.7702 69.9028C90.8795 83.3358 104.316 97.481 123.781 101.497C143.246 105.513 161.369 97.8788 164.26 84.4458C167.15 71.0127 153.714 56.8676 134.249 52.8516C114.784 48.8357 96.6611 56.4698 93.7703 69.9028H93.7702Z" fill="#130F3D"/>
<path opacity="0.207" d="M94.0072 69.8451C91.146 83.1404 104.444 97.1407 123.71 101.115C142.976 105.09 160.913 97.5343 163.774 84.2389C166.635 70.9435 153.337 56.9433 134.071 52.9686C114.806 48.9938 96.8684 56.5497 94.0072 69.8451Z" fill="#130F3D"/>
<path opacity="0.224" d="M94.2442 69.7868C91.4126 82.9446 104.573 96.7998 123.639 100.733C142.706 104.667 160.457 97.1894 163.289 84.0317C166.12 70.8739 152.96 57.0187 133.893 53.085C114.827 49.1514 97.0757 56.6291 94.2442 69.7868Z" fill="#130F3D"/>
<path opacity="0.241" d="M94.4809 69.729C91.6789 82.749 104.702 96.4594 123.569 100.352C142.435 104.244 160.001 96.8449 162.803 83.8248C165.605 70.8048 152.582 57.0944 133.715 53.202C114.849 49.3095 97.2828 56.7089 94.4809 69.729Z" fill="#130F3D"/>
<path opacity="0.259" d="M94.7178 69.6712C91.9456 82.5536 104.831 96.119 123.498 99.9703C142.165 103.822 159.545 96.5004 162.318 83.618C165.09 70.7356 152.205 57.1702 133.538 53.319C114.87 49.4677 97.4902 56.7888 94.7179 69.6712H94.7178Z" fill="#130F3D"/>
<path opacity="0.276" d="M94.9545 69.6129C92.2119 82.3577 104.96 95.7781 123.427 99.5883C141.895 103.398 159.089 96.1555 161.832 83.4108C164.575 70.666 151.827 57.2456 133.359 53.4354C114.892 49.6253 97.6972 56.8682 94.9545 69.6129Z" fill="#130F3D"/>
<path opacity="0.293" d="M95.1915 69.5552C92.4784 82.1623 105.088 95.4378 123.357 99.2068C141.625 102.976 158.634 95.8111 161.347 83.204C164.06 70.5969 151.45 57.3214 133.182 53.5524C114.913 49.7834 97.9045 56.9481 95.1915 69.5552Z" fill="#130F3D"/>
<path opacity="0.31" d="M95.4284 69.4969C92.745 81.9664 105.217 95.0969 123.286 98.8247C141.355 102.553 158.178 95.4661 160.861 82.9966C163.545 70.5272 151.072 57.3967 133.004 53.6689C114.935 49.941 98.1119 57.0275 95.4284 69.497V69.4969Z" fill="#130F3D"/>
<path opacity="0.328" d="M95.6652 69.4391C93.0114 81.7709 105.346 94.7565 123.215 98.4432C141.085 102.13 157.722 95.1217 160.376 82.7899C163.029 70.4581 150.695 57.4725 132.826 53.7858C114.956 50.0991 98.319 57.1074 95.6652 69.4391Z" fill="#130F3D"/>
<path opacity="0.345" d="M95.9021 69.3814C93.2779 81.5755 105.475 94.4161 123.145 98.0616C140.815 101.707 157.266 94.7771 159.89 82.5831C162.515 70.3889 150.318 57.5483 132.648 53.9028C114.978 50.2572 98.5264 57.1873 95.9021 69.3814Z" fill="#130F3D"/>
<path opacity="0.362" d="M96.1391 69.3231C93.5445 81.3796 105.604 94.0752 123.074 97.6797C140.545 101.284 156.81 94.4323 159.405 82.3758C161.999 70.3194 149.94 57.6237 132.47 54.0193C114.999 50.4149 98.7336 57.2667 96.1391 69.3231Z" fill="#130F3D"/>
<path opacity="0.379" d="M96.3758 69.2654C93.8108 81.1842 105.732 93.7349 123.003 97.2981C140.274 100.861 156.354 94.0878 158.919 82.169C161.484 70.2502 149.563 57.6994 132.292 54.1362C115.021 50.573 98.9408 57.3465 96.3758 69.2654Z" fill="#130F3D"/>
<path opacity="0.397" d="M96.6127 69.2071C94.0775 80.9883 105.861 93.3941 122.933 96.9161C140.004 100.438 155.899 93.7429 158.434 81.9617C160.969 70.1805 149.185 57.7748 132.114 54.2527C115.042 50.7306 99.148 57.4259 96.6127 69.2071Z" fill="#130F3D"/>
<path opacity="0.414" d="M96.8497 69.1494C94.344 80.7929 105.99 93.0537 122.862 96.5346C139.734 100.016 155.443 93.3985 157.949 81.7549C160.454 70.1114 148.808 57.8506 131.936 54.3697C115.064 50.8887 99.3554 57.5058 96.8497 69.1494Z" fill="#130F3D"/>
<path opacity="0.431" d="M97.0864 69.091C94.6103 80.5969 106.119 92.7127 122.791 96.1525C139.464 99.5923 154.987 93.0534 157.463 81.5476C159.939 70.0417 148.431 57.9259 131.758 54.4861C115.086 51.0463 99.5625 57.5852 97.0864 69.091Z" fill="#130F3D"/>
<path opacity="0.448" d="M97.3234 69.0333C94.8769 80.4015 106.248 92.3723 122.721 95.771C139.194 99.1696 154.531 92.709 156.977 81.3408C159.424 69.9725 148.053 58.0017 131.58 54.6031C115.107 51.2045 99.7698 57.6651 97.3234 69.0333Z" fill="#130F3D"/>
<path opacity="0.466" d="M97.5603 68.975C95.1435 80.2056 106.377 92.0315 122.65 95.389C138.924 98.7465 154.075 92.3641 156.492 81.1335C158.909 69.903 147.676 58.077 131.402 54.7196C115.129 51.3621 99.9772 57.7445 97.5603 68.975Z" fill="#130F3D"/>
<path opacity="0.483" d="M97.797 68.9173C95.4099 80.0102 106.505 91.6912 122.579 95.0075C138.653 98.3238 153.619 92.0196 156.007 80.9267C158.394 69.8338 147.298 58.1528 131.224 54.8365C115.15 51.5202 100.184 57.8243 97.797 68.9173Z" fill="#130F3D"/>
<path opacity="0.5" d="M98.034 68.8594C95.6764 79.8146 106.634 91.3507 122.509 94.6259C138.383 97.901 153.164 91.6751 155.521 80.7199C157.879 69.7646 146.921 58.2286 131.046 54.9535C115.172 51.6783 100.392 57.9043 98.034 68.8595V68.8594Z" fill="#130F3D"/>
<path opacity="0.517" d="M98.271 68.8012C95.943 79.6188 106.763 91.0099 122.438 94.2439C138.113 97.478 152.708 91.3302 155.036 80.5126C157.364 69.695 146.544 58.304 130.868 55.0699C115.193 51.836 100.599 57.9837 98.271 68.8012Z" fill="#130F3D"/>
<path opacity="0.534" d="M98.5077 68.7435C96.2094 79.4235 106.892 90.6696 122.367 93.8624C137.843 97.0553 152.252 90.9858 154.55 80.3058C156.848 69.6259 146.166 58.3798 130.69 55.1869C115.215 51.994 100.806 58.0636 98.5077 68.7435Z" fill="#130F3D"/>
<path opacity="0.552" d="M98.7446 68.6853C96.4759 79.2275 107.021 90.3287 122.297 93.4804C137.573 96.6321 151.796 90.6408 154.065 80.0986C156.333 69.5563 145.789 58.4551 130.513 55.3034C115.236 52.1517 101.013 58.1429 98.7446 68.6852V68.6853Z" fill="#130F3D"/>
<path opacity="0.569" d="M98.9816 68.6274C96.7425 79.0321 107.149 89.9883 122.226 93.0988C137.303 96.2094 151.34 90.2963 153.579 79.8917C155.818 69.4871 145.411 58.5309 130.335 55.4204C115.258 52.3098 101.221 58.2229 98.9816 68.6274Z" fill="#130F3D"/>
<path opacity="0.586" d="M99.2183 68.5692C97.0088 78.8362 107.278 89.6474 122.155 92.7168C137.033 95.7862 150.884 89.9514 153.094 79.6844C155.303 69.4175 145.034 58.6062 130.157 55.5368C115.279 52.4674 101.428 58.3022 99.2183 68.5692Z" fill="#130F3D"/>
<path opacity="0.603" d="M99.4553 68.5114C97.2754 78.6407 107.407 89.307 122.085 92.3353C136.763 95.3635 150.429 89.607 152.608 79.4777C154.788 69.3484 144.657 58.6821 129.979 55.6538C115.301 52.6255 101.635 58.3821 99.4553 68.5114Z" fill="#130F3D"/>
<path opacity="0.621" d="M99.6922 68.4536C97.542 78.4453 107.536 88.9667 122.014 91.9538C136.493 94.9408 149.973 89.2625 152.123 79.2708C154.273 69.2792 144.279 58.7578 129.801 55.7707C115.323 52.7837 101.842 58.462 99.6922 68.4536Z" fill="#130F3D"/>
<path opacity="0.638" d="M99.9289 68.3954C97.8083 78.2494 107.665 88.6258 121.943 91.5717C136.222 94.5177 149.517 88.9176 151.637 79.0635C153.758 69.2096 143.902 58.8331 129.623 55.8872C115.344 52.9413 102.049 58.5413 99.9289 68.3954Z" fill="#130F3D"/>
<path opacity="0.655" d="M100.166 68.3376C98.0749 78.0539 107.793 88.2854 121.873 91.1902C135.952 94.095 149.061 88.5731 151.152 78.8568C153.243 69.1405 143.524 58.909 129.445 56.0042C115.365 53.0994 102.257 58.6213 100.166 68.3376Z" fill="#130F3D"/>
<path opacity="0.672" d="M100.403 68.2793C98.3415 77.8581 107.922 87.9445 121.802 90.8081C135.682 93.6718 148.605 88.2281 150.667 78.6495C152.728 69.0708 143.147 58.9843 129.267 56.1207C115.387 53.257 102.464 58.7007 100.403 68.2793Z" fill="#130F3D"/>
<path opacity="0.69" d="M100.64 68.2216C98.6078 77.6626 108.051 87.6041 121.731 90.4266C135.412 93.2491 148.149 87.8837 150.181 78.4426C152.213 69.0016 142.769 59.0601 129.089 56.2376C115.409 53.4151 102.671 58.7805 100.64 68.2216Z" fill="#130F3D"/>
<path opacity="0.707" d="M100.876 68.1633C98.8744 77.4667 108.18 87.2633 121.661 90.0446C135.142 92.8259 147.693 87.5388 149.696 78.2354C151.698 68.932 142.392 59.1354 128.911 56.3541C115.43 53.5728 102.879 58.8599 100.876 68.1633Z" fill="#130F3D"/>
<path opacity="0.724" d="M101.113 68.1055C99.141 77.2712 108.309 86.9229 121.59 89.6631C134.872 92.4032 147.238 87.1943 149.21 78.0286C151.183 68.8628 142.015 59.2112 128.733 56.471C115.452 53.7309 103.086 58.9398 101.113 68.1055Z" fill="#130F3D"/>
<path opacity="0.741" d="M101.35 68.0473C99.4074 77.0754 108.437 86.5821 121.52 89.281C134.602 91.9801 146.782 86.8493 148.725 77.8213C150.667 68.7932 141.637 59.2865 128.555 56.5875C115.473 53.8885 103.293 59.0192 101.35 68.0473Z" fill="#130F3D"/>
<path opacity="0.759" d="M101.587 67.9895C99.6739 76.8799 108.566 86.2416 121.449 88.8995C134.332 91.5574 146.326 86.5049 148.239 77.6145C150.152 68.7241 141.26 59.3624 128.377 56.7045C115.495 54.0466 103.5 59.0991 101.587 67.9895Z" fill="#130F3D"/>
<path opacity="0.776" d="M101.824 67.9317C99.9405 76.6845 108.695 85.9013 121.378 88.518C134.061 91.1347 145.87 86.1604 147.754 77.4077C149.637 68.655 140.883 59.4381 128.199 56.8215C115.516 54.2047 103.708 59.179 101.824 67.9317Z" fill="#130F3D"/>
<path opacity="0.793" d="M102.061 67.8735C100.207 76.4886 108.824 85.5604 121.308 88.136C133.791 90.7116 145.414 85.8155 147.268 77.2004C149.122 68.5853 140.505 59.5135 128.021 56.9379C115.538 54.3624 103.915 59.2584 102.061 67.8735Z" fill="#130F3D"/>
<path opacity="0.81" d="M102.298 67.8157C100.473 76.2931 108.953 85.22 121.237 87.7544C133.521 90.2888 144.958 85.471 146.783 76.9936C148.607 68.5161 140.128 59.5893 127.844 57.0549C115.559 54.5205 104.122 59.3383 102.298 67.8157Z" fill="#130F3D"/>
<path opacity="0.828" d="M102.534 67.7575C100.74 76.0972 109.081 84.8792 121.166 87.3724C133.251 89.8656 144.502 85.1261 146.297 76.7863C148.092 68.4465 139.75 59.6646 127.665 57.1713C115.581 54.6781 104.329 59.4177 102.534 67.7575Z" fill="#130F3D"/>
<path opacity="0.845" d="M102.771 67.6997C101.006 75.9019 109.21 84.5388 121.096 86.9909C132.981 89.443 144.047 84.7817 145.812 76.5795C147.577 68.3774 139.373 59.7405 127.488 57.2883C115.602 54.8362 104.537 59.4975 102.771 67.6997Z" fill="#130F3D"/>
<path opacity="0.862" d="M103.008 67.6419C101.273 75.7063 109.339 84.1984 121.025 86.6093C132.711 89.0202 143.591 84.4372 145.326 76.3727C147.062 68.3083 138.996 59.8162 127.31 57.4053C115.624 54.9944 104.744 59.5774 103.008 67.6419Z" fill="#130F3D"/>
<path opacity="0.879" d="M103.245 67.5836C101.539 75.5104 109.468 83.8575 120.954 86.2273C132.441 88.5971 143.135 84.0922 144.841 76.1654C146.547 68.2386 138.618 59.8915 127.132 57.5218C115.646 55.1519 104.951 59.6568 103.245 67.5836Z" fill="#130F3D"/>
<path opacity="0.897" d="M103.482 67.5259C101.806 75.3151 109.597 83.5172 120.884 85.8458C132.17 88.1745 142.679 83.7478 144.355 75.9587C146.032 68.1695 138.241 59.9674 126.954 57.6387C115.667 55.3101 105.158 59.7367 103.482 67.5259Z" fill="#130F3D"/>
<path opacity="0.914" d="M103.719 67.4676C102.072 75.1191 109.726 83.1763 120.813 85.4638C131.9 87.7513 142.223 83.4029 143.87 75.7513C145.517 68.0998 137.863 60.0427 126.776 57.7552C115.689 55.4677 105.366 59.8161 103.719 67.4676Z" fill="#130F3D"/>
<path opacity="0.931" d="M103.956 67.4098C102.339 74.9237 109.855 82.8358 120.742 85.0822C131.63 87.3285 141.768 83.0584 143.385 75.5445C145.002 68.0306 137.486 60.1185 126.598 57.8721C115.71 55.6258 105.573 59.896 103.956 67.4099V67.4098Z" fill="#130F3D"/>
<path opacity="0.948" d="M104.193 67.3516C102.605 74.7278 109.983 82.4951 120.672 84.7003C131.36 86.9054 141.312 82.7135 142.899 75.3373C144.486 67.9611 137.109 60.1938 126.42 57.9886C115.732 55.7835 105.78 59.9754 104.193 67.3516Z" fill="#130F3D"/>
<path opacity="0.966" d="M104.43 67.2938C102.872 74.5323 110.112 82.1546 120.601 84.3186C131.09 86.4826 140.856 82.3689 142.414 75.1304C143.971 67.8919 136.731 60.2696 126.242 58.1056C115.753 55.9416 105.987 60.0553 104.43 67.2938Z" fill="#130F3D"/>
<path opacity="0.983" d="M141.961 74.7675C143.364 67.6414 136.146 60.2135 125.839 58.1769C115.531 56.1404 106.038 60.2663 104.635 67.3924C103.232 74.5185 110.45 81.9464 120.757 83.983C131.065 86.0196 140.558 81.8937 141.961 74.7675Z" fill="#130F3D"/>
<path d="M141.475 74.5637C142.851 67.5757 135.772 60.2918 125.665 58.2947C115.557 56.2976 106.248 60.3435 104.872 67.3315C103.496 74.3195 110.575 81.6033 120.682 83.6005C130.79 85.5976 140.099 81.5517 141.475 74.5637Z" fill="#130F3D"/>
</g>
<path d="M150.659 38.9407L147.402 53.4905L133.143 117.415L43.0068 96.9383L58.2954 36.7828L61.5192 22.0938L150.659 38.9407Z" fill="url(#paint86_linear_73_36)"/>
<path d="M150.659 38.9407L147.402 53.4905L58.2954 36.7828L61.5192 22.0938L150.659 38.9407Z" fill="url(#paint87_linear_73_36)"/>
<g opacity="0.59">
<path d="M135.82 65.6651L77.1145 54.3959C76.5979 54.2967 76.2562 53.7922 76.3552 53.2746L76.3969 53.0566C76.4959 52.539 76.9996 52.1967 77.5163 52.2959L136.221 63.5653C136.738 63.6644 137.08 64.169 136.981 64.6865L136.939 64.9046C136.84 65.4221 136.336 65.7644 135.82 65.6652V65.6651Z" fill="#959BA3"/>
<path d="M134.705 70.9032L61.3707 56.8256C60.7942 56.7149 60.413 56.1519 60.5235 55.5744C60.6339 54.9969 61.196 54.615 61.7724 54.7256L135.107 68.8032C135.683 68.9139 136.064 69.4769 135.954 70.0544C135.844 70.6319 135.282 71.0138 134.705 70.9032Z" fill="#959BA3"/>
<path d="M133.699 76.1624L60.3646 62.0849C59.7881 61.9742 59.4069 61.4112 59.5173 60.8337C59.6278 60.2562 60.1899 59.8742 60.7663 59.9849L134.101 74.0625C134.677 74.1732 135.058 74.7362 134.948 75.3137C134.837 75.8912 134.275 76.2731 133.699 76.1624Z" fill="#959BA3"/>
<path d="M132.693 81.4212L59.3587 67.3436C58.7823 67.233 58.401 66.67 58.5115 66.0925C58.622 65.515 59.184 65.133 59.7605 65.2437L133.095 79.3213C133.671 79.432 134.053 79.995 133.942 80.5724C133.832 81.15 133.27 81.5319 132.693 81.4212Z" fill="#959BA3"/>
<path d="M117.301 83.9186L58.2467 72.5824C57.7286 72.4829 57.3859 71.9769 57.4851 71.4578L57.5258 71.2453C57.6251 70.7263 58.1302 70.383 58.6484 70.4825L117.703 81.8188C118.221 81.9182 118.563 82.4243 118.464 82.9433L118.423 83.1558C118.324 83.6748 117.819 84.0181 117.301 83.9186Z" fill="#959BA3"/>
</g>
<path d="M69.1238 30.5191C69.1238 31.749 68.1352 32.787 66.9158 32.8373C65.6963 32.8877 64.7078 31.9315 64.7078 30.7015C64.7078 29.4716 65.6963 28.4336 66.9158 28.3833C68.1352 28.3329 69.1238 29.2891 69.1238 30.5191V30.5191Z" fill="url(#paint88_linear_73_36)"/>
<path d="M76.292 31.5786C76.292 32.8086 75.3034 33.8465 74.084 33.8969C72.8645 33.9473 71.876 32.9911 71.876 31.7611C71.876 30.5312 72.8645 29.4932 74.084 29.4428C75.3034 29.3924 76.292 30.3487 76.292 31.5786Z" fill="url(#paint89_linear_73_36)"/>
<path d="M83.46 32.6382C83.46 33.8682 82.4714 34.9061 81.2519 34.9565C80.0325 35.0069 79.0439 34.0506 79.0439 32.8207C79.0439 31.5907 80.0325 30.5528 81.2519 30.5024C82.4714 30.452 83.46 31.4082 83.46 32.6382Z" fill="url(#paint90_linear_73_36)"/>
<defs>
<linearGradient id="paint0_linear_73_36" x1="121.873" y1="102.991" x2="114.664" y2="121.679" gradientUnits="userSpaceOnUse">
<stop stop-color="#C8E8F6"/>
<stop offset="1" stop-color="#44B0DF"/>
</linearGradient>
<linearGradient id="paint1_linear_73_36" x1="119.425" y1="101.479" x2="116.869" y2="108.103" gradientUnits="userSpaceOnUse">
<stop stop-color="#C8E8F6"/>
<stop offset="1" stop-color="#44B0DF"/>
</linearGradient>
<linearGradient id="paint2_linear_73_36" x1="75.5007" y1="63.0852" x2="177.133" y2="74.046" gradientUnits="userSpaceOnUse">
<stop stop-color="#246B9C"/>
<stop offset="1" stop-color="#44B0DF"/>
</linearGradient>
<linearGradient id="paint3_linear_73_36" x1="165.486" y1="23.6062" x2="93.5266" y2="98.7191" gradientUnits="userSpaceOnUse">
<stop stop-color="#C8E8F6"/>
<stop offset="1" stop-color="#44B0DF"/>
</linearGradient>
<linearGradient id="paint4_linear_73_36" x1="106.84" y1="95.621" x2="149.892" y2="26.3495" gradientUnits="userSpaceOnUse">
<stop stop-color="#1F5F8D"/>
<stop offset="0.535" stop-color="#44B0DF"/>
<stop offset="1" stop-color="#A7D3EC"/>
</linearGradient>
<linearGradient id="paint5_linear_73_36" x1="161.505" y1="74.0252" x2="181.111" y2="74.0252" gradientUnits="userSpaceOnUse">
<stop stop-color="#246B9C"/>
<stop offset="1" stop-color="#44B0DF"/>
</linearGradient>
<linearGradient id="paint6_linear_73_36" x1="42.6514" y1="141.622" x2="142.796" y2="141.622" gradientUnits="userSpaceOnUse">
<stop stop-color="#246B9C"/>
<stop offset="1" stop-color="#44B0DF"/>
</linearGradient>
<linearGradient id="paint7_linear_73_36" x1="119.237" y1="168.06" x2="67.9023" y2="104.565" gradientUnits="userSpaceOnUse">
<stop stop-color="#C8E8F6"/>
<stop offset="1" stop-color="#44B0DF"/>
</linearGradient>
<linearGradient id="paint8_linear_73_36" x1="115.891" y1="152.793" x2="142.796" y2="152.793" gradientUnits="userSpaceOnUse">
<stop stop-color="#246B9C"/>
<stop offset="1" stop-color="#44B0DF"/>
</linearGradient>
<linearGradient id="paint9_linear_73_36" x1="64.1659" y1="117.412" x2="70.189" y2="117.412" gradientUnits="userSpaceOnUse">
<stop stop-color="#EEEFF5"/>
<stop offset="1" stop-color="#F8F8F8"/>
</linearGradient>
<linearGradient id="paint10_linear_73_36" x1="69.2241" y1="119.031" x2="75.2548" y2="119.031" gradientUnits="userSpaceOnUse">
<stop stop-color="#EEEFF5"/>
<stop offset="1" stop-color="#F8F8F8"/>
</linearGradient>
<linearGradient id="paint11_linear_73_36" x1="74.2964" y1="120.659" x2="80.3327" y2="120.659" gradientUnits="userSpaceOnUse">
<stop stop-color="#EEEFF5"/>
<stop offset="1" stop-color="#F8F8F8"/>
</linearGradient>
<linearGradient id="paint12_linear_73_36" x1="79.3799" y1="122.297" x2="85.4203" y2="122.297" gradientUnits="userSpaceOnUse">
<stop stop-color="#EEEFF5"/>
<stop offset="1" stop-color="#F8F8F8"/>
</linearGradient>
<linearGradient id="paint13_linear_73_36" x1="84.473" y1="123.943" x2="90.5153" y2="123.943" gradientUnits="userSpaceOnUse">
<stop stop-color="#EEEFF5"/>
<stop offset="1" stop-color="#F8F8F8"/>
</linearGradient>
<linearGradient id="paint14_linear_73_36" x1="60.808" y1="119.809" x2="67.7392" y2="119.809" gradientUnits="userSpaceOnUse">
<stop stop-color="#EEEFF5"/>
<stop offset="1" stop-color="#F8F8F8"/>
</linearGradient>
<linearGradient id="paint15_linear_73_36" x1="65.6729" y1="121.431" x2="72.6583" y2="121.431" gradientUnits="userSpaceOnUse">
<stop stop-color="#EEEFF5"/>
<stop offset="1" stop-color="#F8F8F8"/>
</linearGradient>
<linearGradient id="paint16_linear_73_36" x1="70.55" y1="123.064" x2="77.5887" y2="123.064" gradientUnits="userSpaceOnUse">
<stop stop-color="#EEEFF5"/>
<stop offset="1" stop-color="#F8F8F8"/>
</linearGradient>
<linearGradient id="paint17_linear_73_36" x1="75.4385" y1="124.705" x2="82.5284" y2="124.705" gradientUnits="userSpaceOnUse">
<stop stop-color="#EEEFF5"/>
<stop offset="1" stop-color="#F8F8F8"/>
</linearGradient>
<linearGradient id="paint18_linear_73_36" x1="80.3362" y1="126.352" x2="87.4763" y2="126.352" gradientUnits="userSpaceOnUse">
<stop stop-color="#EEEFF5"/>
<stop offset="1" stop-color="#F8F8F8"/>
</linearGradient>
<linearGradient id="paint19_linear_73_36" x1="85.1064" y1="127.959" x2="92.293" y2="127.959" gradientUnits="userSpaceOnUse">
<stop stop-color="#EEEFF5"/>
<stop offset="1" stop-color="#F8F8F8"/>
</linearGradient>
<linearGradient id="paint20_linear_73_36" x1="90.0173" y1="129.615" x2="97.2495" y2="129.615" gradientUnits="userSpaceOnUse">
<stop stop-color="#EEEFF5"/>
<stop offset="1" stop-color="#F8F8F8"/>
</linearGradient>
<linearGradient id="paint21_linear_73_36" x1="94.9318" y1="131.272" x2="102.207" y2="131.272" gradientUnits="userSpaceOnUse">
<stop stop-color="#EEEFF5"/>
<stop offset="1" stop-color="#F8F8F8"/>
</linearGradient>
<linearGradient id="paint22_linear_73_36" x1="99.8489" y1="132.928" x2="107.165" y2="132.928" gradientUnits="userSpaceOnUse">
<stop stop-color="#EEEFF5"/>
<stop offset="1" stop-color="#F8F8F8"/>
</linearGradient>
<linearGradient id="paint23_linear_73_36" x1="104.767" y1="134.582" x2="112.12" y2="134.582" gradientUnits="userSpaceOnUse">
<stop stop-color="#EEEFF5"/>
<stop offset="1" stop-color="#F8F8F8"/>
</linearGradient>
<linearGradient id="paint24_linear_73_36" x1="109.549" y1="136.187" x2="116.936" y2="136.187" gradientUnits="userSpaceOnUse">
<stop stop-color="#EEEFF5"/>
<stop offset="1" stop-color="#F8F8F8"/>
</linearGradient>
<linearGradient id="paint25_linear_73_36" x1="114.463" y1="137.832" x2="121.88" y2="137.832" gradientUnits="userSpaceOnUse">
<stop stop-color="#EEEFF5"/>
<stop offset="1" stop-color="#F8F8F8"/>
</linearGradient>
<linearGradient id="paint26_linear_73_36" x1="119.373" y1="139.468" x2="126.816" y2="139.468" gradientUnits="userSpaceOnUse">
<stop stop-color="#EEEFF5"/>
<stop offset="1" stop-color="#F8F8F8"/>
</linearGradient>
<linearGradient id="paint27_linear_73_36" x1="124.277" y1="141.482" x2="134.051" y2="141.482" gradientUnits="userSpaceOnUse">
<stop stop-color="#EEEFF5"/>
<stop offset="1" stop-color="#F8F8F8"/>
</linearGradient>
<linearGradient id="paint28_linear_73_36" x1="122.221" y1="145.805" x2="130.019" y2="145.805" gradientUnits="userSpaceOnUse">
<stop stop-color="#EEEFF5"/>
<stop offset="1" stop-color="#F8F8F8"/>
</linearGradient>
<linearGradient id="paint29_linear_73_36" x1="117.393" y1="144.098" x2="125.133" y2="144.098" gradientUnits="userSpaceOnUse">
<stop stop-color="#EEEFF5"/>
<stop offset="1" stop-color="#F8F8F8"/>
</linearGradient>
<linearGradient id="paint30_linear_73_36" x1="112.562" y1="142.382" x2="120.24" y2="142.382" gradientUnits="userSpaceOnUse">
<stop stop-color="#EEEFF5"/>
<stop offset="1" stop-color="#F8F8F8"/>
</linearGradient>
<linearGradient id="paint31_linear_73_36" x1="107.729" y1="140.658" x2="115.341" y2="140.658" gradientUnits="userSpaceOnUse">
<stop stop-color="#EEEFF5"/>
<stop offset="1" stop-color="#F8F8F8"/>
</linearGradient>
<linearGradient id="paint32_linear_73_36" x1="102.894" y1="138.927" x2="110.438" y2="138.927" gradientUnits="userSpaceOnUse">
<stop stop-color="#EEEFF5"/>
<stop offset="1" stop-color="#F8F8F8"/>
</linearGradient>
<linearGradient id="paint33_linear_73_36" x1="98.1921" y1="137.24" x2="105.666" y2="137.24" gradientUnits="userSpaceOnUse">
<stop stop-color="#EEEFF5"/>
<stop offset="1" stop-color="#F8F8F8"/>
</linearGradient>
<linearGradient id="paint34_linear_73_36" x1="93.3589" y1="135.502" x2="100.757" y2="135.502" gradientUnits="userSpaceOnUse">
<stop stop-color="#EEEFF5"/>
<stop offset="1" stop-color="#F8F8F8"/>
</linearGradient>
<linearGradient id="paint35_linear_73_36" x1="88.5295" y1="133.764" x2="95.8504" y2="133.764" gradientUnits="userSpaceOnUse">
<stop stop-color="#EEEFF5"/>
<stop offset="1" stop-color="#F8F8F8"/>
</linearGradient>
<linearGradient id="paint36_linear_73_36" x1="83.7051" y1="132.025" x2="90.9455" y2="132.025" gradientUnits="userSpaceOnUse">
<stop stop-color="#EEEFF5"/>
<stop offset="1" stop-color="#F8F8F8"/>
</linearGradient>
<linearGradient id="paint37_linear_73_36" x1="78.8855" y1="130.289" x2="86.0442" y2="130.289" gradientUnits="userSpaceOnUse">
<stop stop-color="#EEEFF5"/>
<stop offset="1" stop-color="#F8F8F8"/>
</linearGradient>
<linearGradient id="paint38_linear_73_36" x1="74.2058" y1="128.604" x2="81.2822" y2="128.604" gradientUnits="userSpaceOnUse">
<stop stop-color="#EEEFF5"/>
<stop offset="1" stop-color="#F8F8F8"/>
</linearGradient>
<linearGradient id="paint39_linear_73_36" x1="69.4022" y1="126.876" x2="76.3928" y2="126.876" gradientUnits="userSpaceOnUse">
<stop stop-color="#EEEFF5"/>
<stop offset="1" stop-color="#F8F8F8"/>
</linearGradient>
<linearGradient id="paint40_linear_73_36" x1="64.6089" y1="125.157" x2="71.5125" y2="125.157" gradientUnits="userSpaceOnUse">
<stop stop-color="#EEEFF5"/>
<stop offset="1" stop-color="#F8F8F8"/>
</linearGradient>
<linearGradient id="paint41_linear_73_36" x1="57.5857" y1="123.056" x2="66.6429" y2="123.056" gradientUnits="userSpaceOnUse">
<stop stop-color="#EEEFF5"/>
<stop offset="1" stop-color="#F8F8F8"/>
</linearGradient>
<linearGradient id="paint42_linear_73_36" x1="114.323" y1="149.207" x2="125.571" y2="149.207" gradientUnits="userSpaceOnUse">
<stop stop-color="#EEEFF5"/>
<stop offset="1" stop-color="#F8F8F8"/>
</linearGradient>
<linearGradient id="paint43_linear_73_36" x1="109.578" y1="146.724" x2="117.22" y2="146.724" gradientUnits="userSpaceOnUse">
<stop stop-color="#EEEFF5"/>
<stop offset="1" stop-color="#F8F8F8"/>
</linearGradient>
<linearGradient id="paint44_linear_73_36" x1="104.832" y1="144.909" x2="112.401" y2="144.909" gradientUnits="userSpaceOnUse">
<stop stop-color="#EEEFF5"/>
<stop offset="1" stop-color="#F8F8F8"/>
</linearGradient>
<linearGradient id="paint45_linear_73_36" x1="100.087" y1="143.086" x2="107.581" y2="143.086" gradientUnits="userSpaceOnUse">
<stop stop-color="#EEEFF5"/>
<stop offset="1" stop-color="#F8F8F8"/>
</linearGradient>
<linearGradient id="paint46_linear_73_36" x1="95.4749" y1="141.31" x2="102.891" y2="141.31" gradientUnits="userSpaceOnUse">
<stop stop-color="#EEEFF5"/>
<stop offset="1" stop-color="#F8F8F8"/>
</linearGradient>
<linearGradient id="paint47_linear_73_36" x1="90.7354" y1="139.48" x2="98.0695" y2="139.48" gradientUnits="userSpaceOnUse">
<stop stop-color="#EEEFF5"/>
<stop offset="1" stop-color="#F8F8F8"/>
</linearGradient>
<linearGradient id="paint48_linear_73_36" x1="86.0007" y1="137.648" x2="93.2504" y2="137.648" gradientUnits="userSpaceOnUse">
<stop stop-color="#EEEFF5"/>
<stop offset="1" stop-color="#F8F8F8"/>
</linearGradient>
<linearGradient id="paint49_linear_73_36" x1="81.2715" y1="135.817" x2="88.4347" y2="135.817" gradientUnits="userSpaceOnUse">
<stop stop-color="#EEEFF5"/>
<stop offset="1" stop-color="#F8F8F8"/>
</linearGradient>
<linearGradient id="paint50_linear_73_36" x1="76.5484" y1="133.987" x2="83.6237" y2="133.987" gradientUnits="userSpaceOnUse">
<stop stop-color="#EEEFF5"/>
<stop offset="1" stop-color="#F8F8F8"/>
</linearGradient>
<linearGradient id="paint51_linear_73_36" x1="71.9624" y1="132.21" x2="78.9493" y2="132.21" gradientUnits="userSpaceOnUse">
<stop stop-color="#EEEFF5"/>
<stop offset="1" stop-color="#F8F8F8"/>
</linearGradient>
<linearGradient id="paint52_linear_73_36" x1="67.2551" y1="130.388" x2="74.1506" y2="130.388" gradientUnits="userSpaceOnUse">
<stop stop-color="#EEEFF5"/>
<stop offset="1" stop-color="#F8F8F8"/>
</linearGradient>
<linearGradient id="paint53_linear_73_36" x1="62.5582" y1="128.572" x2="69.361" y2="128.572" gradientUnits="userSpaceOnUse">
<stop stop-color="#EEEFF5"/>
<stop offset="1" stop-color="#F8F8F8"/>
</linearGradient>
<linearGradient id="paint54_linear_73_36" x1="54.4351" y1="126.12" x2="64.5809" y2="126.12" gradientUnits="userSpaceOnUse">
<stop stop-color="#EEEFF5"/>
<stop offset="1" stop-color="#F8F8F8"/>
</linearGradient>
<linearGradient id="paint55_linear_73_36" x1="107.862" y1="152.641" x2="121.12" y2="152.641" gradientUnits="userSpaceOnUse">
<stop stop-color="#EEEFF5"/>
<stop offset="1" stop-color="#F8F8F8"/>
</linearGradient>
<linearGradient id="paint56_linear_73_36" x1="103.178" y1="149.539" x2="110.456" y2="149.539" gradientUnits="userSpaceOnUse">
<stop stop-color="#EEEFF5"/>
<stop offset="1" stop-color="#F8F8F8"/>
</linearGradient>
<linearGradient id="paint57_linear_73_36" x1="98.4973" y1="147.633" x2="105.722" y2="147.633" gradientUnits="userSpaceOnUse">
<stop stop-color="#EEEFF5"/>
<stop offset="1" stop-color="#F8F8F8"/>
</linearGradient>
<linearGradient id="paint58_linear_73_36" x1="93.9488" y1="145.774" x2="101.118" y2="145.774" gradientUnits="userSpaceOnUse">
<stop stop-color="#EEEFF5"/>
<stop offset="1" stop-color="#F8F8F8"/>
</linearGradient>
<linearGradient id="paint59_linear_73_36" x1="89.2764" y1="143.859" x2="96.3861" y2="143.859" gradientUnits="userSpaceOnUse">
<stop stop-color="#EEEFF5"/>
<stop offset="1" stop-color="#F8F8F8"/>
</linearGradient>
<linearGradient id="paint60_linear_73_36" x1="84.6104" y1="141.942" x2="91.6579" y2="141.942" gradientUnits="userSpaceOnUse">
<stop stop-color="#EEEFF5"/>
<stop offset="1" stop-color="#F8F8F8"/>
</linearGradient>
<linearGradient id="paint61_linear_73_36" x1="79.9509" y1="140.025" x2="86.934" y2="140.025" gradientUnits="userSpaceOnUse">
<stop stop-color="#EEEFF5"/>
<stop offset="1" stop-color="#F8F8F8"/>
</linearGradient>
<linearGradient id="paint62_linear_73_36" x1="110.303" y1="157.429" x2="117.014" y2="157.429" gradientUnits="userSpaceOnUse">
<stop stop-color="#EEEFF5"/>
<stop offset="1" stop-color="#F8F8F8"/>
</linearGradient>
<linearGradient id="paint63_linear_73_36" x1="105.745" y1="155.529" x2="112.457" y2="155.529" gradientUnits="userSpaceOnUse">
<stop stop-color="#EEEFF5"/>
<stop offset="1" stop-color="#F8F8F8"/>
</linearGradient>
<linearGradient id="paint64_linear_73_36" x1="101.063" y1="153.568" x2="107.775" y2="153.568" gradientUnits="userSpaceOnUse">
<stop stop-color="#EEEFF5"/>
<stop offset="1" stop-color="#F8F8F8"/>
</linearGradient>
<linearGradient id="paint65_linear_73_36" x1="96.3882" y1="151.601" x2="103.095" y2="151.601" gradientUnits="userSpaceOnUse">
<stop stop-color="#EEEFF5"/>
<stop offset="1" stop-color="#F8F8F8"/>
</linearGradient>
<linearGradient id="paint66_linear_73_36" x1="90.6067" y1="149.395" x2="98.4196" y2="149.395" gradientUnits="userSpaceOnUse">
<stop stop-color="#EEEFF5"/>
<stop offset="1" stop-color="#F8F8F8"/>
</linearGradient>
<linearGradient id="paint67_linear_73_36" x1="75.2981" y1="138.107" x2="82.2155" y2="138.107" gradientUnits="userSpaceOnUse">
<stop stop-color="#EEEFF5"/>
<stop offset="1" stop-color="#F8F8F8"/>
</linearGradient>
<linearGradient id="paint68_linear_73_36" x1="70.78" y1="136.245" x2="77.6321" y2="136.245" gradientUnits="userSpaceOnUse">
<stop stop-color="#EEEFF5"/>
<stop offset="1" stop-color="#F8F8F8"/>
</linearGradient>
<linearGradient id="paint69_linear_73_36" x1="66.1431" y1="134.335" x2="72.9268" y2="134.335" gradientUnits="userSpaceOnUse">
<stop stop-color="#EEEFF5"/>
<stop offset="1" stop-color="#F8F8F8"/>
</linearGradient>
<linearGradient id="paint70_linear_73_36" x1="61.5161" y1="132.429" x2="68.2299" y2="132.429" gradientUnits="userSpaceOnUse">
<stop stop-color="#EEEFF5"/>
<stop offset="1" stop-color="#F8F8F8"/>
</linearGradient>
<linearGradient id="paint71_linear_73_36" x1="61.4104" y1="137.033" x2="69.5039" y2="137.033" gradientUnits="userSpaceOnUse">
<stop stop-color="#EEEFF5"/>
<stop offset="1" stop-color="#F8F8F8"/>
</linearGradient>
<linearGradient id="paint72_linear_73_36" x1="67.51" y1="143.289" x2="92.6347" y2="143.289" gradientUnits="userSpaceOnUse">
<stop stop-color="#EEEFF5"/>
<stop offset="1" stop-color="#F8F8F8"/>
</linearGradient>
<linearGradient id="paint73_linear_73_36" x1="57.0566" y1="134.832" x2="63.5381" y2="134.832" gradientUnits="userSpaceOnUse">
<stop stop-color="#EEEFF5"/>
<stop offset="1" stop-color="#F8F8F8"/>
</linearGradient>
<linearGradient id="paint74_linear_73_36" x1="52.5894" y1="132.927" x2="59.0527" y2="132.927" gradientUnits="userSpaceOnUse">
<stop stop-color="#EEEFF5"/>
<stop offset="1" stop-color="#F8F8F8"/>
</linearGradient>
<linearGradient id="paint75_linear_73_36" x1="48.1321" y1="131.03" x2="54.5772" y2="131.03" gradientUnits="userSpaceOnUse">
<stop stop-color="#EEEFF5"/>
<stop offset="1" stop-color="#F8F8F8"/>
</linearGradient>
<linearGradient id="paint76_linear_73_36" x1="51.2925" y1="129.402" x2="63.5424" y2="129.402" gradientUnits="userSpaceOnUse">
<stop stop-color="#EEEFF5"/>
<stop offset="1" stop-color="#F8F8F8"/>
</linearGradient>
<linearGradient id="paint77_linear_73_36" x1="89.5741" y1="125.594" x2="95.6159" y2="125.594" gradientUnits="userSpaceOnUse">
<stop stop-color="#EEEFF5"/>
<stop offset="1" stop-color="#F8F8F8"/>
</linearGradient>
<linearGradient id="paint78_linear_73_36" x1="94.6794" y1="127.248" x2="100.718" y2="127.248" gradientUnits="userSpaceOnUse">
<stop stop-color="#EEEFF5"/>
<stop offset="1" stop-color="#F8F8F8"/>
</linearGradient>
<linearGradient id="paint79_linear_73_36" x1="99.7876" y1="128.902" x2="105.821" y2="128.902" gradientUnits="userSpaceOnUse">
<stop stop-color="#EEEFF5"/>
<stop offset="1" stop-color="#F8F8F8"/>
</linearGradient>
<linearGradient id="paint80_linear_73_36" x1="104.896" y1="130.556" x2="110.922" y2="130.556" gradientUnits="userSpaceOnUse">
<stop stop-color="#EEEFF5"/>
<stop offset="1" stop-color="#F8F8F8"/>
</linearGradient>
<linearGradient id="paint81_linear_73_36" x1="110.004" y1="132.207" x2="116.019" y2="132.207" gradientUnits="userSpaceOnUse">
<stop stop-color="#EEEFF5"/>
<stop offset="1" stop-color="#F8F8F8"/>
</linearGradient>
<linearGradient id="paint82_linear_73_36" x1="115.108" y1="133.852" x2="121.108" y2="133.852" gradientUnits="userSpaceOnUse">
<stop stop-color="#EEEFF5"/>
<stop offset="1" stop-color="#F8F8F8"/>
</linearGradient>
<linearGradient id="paint83_linear_73_36" x1="120.205" y1="135.491" x2="126.187" y2="135.491" gradientUnits="userSpaceOnUse">
<stop stop-color="#EEEFF5"/>
<stop offset="1" stop-color="#F8F8F8"/>
</linearGradient>
<linearGradient id="paint84_linear_73_36" x1="125.295" y1="137.12" x2="131.255" y2="137.12" gradientUnits="userSpaceOnUse">
<stop stop-color="#EEEFF5"/>
<stop offset="1" stop-color="#F8F8F8"/>
</linearGradient>
<linearGradient id="paint85_linear_73_36" x1="130.373" y1="138.738" x2="136.309" y2="138.738" gradientUnits="userSpaceOnUse">
<stop stop-color="#EEEFF5"/>
<stop offset="1" stop-color="#F8F8F8"/>
</linearGradient>
<linearGradient id="paint86_linear_73_36" x1="130.786" y1="26.1671" x2="69.0773" y2="106.286" gradientUnits="userSpaceOnUse">
<stop stop-color="#EEEFF5"/>
<stop offset="1" stop-color="#F8F8F8"/>
</linearGradient>
<linearGradient id="paint87_linear_73_36" x1="120.472" y1="16.9306" x2="90.2639" y2="56.1516" gradientUnits="userSpaceOnUse">
<stop stop-color="#C8E8F6"/>
<stop offset="1" stop-color="#44B0DF"/>
</linearGradient>
<linearGradient id="paint88_linear_73_36" x1="64.7077" y1="30.6102" x2="69.1238" y2="30.6102" gradientUnits="userSpaceOnUse">
<stop stop-color="#EEEFF5"/>
<stop offset="1" stop-color="#F8F8F8"/>
</linearGradient>
<linearGradient id="paint89_linear_73_36" x1="71.8759" y1="31.6699" x2="76.292" y2="31.6699" gradientUnits="userSpaceOnUse">
<stop stop-color="#8C2222"/>
<stop offset="0.571" stop-color="#D63E3E"/>
<stop offset="1" stop-color="#FFA1A1"/>
</linearGradient>
<linearGradient id="paint90_linear_73_36" x1="79.0439" y1="32.7294" x2="83.46" y2="32.7294" gradientUnits="userSpaceOnUse">
<stop stop-color="#FE8500"/>
<stop offset="1" stop-color="#FFEF00"/>
</linearGradient>
</defs>
</svg>
