<svg width="253" height="171" viewBox="0 0 253 171" fill="none" xmlns="http://www.w3.org/2000/svg">
<path d="M243.457 144.604C242.763 144.604 242.069 144.425 241.45 144.068L234.682 140.168C234.289 139.942 234.055 139.537 234.055 139.085C234.055 138.633 234.289 138.228 234.682 138.001L241.45 134.101C242.687 133.388 244.227 133.388 245.465 134.101L252.233 138.001C252.626 138.228 252.86 138.633 252.86 139.085C252.86 139.537 252.626 139.942 252.233 140.168L245.465 144.068C244.846 144.425 244.152 144.604 243.457 144.604ZM243.457 134.637C242.948 134.637 242.439 134.768 241.986 135.029L235.218 138.929C235.139 138.975 235.128 139.047 235.128 139.085C235.128 139.123 235.14 139.195 235.218 139.241L241.986 143.141H241.987C242.893 143.664 244.021 143.664 244.929 143.141L251.697 139.241C251.775 139.196 251.787 139.124 251.787 139.085C251.787 139.047 251.775 138.975 251.697 138.929L244.928 135.029C244.474 134.767 243.965 134.637 243.457 134.637Z" fill="url(#paint0_linear_71_82766)"/>
<path d="M224.1 122.473C222.972 122.473 221.844 122.184 220.838 121.603L209.191 114.891C208.636 114.572 208.305 114 208.305 113.361C208.305 112.723 208.636 112.15 209.191 111.832L220.838 105.12C222.848 103.96 225.349 103.96 227.361 105.12L239.009 111.832C239.563 112.151 239.894 112.723 239.894 113.361C239.894 114 239.563 114.572 239.009 114.892L227.361 121.603C226.355 122.183 225.227 122.473 224.1 122.473ZM221.375 120.676C223.056 121.644 225.143 121.644 226.825 120.676L238.472 113.965C238.787 113.783 238.82 113.482 238.82 113.361C238.82 113.241 238.786 112.941 238.472 112.759L226.824 106.047C225.143 105.079 223.056 105.079 221.374 106.047L209.727 112.759C209.413 112.94 209.378 113.241 209.378 113.361C209.378 113.482 209.413 113.783 209.727 113.964L221.375 120.676Z" fill="url(#paint1_linear_71_82766)"/>
<path d="M15.7949 133.036C14.6669 133.036 13.5396 132.746 12.5338 132.166L0.885185 125.455C0.330432 125.135 0 124.562 0 123.924C0 123.285 0.331009 122.713 0.885185 122.394L12.5327 115.683C14.5435 114.522 17.044 114.522 19.0554 115.683L30.7029 122.395C31.2576 122.714 31.5886 123.286 31.5886 123.925C31.5886 124.564 31.2576 125.136 30.7029 125.455L19.056 132.166C18.0508 132.746 16.9223 133.036 15.7949 133.036ZM15.7943 115.884C14.852 115.884 13.9098 116.126 13.069 116.611L1.42149 123.322C1.1072 123.503 1.07318 123.804 1.07318 123.925C1.07318 124.046 1.1072 124.346 1.42206 124.528L13.0696 131.239C14.7511 132.208 16.8381 132.208 18.5197 131.239L30.1666 124.528C30.4814 124.347 30.5149 124.046 30.5149 123.925C30.5149 123.804 30.4809 123.505 30.1666 123.323L18.5191 116.611C17.6783 116.126 16.736 115.884 15.7943 115.884Z" fill="url(#paint2_linear_71_82766)"/>
<path opacity="0.6" d="M133.749 162.315L50.4613 114.322C49.2474 113.622 49.3997 112.4 50.8016 111.592L104.257 80.7892C105.659 79.9817 107.779 79.8936 108.993 80.5935L192.281 128.588C193.495 129.288 193.343 130.51 191.941 131.317L138.485 162.12C137.084 162.928 134.963 163.015 133.749 162.315Z" fill="#020230"/>
<path d="M135.657 170.981C134.683 170.981 133.75 170.779 133.036 170.368H133.037L37.9804 115.593C37.2037 115.146 36.7764 114.501 36.7764 113.777C36.7764 112.945 37.3565 112.134 38.368 111.551L103.165 73.6609C104.942 72.6364 107.552 72.538 109.11 73.4352L204.166 128.211C204.943 128.657 205.37 129.303 205.37 130.027C205.37 130.858 204.79 131.669 203.778 132.252L138.982 170.142C138.018 170.698 136.81 170.981 135.657 170.981ZM106.502 73.8974C105.528 73.8974 104.494 74.1317 103.704 74.5858L38.9083 112.476C38.2446 112.858 37.8501 113.344 37.8501 113.776C37.8501 114.193 38.2128 114.49 38.5168 114.665L133.573 169.44H133.574C134.787 170.141 137.018 170.038 138.442 169.216L203.238 131.326C203.902 130.944 204.296 130.458 204.296 130.026C204.296 129.609 203.934 129.313 203.63 129.138L108.574 74.3619C108.032 74.0505 107.287 73.8974 106.502 73.8974Z" fill="url(#paint3_linear_71_82766)"/>
<path d="M214.407 48.1263L131.447 0.321252C130.877 -0.00739001 130.282 -0.0753039 129.754 0.0783694L129.753 0.0789447C129.751 0.0795202 129.748 0.0806701 129.746 0.0812456L128.21 0.615362L128.751 0.743135C128.534 0.999258 128.359 1.31696 128.244 1.68992L109.483 62.4864C109.018 63.9938 109.699 65.8258 111.004 66.5775L193.964 114.383C194.166 114.499 194.371 114.579 194.574 114.631L194.369 115.078L195.837 114.563L195.833 114.562C196.434 114.323 196.929 113.787 197.168 113.013L215.929 52.2168C216.392 50.7094 215.711 48.878 214.407 48.1263Z" fill="url(#paint4_radial_71_82766)"/>
<path d="M190.994 116.652L191.023 116.687L109.08 69.4689C107.875 68.7742 105.769 68.8617 104.377 69.6634L51.4341 100.171L49.6689 99.4985L50.1649 101.97L50.1672 101.969C50.2329 102.341 50.4936 102.689 50.9618 102.959L133.663 150.615C134.868 151.309 136.974 151.222 138.365 150.42L191.444 119.835C192.099 119.457 192.475 118.989 192.569 118.526L192.572 118.53L193.078 116.124L190.994 116.652Z" fill="url(#paint5_radial_71_82766)"/>
<path d="M133.749 148.439L50.4613 100.445C49.2474 99.7458 49.3997 98.5239 50.8016 97.7158L104.257 66.9132C105.659 66.1057 107.779 66.0177 108.993 66.7175L192.281 114.711C193.495 115.411 193.343 116.633 191.941 117.441L138.485 148.243C137.084 149.051 134.963 149.139 133.749 148.439Z" fill="url(#paint6_radial_71_82766)"/>
<path d="M191.941 116.794L138.485 147.596C137.084 148.404 134.963 148.492 133.749 147.793L50.4613 99.7987C50.0478 99.5604 49.805 99.2594 49.7041 98.9365C49.5432 99.4937 49.7785 100.053 50.4613 100.446L133.75 148.439C134.964 149.139 137.084 149.051 138.486 148.244L191.941 117.441C192.866 116.909 193.234 116.198 193.039 115.574C192.913 116.007 192.554 116.44 191.941 116.794Z" fill="white"/>
<g opacity="0.4">
<path d="M90.1884 92.6577L87.3766 91.0375C87.1505 90.9075 87.1793 90.6801 87.44 90.5299L90.7587 88.6173C91.0194 88.4671 91.4138 88.451 91.6399 88.5811L94.4517 90.2013C94.6777 90.3313 94.6489 90.5587 94.3882 90.7089L91.069 92.6215C90.8089 92.7717 90.4144 92.7878 90.1884 92.6577Z" fill="#06033E"/>
<path d="M94.5307 95.1597L91.7188 93.5395C91.4928 93.4094 91.5216 93.1821 91.7823 93.0318L95.1016 91.1193C95.3622 90.9691 95.7567 90.9529 95.9821 91.083L98.794 92.7032C99.02 92.8333 98.9912 93.0606 98.7305 93.2108L95.4118 95.1234C95.1512 95.2731 94.7567 95.2897 94.5307 95.1597Z" fill="#06033E"/>
<path d="M98.8734 97.6616L96.0616 96.0414C95.8361 95.9114 95.8644 95.684 96.1251 95.5338L99.4443 93.6212C99.705 93.471 100.099 93.4549 100.325 93.585L103.137 95.2052C103.362 95.3352 103.334 95.5626 103.073 95.7128L99.754 97.6254C99.4934 97.7756 99.0989 97.7917 98.8734 97.6616Z" fill="#06033E"/>
<path d="M104.88 95.5955L102.068 93.9753C101.842 93.8452 101.87 93.6179 102.131 93.4677L104.917 91.8624C105.178 91.7122 105.572 91.6961 105.798 91.8262L108.609 93.4464C108.835 93.5764 108.807 93.8038 108.546 93.954L105.76 95.5592C105.499 95.7095 105.105 95.7256 104.88 95.5955Z" fill="#06033E"/>
<path d="M109.222 98.0984L106.41 96.4782C106.184 96.3482 106.213 96.1208 106.473 95.9706L109.26 94.3654C109.521 94.2151 109.915 94.199 110.14 94.3291L112.952 95.9493C113.178 96.0794 113.15 96.3067 112.889 96.4569L110.102 98.0622C109.842 98.2118 109.447 98.2285 109.222 98.0984Z" fill="#06033E"/>
<path d="M113.564 100.6L110.752 98.9802C110.526 98.8501 110.555 98.6228 110.816 98.4725L113.602 96.8673C113.863 96.7171 114.257 96.701 114.483 96.8311L117.295 98.4513C117.521 98.5813 117.492 98.8087 117.231 98.9589L114.445 100.564C114.185 100.714 113.79 100.73 113.564 100.6Z" fill="#06033E"/>
<path d="M117.906 103.102L115.095 101.482C114.869 101.352 114.897 101.125 115.158 100.974L117.944 99.3693C118.205 99.2191 118.599 99.2029 118.824 99.333L121.636 100.953C121.862 101.083 121.834 101.311 121.573 101.461L118.787 103.066C118.527 103.216 118.132 103.232 117.906 103.102Z" fill="#06033E"/>
<path d="M122.249 105.604L119.438 103.984C119.212 103.854 119.24 103.627 119.501 103.476L122.287 101.871C122.548 101.721 122.943 101.705 123.168 101.835L125.98 103.455C126.205 103.585 126.177 103.813 125.916 103.963L123.131 105.568C122.869 105.718 122.475 105.734 122.249 105.604Z" fill="#06033E"/>
<path d="M126.592 108.107L123.78 106.487C123.554 106.357 123.583 106.13 123.843 105.979L126.629 104.374C126.89 104.224 127.284 104.208 127.51 104.338L130.322 105.958C130.547 106.088 130.519 106.316 130.258 106.466L127.472 108.071C127.212 108.221 126.817 108.237 126.592 108.107Z" fill="#06033E"/>
<path d="M130.934 110.609L128.122 108.989C127.896 108.859 127.925 108.632 128.186 108.481L130.971 106.876C131.232 106.726 131.627 106.71 131.852 106.84L134.664 108.46C134.889 108.59 134.861 108.817 134.6 108.968L131.814 110.573C131.554 110.723 131.16 110.739 130.934 110.609Z" fill="#06033E"/>
<path d="M135.276 113.111L132.464 111.491C132.239 111.361 132.267 111.134 132.528 110.983L135.314 109.378C135.575 109.228 135.969 109.212 136.195 109.342L139.007 110.962C139.233 111.092 139.204 111.319 138.943 111.47L136.157 113.075C135.897 113.225 135.502 113.241 135.276 113.111Z" fill="#06033E"/>
<path d="M139.619 115.614L136.807 113.994C136.582 113.864 136.61 113.636 136.871 113.486L139.657 111.881C139.918 111.731 140.312 111.715 140.538 111.845L143.35 113.465C143.576 113.595 143.547 113.822 143.286 113.973L140.5 115.578C140.239 115.728 139.845 115.744 139.619 115.614Z" fill="#06033E"/>
<path d="M143.961 118.116L141.15 116.496C140.923 116.366 140.952 116.138 141.213 115.988L143.999 114.383C144.259 114.233 144.654 114.217 144.879 114.347L147.691 115.967C147.917 116.097 147.888 116.324 147.628 116.475L144.841 118.08C144.581 118.23 144.187 118.246 143.961 118.116Z" fill="#06033E"/>
<path d="M111.278 94.4109L108.466 92.7907C108.24 92.6607 108.269 92.4333 108.529 92.2831L111.315 90.6779C111.576 90.5276 111.97 90.5115 112.196 90.6416L115.008 92.2618C115.234 92.3919 115.205 92.6192 114.945 92.7694L112.159 94.3747C111.898 94.5243 111.503 94.541 111.278 94.4109Z" fill="#06033E"/>
<path d="M106.87 91.8715L104.058 90.2513C103.833 90.1212 103.861 89.8939 104.122 89.7436L106.908 88.1378C107.168 87.9876 107.563 87.9715 107.789 88.1016L110.601 89.7218C110.827 89.8518 110.798 90.0792 110.537 90.2294L107.751 91.8346C107.491 91.9854 107.096 92.0015 106.87 91.8715Z" fill="#06033E"/>
<path d="M102.456 89.3272L96.3998 85.8376C96.1743 85.7075 96.2025 85.4802 96.4632 85.33L99.2491 83.7247C99.5097 83.5745 99.9042 83.5584 100.13 83.6885L106.186 87.1781C106.412 87.3082 106.383 87.5355 106.122 87.6857L103.336 89.2909C103.076 89.4412 102.682 89.4573 102.456 89.3272Z" fill="#06033E"/>
<path d="M105.541 86.233L100.627 83.4007C100.401 83.2706 100.429 83.0433 100.69 82.893L103.476 81.2872C103.737 81.137 104.131 81.1209 104.356 81.251L109.271 84.0833C109.497 84.2134 109.469 84.4407 109.208 84.5909L106.422 86.1962C106.161 86.347 105.767 86.3636 105.541 86.233Z" fill="#06033E"/>
<path d="M115.62 96.9125L112.808 95.2923C112.582 95.1622 112.611 94.9349 112.872 94.7846L115.658 93.1788C115.918 93.0286 116.313 93.0125 116.538 93.1426L119.35 94.7628C119.575 94.8928 119.547 95.1202 119.286 95.2704L116.501 96.8756C116.241 97.0264 115.846 97.0426 115.62 96.9125Z" fill="#06033E"/>
<path d="M119.962 99.4154L117.15 97.7952C116.925 97.6651 116.953 97.4378 117.214 97.2876L120 95.6818C120.26 95.5316 120.655 95.5154 120.88 95.6455L123.692 97.2657C123.918 97.3958 123.889 97.6231 123.629 97.7733L120.842 99.3786C120.583 99.5294 120.188 99.5455 119.962 99.4154Z" fill="#06033E"/>
<path d="M124.305 101.918L121.493 100.298C121.267 100.167 121.296 99.9402 121.557 99.7899L124.343 98.1847C124.604 98.0345 124.998 98.0184 125.224 98.1484L128.036 99.7686C128.262 99.8987 128.233 100.126 127.972 100.276L125.186 101.881C124.925 102.032 124.531 102.048 124.305 101.918Z" fill="#06033E"/>
<path d="M128.647 104.42L125.836 102.8C125.609 102.669 125.638 102.442 125.899 102.292L128.685 100.687C128.946 100.536 129.341 100.52 129.566 100.65L132.378 102.271C132.603 102.401 132.575 102.628 132.314 102.778L129.529 104.383C129.267 104.534 128.873 104.55 128.647 104.42Z" fill="#06033E"/>
<path d="M132.99 106.923L130.178 105.302C129.952 105.172 129.981 104.945 130.241 104.795L133.027 103.19C133.288 103.039 133.682 103.023 133.908 103.153L136.72 104.774C136.945 104.904 136.917 105.131 136.656 105.281L133.87 106.886C133.61 107.036 133.216 107.053 132.99 106.923Z" fill="#06033E"/>
<path d="M137.332 109.425L134.52 107.804C134.294 107.674 134.323 107.447 134.584 107.297L137.37 105.692C137.631 105.541 138.025 105.525 138.251 105.655L141.062 107.275C141.288 107.406 141.26 107.633 140.999 107.783L138.213 109.388C137.952 109.539 137.558 109.555 137.332 109.425Z" fill="#06033E"/>
<path d="M141.675 111.927L138.863 110.306C138.637 110.176 138.666 109.949 138.927 109.799L141.713 108.193C141.974 108.043 142.368 108.027 142.594 108.157L145.405 109.777C145.631 109.907 145.603 110.135 145.342 110.285L142.556 111.89C142.295 112.04 141.9 112.057 141.675 111.927Z" fill="#06033E"/>
<path d="M146.017 114.429L143.205 112.808C142.979 112.678 143.008 112.451 143.269 112.301L146.055 110.695C146.316 110.545 146.71 110.529 146.936 110.659L149.748 112.279C149.974 112.409 149.945 112.637 149.684 112.787L146.898 114.392C146.638 114.542 146.243 114.559 146.017 114.429Z" fill="#06033E"/>
<path d="M150.36 116.931L147.548 115.311C147.322 115.181 147.35 114.954 147.611 114.804L150.397 113.198C150.658 113.048 151.052 113.032 151.278 113.162L154.09 114.782C154.315 114.912 154.287 115.14 154.027 115.29L151.241 116.895C150.98 117.045 150.586 117.061 150.36 116.931Z" fill="#06033E"/>
<path d="M158.079 121.38L151.944 117.844C151.719 117.714 151.747 117.487 152.008 117.336L154.794 115.731C155.055 115.58 155.449 115.564 155.675 115.694L161.81 119.23C162.036 119.36 162.007 119.587 161.746 119.738L158.96 121.343C158.7 121.494 158.305 121.51 158.079 121.38Z" fill="#06033E"/>
<path d="M166.534 116.508L161.355 113.524C161.129 113.394 161.158 113.167 161.419 113.016L164.205 111.411C164.466 111.261 164.86 111.245 165.086 111.375L170.264 114.359C170.49 114.489 170.461 114.717 170.201 114.867L167.414 116.472C167.154 116.622 166.759 116.638 166.534 116.508Z" fill="#06033E"/>
<path d="M123.225 96.4236L120.413 94.8034C120.187 94.6733 120.215 94.446 120.476 94.2958L123.262 92.6906C123.523 92.5403 123.917 92.5242 124.143 92.6543L126.955 94.2745C127.181 94.4046 127.152 94.6319 126.892 94.7821L124.106 96.3874C123.845 96.537 123.451 96.5537 123.225 96.4236Z" fill="#06033E"/>
<path d="M118.774 93.8592L115.962 92.239C115.736 92.1089 115.765 91.8816 116.026 91.7313L118.812 90.1261C119.073 89.9759 119.467 89.9598 119.693 90.0898L122.505 91.71C122.731 91.8401 122.702 92.0675 122.441 92.2177L119.655 93.8229C119.394 93.9726 119 93.9892 118.774 93.8592Z" fill="#06033E"/>
<path d="M114.324 91.2947L111.512 89.6745C111.286 89.5444 111.315 89.3171 111.575 89.1669L114.362 87.5617C114.622 87.4114 115.017 87.3953 115.242 87.5254L118.054 89.1456C118.28 89.2757 118.251 89.503 117.991 89.6532L115.205 91.2585C114.944 91.4087 114.55 91.4248 114.324 91.2947Z" fill="#06033E"/>
<path d="M109.873 88.7293L107.062 87.1091C106.836 86.979 106.864 86.7517 107.125 86.6014L109.911 84.9962C110.172 84.846 110.566 84.8299 110.792 84.96L113.603 86.5802C113.829 86.7102 113.801 86.9376 113.54 87.0878L110.753 88.693C110.493 88.8432 110.099 88.8594 109.873 88.7293Z" fill="#06033E"/>
<path d="M127.567 98.9252L124.755 97.305C124.529 97.1749 124.558 96.9476 124.819 96.7973L127.605 95.1915C127.866 95.0413 128.26 95.0252 128.486 95.1553L131.298 96.7755C131.524 96.9055 131.495 97.1329 131.234 97.2831L128.448 98.8889C128.187 99.0391 127.793 99.0552 127.567 98.9252Z" fill="#06033E"/>
<path d="M131.91 101.429L129.098 99.8083C128.872 99.6782 128.901 99.4509 129.161 99.3007L131.947 97.6954C132.208 97.5452 132.602 97.5291 132.828 97.6592L135.639 99.2794C135.866 99.4095 135.837 99.6368 135.576 99.787L132.79 101.393C132.529 101.542 132.135 101.559 131.91 101.429Z" fill="#06033E"/>
<path d="M136.252 103.93L133.44 102.31C133.214 102.18 133.243 101.952 133.503 101.802L136.289 100.196C136.55 100.046 136.944 100.03 137.17 100.16L139.982 101.78C140.208 101.91 140.18 102.138 139.919 102.288L137.133 103.893C136.872 104.044 136.478 104.06 136.252 103.93Z" fill="#06033E"/>
<path d="M140.594 106.433L137.782 104.813C137.556 104.683 137.585 104.455 137.846 104.305L140.632 102.699C140.892 102.549 141.287 102.533 141.512 102.663L144.324 104.283C144.55 104.413 144.521 104.641 144.261 104.791L141.475 106.397C141.215 106.547 140.82 106.563 140.594 106.433Z" fill="#06033E"/>
<path d="M144.937 108.935L142.125 107.315C141.899 107.185 141.928 106.958 142.189 106.808L144.975 105.202C145.235 105.052 145.63 105.036 145.855 105.166L148.667 106.786C148.893 106.916 148.864 107.144 148.604 107.294L145.817 108.9C145.557 109.049 145.163 109.065 144.937 108.935Z" fill="#06033E"/>
<path d="M149.279 111.437L146.468 109.817C146.242 109.687 146.27 109.459 146.531 109.309L149.318 107.703C149.578 107.553 149.973 107.537 150.198 107.667L153.01 109.287C153.236 109.417 153.207 109.645 152.946 109.795L150.16 111.4C149.899 111.551 149.505 111.567 149.279 111.437Z" fill="#06033E"/>
<path d="M153.622 113.939L150.81 112.319C150.584 112.189 150.613 111.962 150.873 111.811L153.66 110.206C153.92 110.056 154.315 110.04 154.54 110.17L157.352 111.79C157.578 111.92 157.549 112.148 157.289 112.298L154.503 113.903C154.242 114.053 153.848 114.069 153.622 113.939Z" fill="#06033E"/>
<path d="M157.965 116.441L155.153 114.821C154.927 114.691 154.955 114.464 155.216 114.313L158.003 112.708C158.263 112.558 158.658 112.542 158.883 112.672L161.695 114.292C161.92 114.422 161.892 114.649 161.632 114.8L158.845 116.405C158.584 116.555 158.19 116.571 157.965 116.441Z" fill="#06033E"/>
<path d="M162.307 118.944L159.495 117.324C159.269 117.194 159.298 116.967 159.558 116.816L162.344 115.211C162.605 115.061 162.999 115.045 163.225 115.175L166.037 116.795C166.263 116.925 166.234 117.152 165.973 117.303L163.187 118.908C162.927 119.058 162.532 119.074 162.307 118.944Z" fill="#06033E"/>
<path d="M120.938 90.2342L118.126 88.614C117.9 88.4839 117.929 88.2566 118.189 88.1063L120.975 86.5011C121.236 86.3509 121.63 86.3348 121.857 86.4649L124.668 88.085C124.894 88.2151 124.866 88.4425 124.605 88.5927L121.819 90.1979C121.558 90.3481 121.164 90.3642 120.938 90.2342Z" fill="#06033E"/>
<path d="M116.617 87.7445L113.805 86.1243C113.58 85.9942 113.608 85.7669 113.869 85.6167L116.655 84.0109C116.915 83.8607 117.31 83.8445 117.536 83.9746L120.348 85.5948C120.574 85.7249 120.545 85.9522 120.284 86.1024L117.498 87.7077C117.238 87.8585 116.843 87.8746 116.617 87.7445Z" fill="#06033E"/>
<path d="M112.297 85.2543L109.485 83.6341C109.259 83.504 109.288 83.2767 109.548 83.1264L112.334 81.5206C112.595 81.3704 112.989 81.3543 113.215 81.4844L116.026 83.1046C116.252 83.2347 116.224 83.462 115.963 83.6122L113.177 85.218C112.916 85.3682 112.522 85.3844 112.297 85.2543Z" fill="#06033E"/>
<path d="M107.976 82.7644L105.164 81.1442C104.938 81.0142 104.967 80.7868 105.227 80.6366L108.013 79.0314C108.274 78.8812 108.668 78.8651 108.894 78.9951L111.706 80.6153C111.932 80.7454 111.903 80.9727 111.642 81.123L108.856 82.7282C108.596 82.8784 108.201 82.8945 107.976 82.7644Z" fill="#06033E"/>
<path d="M112.419 80.2045L109.607 78.5843C109.381 78.4543 109.41 78.2269 109.67 78.0767L110.591 77.546C110.852 77.3958 111.246 77.3797 111.472 77.5098L114.284 79.13C114.51 79.26 114.481 79.4874 114.22 79.6376L113.299 80.1683C113.039 80.3179 112.644 80.3346 112.419 80.2045Z" fill="#06033E"/>
<path d="M118.058 83.4535L115.246 81.8334C115.02 81.7033 115.048 81.4759 115.309 81.3257L116.23 80.7951C116.491 80.6448 116.885 80.6287 117.111 80.7588L119.922 82.379C120.149 82.5091 120.12 82.7364 119.859 82.8866L118.938 83.4173C118.677 83.5675 118.283 83.5836 118.058 83.4535Z" fill="#06033E"/>
<path d="M122.36 85.933L119.548 84.3129C119.322 84.1828 119.351 83.9554 119.612 83.8052L120.533 83.2745C120.793 83.1243 121.188 83.1082 121.414 83.2383L124.226 84.8585C124.451 84.9886 124.423 85.2159 124.162 85.3661L123.241 85.8968C122.981 86.047 122.586 86.0631 122.36 85.933Z" fill="#06033E"/>
<path d="M126.663 88.4125L123.851 86.7923C123.626 86.6623 123.654 86.4349 123.915 86.2847L124.836 85.754C125.096 85.6038 125.491 85.5877 125.716 85.7178L128.528 87.338C128.754 87.468 128.725 87.6954 128.465 87.8456L127.544 88.3763C127.283 88.5265 126.889 88.5426 126.663 88.4125Z" fill="#06033E"/>
<path d="M130.966 90.892L128.154 89.2718C127.928 89.1418 127.957 88.9144 128.217 88.7642L129.138 88.2335C129.399 88.0833 129.793 88.0672 130.019 88.1973L132.831 89.8175C133.057 89.9475 133.028 90.1749 132.767 90.3251L131.846 90.8558C131.586 91.006 131.192 91.0221 130.966 90.892Z" fill="#06033E"/>
<path d="M154.988 104.735L152.176 103.115C151.951 102.985 151.979 102.757 152.24 102.607L153.161 102.076C153.421 101.926 153.816 101.91 154.041 102.04L156.853 103.66C157.079 103.79 157.05 104.018 156.789 104.168L155.869 104.699C155.608 104.848 155.214 104.865 154.988 104.735Z" fill="#06033E"/>
<path d="M159.291 107.213L156.479 105.593C156.253 105.463 156.282 105.236 156.543 105.085L157.463 104.555C157.724 104.405 158.119 104.388 158.345 104.519L161.156 106.139C161.382 106.269 161.354 106.496 161.093 106.646L160.172 107.177C159.911 107.327 159.516 107.344 159.291 107.213Z" fill="#06033E"/>
<path d="M163.594 109.693L160.782 108.073C160.556 107.943 160.585 107.715 160.846 107.565L161.766 107.034C162.027 106.884 162.422 106.868 162.647 106.998L165.459 108.618C165.684 108.748 165.656 108.976 165.395 109.126L164.474 109.657C164.214 109.807 163.819 109.823 163.594 109.693Z" fill="#06033E"/>
<path d="M167.897 112.172L165.085 110.552C164.859 110.422 164.888 110.195 165.148 110.044L166.069 109.514C166.33 109.364 166.724 109.347 166.95 109.478L169.762 111.098C169.988 111.228 169.959 111.455 169.698 111.605L168.777 112.136C168.517 112.286 168.123 112.302 167.897 112.172Z" fill="#06033E"/>
<path d="M125.28 92.7371L122.468 91.1169C122.243 90.9868 122.271 90.7595 122.532 90.6093L125.318 89.004C125.578 88.8538 125.973 88.8377 126.198 88.9678L129.01 90.588C129.236 90.718 129.207 90.9454 128.947 91.0956L126.161 92.7008C125.901 92.8505 125.506 92.8672 125.28 92.7371Z" fill="#06033E"/>
<path d="M129.623 95.239L126.811 93.6189C126.585 93.4888 126.614 93.2614 126.875 93.1112L129.661 91.506C129.921 91.3558 130.316 91.3397 130.541 91.4697L133.353 93.0899C133.579 93.22 133.55 93.4473 133.29 93.5976L130.504 95.2028C130.243 95.353 129.849 95.3691 129.623 95.239Z" fill="#06033E"/>
<path d="M133.965 97.741L131.154 96.1208C130.928 95.9907 130.956 95.7634 131.217 95.6132L134.003 94.0079C134.264 93.8577 134.658 93.8416 134.884 93.9717L137.695 95.5919C137.921 95.722 137.893 95.9493 137.632 96.0995L134.845 97.7053C134.585 97.855 134.192 97.8711 133.965 97.741Z" fill="#06033E"/>
<path d="M138.308 100.244L135.496 98.6237C135.27 98.4937 135.299 98.2663 135.559 98.1161L138.346 96.5109C138.606 96.3607 139.001 96.3445 139.226 96.4746L142.038 98.0948C142.264 98.2249 142.235 98.4522 141.975 98.6024L139.189 100.208C138.928 100.357 138.534 100.374 138.308 100.244Z" fill="#06033E"/>
<path d="M142.651 102.746L139.839 101.126C139.613 100.996 139.642 100.768 139.902 100.618L142.689 99.0128C142.949 98.8626 143.344 98.8465 143.569 98.9766L146.381 100.597C146.606 100.727 146.578 100.954 146.318 101.104L143.532 102.71C143.27 102.86 142.876 102.876 142.651 102.746Z" fill="#06033E"/>
<path d="M146.993 105.248L144.181 103.628C143.955 103.498 143.984 103.27 144.244 103.12L147.031 101.515C147.292 101.365 147.686 101.348 147.911 101.479L150.723 103.099C150.949 103.229 150.921 103.456 150.66 103.606L147.873 105.212C147.613 105.361 147.218 105.378 146.993 105.248Z" fill="#06033E"/>
<path d="M151.335 107.75L148.523 106.13C148.297 106 148.326 105.772 148.587 105.622L151.373 104.017C151.634 103.867 152.028 103.85 152.254 103.98L155.066 105.601C155.292 105.731 155.263 105.958 155.002 106.108L152.216 107.714C151.955 107.864 151.561 107.88 151.335 107.75Z" fill="#06033E"/>
<path d="M155.678 110.253L152.866 108.633C152.64 108.502 152.669 108.275 152.929 108.125L155.715 106.52C155.976 106.369 156.37 106.353 156.596 106.483L159.408 108.104C159.634 108.234 159.605 108.461 159.344 108.611L156.558 110.217C156.298 110.367 155.904 110.383 155.678 110.253Z" fill="#06033E"/>
<path d="M160.02 112.755L157.209 111.134C156.983 111.004 157.011 110.777 157.272 110.627L160.058 109.022C160.319 108.871 160.714 108.855 160.939 108.985L163.751 110.606C163.977 110.736 163.948 110.963 163.687 111.113L160.902 112.718C160.64 112.869 160.246 112.885 160.02 112.755Z" fill="#06033E"/>
<path d="M100.454 93.0451L92.1727 88.2732C91.9472 88.1431 91.9755 87.9157 92.2361 87.7655L95.022 86.1603C95.2827 86.0101 95.6771 85.994 95.9032 86.124L104.185 90.896C104.41 91.026 104.382 91.2534 104.121 91.4036L101.335 93.0088C101.074 93.159 100.68 93.1757 100.454 93.0451Z" fill="#06033E"/>
<path d="M153.802 123.786L145.521 119.014C145.295 118.884 145.323 118.657 145.584 118.507L148.371 116.901C148.631 116.751 149.026 116.735 149.251 116.865L157.533 121.637C157.759 121.767 157.73 121.995 157.469 122.145L154.683 123.75C154.422 123.9 154.028 123.916 153.802 123.786Z" fill="#06033E"/>
<path d="M136.436 119.306L133.624 117.686C133.398 117.556 133.427 117.329 133.688 117.178L137.007 115.266C137.267 115.116 137.662 115.099 137.887 115.23L140.699 116.85C140.925 116.98 140.896 117.207 140.636 117.357L137.317 119.27C137.056 119.42 136.662 119.437 136.436 119.306Z" fill="#06033E"/>
<path d="M104.901 101.136L100.404 98.5444C100.179 98.4143 100.207 98.1869 100.468 98.0367L103.787 96.1242C104.048 95.9739 104.442 95.9578 104.667 96.0879L109.164 98.679C109.39 98.8091 109.362 99.0365 109.101 99.1867L105.782 101.099C105.521 101.249 105.127 101.266 104.901 101.136Z" fill="#06033E"/>
<path d="M132.252 116.896L127.755 114.305C127.529 114.175 127.558 113.948 127.819 113.797L131.138 111.885C131.399 111.735 131.793 111.719 132.019 111.849L136.516 114.44C136.741 114.57 136.713 114.797 136.452 114.947L133.133 116.86C132.872 117.01 132.478 117.026 132.252 116.896Z" fill="#06033E"/>
<path d="M111.166 104.746L106.67 102.155C106.444 102.025 106.472 101.797 106.733 101.647L110.052 99.7345C110.313 99.5843 110.707 99.5682 110.933 99.6982L115.43 102.289C115.656 102.419 115.627 102.647 115.366 102.797L112.047 104.71C111.786 104.859 111.392 104.876 111.166 104.746Z" fill="#06033E"/>
<path d="M110.963 99.7148L130.515 110.981C130.757 111.121 130.757 111.348 130.515 111.488L127.13 113.438C126.887 113.578 126.494 113.578 126.251 113.438L106.699 102.171L110.963 99.7148Z" fill="#06033E"/>
<path d="M148.573 123.843L151.705 125.648C151.89 125.755 151.867 125.941 151.653 126.064L150.295 126.847C150.082 126.97 149.758 126.983 149.573 126.877L146.441 125.072C146.256 124.965 146.279 124.779 146.493 124.655L147.851 123.873C148.064 123.75 148.387 123.737 148.573 123.843Z" fill="#06033E"/>
<path d="M144.194 121.321L147.326 123.126C147.511 123.232 147.488 123.419 147.274 123.542L145.917 124.324C145.703 124.447 145.38 124.46 145.195 124.354L142.063 122.549C141.878 122.443 141.901 122.256 142.115 122.133L143.472 121.351C143.686 121.228 144.009 121.214 144.194 121.321Z" fill="#06033E"/>
<path d="M139.852 118.819L142.984 120.624C143.169 120.73 143.146 120.917 142.932 121.04L141.575 121.822C141.361 121.945 141.038 121.959 140.853 121.852L137.72 120.047C137.535 119.941 137.558 119.754 137.772 119.631L139.13 118.849C139.344 118.726 139.666 118.713 139.852 118.819Z" fill="#06033E"/>
<path d="M146.592 119.939L149.724 121.744C149.909 121.851 149.886 122.037 149.672 122.16L148.314 122.943C148.101 123.066 147.777 123.079 147.592 122.973L144.46 121.168C144.275 121.061 144.298 120.875 144.512 120.751L145.87 119.969C146.084 119.846 146.407 119.832 146.592 119.939Z" fill="#06033E"/>
</g>
<g opacity="0.4">
<path d="M90.1884 92.6577L87.3766 91.0375C87.1505 90.9075 87.1793 90.6801 87.44 90.5299L90.7587 88.6173C91.0194 88.4671 91.4138 88.451 91.6399 88.5811L94.4517 90.2013C94.6777 90.3313 94.6489 90.5587 94.3882 90.7089L91.069 92.6215C90.8089 92.7717 90.4144 92.7878 90.1884 92.6577Z" fill="#06033E"/>
<path d="M94.5307 95.1597L91.7188 93.5395C91.4928 93.4094 91.5216 93.1821 91.7823 93.0318L95.1016 91.1193C95.3622 90.9691 95.7567 90.9529 95.9821 91.083L98.794 92.7032C99.02 92.8333 98.9912 93.0606 98.7305 93.2108L95.4118 95.1234C95.1512 95.2731 94.7567 95.2897 94.5307 95.1597Z" fill="#06033E"/>
<path d="M98.8734 97.6616L96.0616 96.0414C95.8361 95.9114 95.8644 95.684 96.1251 95.5338L99.4443 93.6212C99.705 93.471 100.099 93.4549 100.325 93.585L103.137 95.2052C103.362 95.3352 103.334 95.5626 103.073 95.7128L99.754 97.6254C99.4934 97.7756 99.0989 97.7917 98.8734 97.6616Z" fill="#06033E"/>
<path d="M104.88 95.5955L102.068 93.9753C101.842 93.8452 101.87 93.6179 102.131 93.4677L104.917 91.8624C105.178 91.7122 105.572 91.6961 105.798 91.8262L108.609 93.4464C108.835 93.5764 108.807 93.8038 108.546 93.954L105.76 95.5592C105.499 95.7095 105.105 95.7256 104.88 95.5955Z" fill="#06033E"/>
<path d="M109.222 98.0984L106.41 96.4782C106.184 96.3482 106.213 96.1208 106.473 95.9706L109.26 94.3654C109.521 94.2151 109.915 94.199 110.14 94.3291L112.952 95.9493C113.178 96.0794 113.15 96.3067 112.889 96.4569L110.102 98.0622C109.842 98.2118 109.447 98.2285 109.222 98.0984Z" fill="#06033E"/>
<path d="M113.564 100.6L110.752 98.9802C110.526 98.8501 110.555 98.6228 110.816 98.4725L113.602 96.8673C113.863 96.7171 114.257 96.701 114.483 96.8311L117.295 98.4513C117.521 98.5813 117.492 98.8087 117.231 98.9589L114.445 100.564C114.185 100.714 113.79 100.73 113.564 100.6Z" fill="#06033E"/>
<path d="M117.906 103.102L115.095 101.482C114.869 101.352 114.897 101.125 115.158 100.974L117.944 99.3693C118.205 99.2191 118.599 99.2029 118.824 99.333L121.636 100.953C121.862 101.083 121.834 101.311 121.573 101.461L118.787 103.066C118.527 103.216 118.132 103.232 117.906 103.102Z" fill="#06033E"/>
<path d="M122.249 105.604L119.438 103.984C119.212 103.854 119.24 103.627 119.501 103.476L122.287 101.871C122.548 101.721 122.943 101.705 123.168 101.835L125.98 103.455C126.205 103.585 126.177 103.813 125.916 103.963L123.131 105.568C122.869 105.718 122.475 105.734 122.249 105.604Z" fill="#06033E"/>
<path d="M126.592 108.107L123.78 106.487C123.554 106.357 123.583 106.13 123.843 105.979L126.629 104.374C126.89 104.224 127.284 104.208 127.51 104.338L130.322 105.958C130.547 106.088 130.519 106.316 130.258 106.466L127.472 108.071C127.212 108.221 126.817 108.237 126.592 108.107Z" fill="#06033E"/>
<path d="M130.934 110.609L128.122 108.989C127.896 108.859 127.925 108.632 128.186 108.481L130.971 106.876C131.232 106.726 131.627 106.71 131.852 106.84L134.664 108.46C134.889 108.59 134.861 108.817 134.6 108.968L131.814 110.573C131.554 110.723 131.16 110.739 130.934 110.609Z" fill="#06033E"/>
<path d="M135.276 113.111L132.464 111.491C132.239 111.361 132.267 111.134 132.528 110.983L135.314 109.378C135.575 109.228 135.969 109.212 136.195 109.342L139.007 110.962C139.233 111.092 139.204 111.319 138.943 111.47L136.157 113.075C135.897 113.225 135.502 113.241 135.276 113.111Z" fill="#06033E"/>
<path d="M139.619 115.614L136.807 113.994C136.582 113.864 136.61 113.636 136.871 113.486L139.657 111.881C139.918 111.731 140.312 111.715 140.538 111.845L143.35 113.465C143.576 113.595 143.547 113.822 143.286 113.973L140.5 115.578C140.239 115.728 139.845 115.744 139.619 115.614Z" fill="#06033E"/>
<path d="M143.961 118.116L141.15 116.496C140.923 116.366 140.952 116.138 141.213 115.988L143.999 114.383C144.259 114.233 144.654 114.217 144.879 114.347L147.691 115.967C147.917 116.097 147.888 116.324 147.628 116.475L144.841 118.08C144.581 118.23 144.187 118.246 143.961 118.116Z" fill="#06033E"/>
<path d="M111.278 94.4109L108.466 92.7907C108.24 92.6607 108.269 92.4333 108.529 92.2831L111.315 90.6779C111.576 90.5276 111.97 90.5115 112.196 90.6416L115.008 92.2618C115.234 92.3919 115.205 92.6192 114.945 92.7694L112.159 94.3747C111.898 94.5243 111.503 94.541 111.278 94.4109Z" fill="#06033E"/>
<path d="M106.87 91.8715L104.058 90.2513C103.833 90.1212 103.861 89.8939 104.122 89.7436L106.908 88.1378C107.168 87.9876 107.563 87.9715 107.789 88.1016L110.601 89.7218C110.827 89.8518 110.798 90.0792 110.537 90.2294L107.751 91.8346C107.491 91.9854 107.096 92.0015 106.87 91.8715Z" fill="#06033E"/>
<path d="M102.456 89.3272L96.3998 85.8376C96.1743 85.7075 96.2025 85.4802 96.4632 85.33L99.2491 83.7247C99.5097 83.5745 99.9042 83.5584 100.13 83.6885L106.186 87.1781C106.412 87.3082 106.383 87.5355 106.122 87.6857L103.336 89.2909C103.076 89.4412 102.682 89.4573 102.456 89.3272Z" fill="#06033E"/>
<path d="M105.541 86.233L100.627 83.4007C100.401 83.2706 100.429 83.0433 100.69 82.893L103.476 81.2872C103.737 81.137 104.131 81.1209 104.356 81.251L109.271 84.0833C109.497 84.2134 109.469 84.4407 109.208 84.5909L106.422 86.1962C106.161 86.347 105.767 86.3636 105.541 86.233Z" fill="#06033E"/>
<path d="M115.62 96.9125L112.808 95.2923C112.582 95.1622 112.611 94.9349 112.872 94.7846L115.658 93.1788C115.918 93.0286 116.313 93.0125 116.538 93.1426L119.35 94.7628C119.575 94.8928 119.547 95.1202 119.286 95.2704L116.501 96.8756C116.241 97.0264 115.846 97.0426 115.62 96.9125Z" fill="#06033E"/>
<path d="M119.962 99.4154L117.15 97.7952C116.925 97.6651 116.953 97.4378 117.214 97.2876L120 95.6818C120.26 95.5316 120.655 95.5154 120.88 95.6455L123.692 97.2657C123.918 97.3958 123.889 97.6231 123.629 97.7733L120.842 99.3786C120.583 99.5294 120.188 99.5455 119.962 99.4154Z" fill="#06033E"/>
<path d="M124.305 101.918L121.493 100.298C121.267 100.167 121.296 99.9402 121.557 99.7899L124.343 98.1847C124.604 98.0345 124.998 98.0184 125.224 98.1484L128.036 99.7686C128.262 99.8987 128.233 100.126 127.972 100.276L125.186 101.881C124.925 102.032 124.531 102.048 124.305 101.918Z" fill="#06033E"/>
<path d="M128.647 104.42L125.836 102.8C125.609 102.669 125.638 102.442 125.899 102.292L128.685 100.687C128.946 100.536 129.341 100.52 129.566 100.65L132.378 102.271C132.603 102.401 132.575 102.628 132.314 102.778L129.529 104.383C129.267 104.534 128.873 104.55 128.647 104.42Z" fill="#06033E"/>
<path d="M132.99 106.923L130.178 105.302C129.952 105.172 129.981 104.945 130.241 104.795L133.027 103.19C133.288 103.039 133.682 103.023 133.908 103.153L136.72 104.774C136.945 104.904 136.917 105.131 136.656 105.281L133.87 106.886C133.61 107.036 133.216 107.053 132.99 106.923Z" fill="#06033E"/>
<path d="M137.332 109.425L134.52 107.804C134.294 107.674 134.323 107.447 134.584 107.297L137.37 105.692C137.631 105.541 138.025 105.525 138.251 105.655L141.062 107.275C141.288 107.406 141.26 107.633 140.999 107.783L138.213 109.388C137.952 109.539 137.558 109.555 137.332 109.425Z" fill="#06033E"/>
<path d="M141.675 111.927L138.863 110.306C138.637 110.176 138.666 109.949 138.927 109.799L141.713 108.193C141.974 108.043 142.368 108.027 142.594 108.157L145.405 109.777C145.631 109.907 145.603 110.135 145.342 110.285L142.556 111.89C142.295 112.04 141.9 112.057 141.675 111.927Z" fill="#06033E"/>
<path d="M146.017 114.429L143.205 112.808C142.979 112.678 143.008 112.451 143.269 112.301L146.055 110.695C146.316 110.545 146.71 110.529 146.936 110.659L149.748 112.279C149.974 112.409 149.945 112.637 149.684 112.787L146.898 114.392C146.638 114.542 146.243 114.559 146.017 114.429Z" fill="#06033E"/>
<path d="M150.36 116.931L147.548 115.311C147.322 115.181 147.35 114.954 147.611 114.804L150.397 113.198C150.658 113.048 151.052 113.032 151.278 113.162L154.09 114.782C154.315 114.912 154.287 115.14 154.027 115.29L151.241 116.895C150.98 117.045 150.586 117.061 150.36 116.931Z" fill="#06033E"/>
<path d="M158.079 121.38L151.944 117.844C151.719 117.714 151.747 117.487 152.008 117.336L154.794 115.731C155.055 115.58 155.449 115.564 155.675 115.694L161.81 119.23C162.036 119.36 162.007 119.587 161.746 119.738L158.96 121.343C158.7 121.494 158.305 121.51 158.079 121.38Z" fill="#06033E"/>
<path d="M166.534 116.508L161.355 113.524C161.129 113.394 161.158 113.167 161.419 113.016L164.205 111.411C164.466 111.261 164.86 111.245 165.086 111.375L170.264 114.359C170.49 114.489 170.461 114.717 170.201 114.867L167.414 116.472C167.154 116.622 166.759 116.638 166.534 116.508Z" fill="#06033E"/>
<path d="M123.225 96.4236L120.413 94.8034C120.187 94.6733 120.215 94.446 120.476 94.2958L123.262 92.6906C123.523 92.5403 123.917 92.5242 124.143 92.6543L126.955 94.2745C127.181 94.4046 127.152 94.6319 126.892 94.7821L124.106 96.3874C123.845 96.537 123.451 96.5537 123.225 96.4236Z" fill="#06033E"/>
<path d="M118.774 93.8592L115.962 92.239C115.736 92.1089 115.765 91.8816 116.026 91.7313L118.812 90.1261C119.073 89.9759 119.467 89.9598 119.693 90.0898L122.505 91.71C122.731 91.8401 122.702 92.0675 122.441 92.2177L119.655 93.8229C119.394 93.9726 119 93.9892 118.774 93.8592Z" fill="#06033E"/>
<path d="M114.324 91.2947L111.512 89.6745C111.286 89.5444 111.315 89.3171 111.575 89.1669L114.362 87.5617C114.622 87.4114 115.017 87.3953 115.242 87.5254L118.054 89.1456C118.28 89.2757 118.251 89.503 117.991 89.6532L115.205 91.2585C114.944 91.4087 114.55 91.4248 114.324 91.2947Z" fill="#06033E"/>
<path d="M109.873 88.7293L107.062 87.1091C106.836 86.979 106.864 86.7517 107.125 86.6014L109.911 84.9962C110.172 84.846 110.566 84.8299 110.792 84.96L113.603 86.5802C113.829 86.7102 113.801 86.9376 113.54 87.0878L110.753 88.693C110.493 88.8432 110.099 88.8594 109.873 88.7293Z" fill="#06033E"/>
<path d="M127.567 98.9252L124.755 97.305C124.529 97.1749 124.558 96.9476 124.819 96.7973L127.605 95.1915C127.866 95.0413 128.26 95.0252 128.486 95.1553L131.298 96.7755C131.524 96.9055 131.495 97.1329 131.234 97.2831L128.448 98.8889C128.187 99.0391 127.793 99.0552 127.567 98.9252Z" fill="#06033E"/>
<path d="M131.91 101.429L129.098 99.8083C128.872 99.6782 128.901 99.4509 129.161 99.3007L131.947 97.6954C132.208 97.5452 132.602 97.5291 132.828 97.6592L135.639 99.2794C135.866 99.4095 135.837 99.6368 135.576 99.787L132.79 101.393C132.529 101.542 132.135 101.559 131.91 101.429Z" fill="#06033E"/>
<path d="M136.252 103.93L133.44 102.31C133.214 102.18 133.243 101.952 133.503 101.802L136.289 100.196C136.55 100.046 136.944 100.03 137.17 100.16L139.982 101.78C140.208 101.91 140.18 102.138 139.919 102.288L137.133 103.893C136.872 104.044 136.478 104.06 136.252 103.93Z" fill="#06033E"/>
<path d="M140.594 106.433L137.782 104.813C137.556 104.683 137.585 104.455 137.846 104.305L140.632 102.699C140.892 102.549 141.287 102.533 141.512 102.663L144.324 104.283C144.55 104.413 144.521 104.641 144.261 104.791L141.475 106.397C141.215 106.547 140.82 106.563 140.594 106.433Z" fill="#06033E"/>
<path d="M144.937 108.935L142.125 107.315C141.899 107.185 141.928 106.958 142.189 106.808L144.975 105.202C145.235 105.052 145.63 105.036 145.855 105.166L148.667 106.786C148.893 106.916 148.864 107.144 148.604 107.294L145.817 108.9C145.557 109.049 145.163 109.065 144.937 108.935Z" fill="#06033E"/>
<path d="M149.279 111.437L146.468 109.817C146.242 109.687 146.27 109.459 146.531 109.309L149.318 107.703C149.578 107.553 149.973 107.537 150.198 107.667L153.01 109.287C153.236 109.417 153.207 109.645 152.946 109.795L150.16 111.4C149.899 111.551 149.505 111.567 149.279 111.437Z" fill="#06033E"/>
<path d="M153.622 113.939L150.81 112.319C150.584 112.189 150.613 111.962 150.873 111.811L153.66 110.206C153.92 110.056 154.315 110.04 154.54 110.17L157.352 111.79C157.578 111.92 157.549 112.148 157.289 112.298L154.503 113.903C154.242 114.053 153.848 114.069 153.622 113.939Z" fill="#06033E"/>
<path d="M157.965 116.441L155.153 114.821C154.927 114.691 154.955 114.464 155.216 114.313L158.003 112.708C158.263 112.558 158.658 112.542 158.883 112.672L161.695 114.292C161.92 114.422 161.892 114.649 161.632 114.8L158.845 116.405C158.584 116.555 158.19 116.571 157.965 116.441Z" fill="#06033E"/>
<path d="M162.307 118.944L159.495 117.324C159.269 117.194 159.298 116.967 159.558 116.816L162.344 115.211C162.605 115.061 162.999 115.045 163.225 115.175L166.037 116.795C166.263 116.925 166.234 117.152 165.973 117.303L163.187 118.908C162.927 119.058 162.532 119.074 162.307 118.944Z" fill="#06033E"/>
<path d="M120.938 90.2342L118.126 88.614C117.9 88.4839 117.929 88.2566 118.189 88.1063L120.975 86.5011C121.236 86.3509 121.63 86.3348 121.857 86.4649L124.668 88.085C124.894 88.2151 124.866 88.4425 124.605 88.5927L121.819 90.1979C121.558 90.3481 121.164 90.3642 120.938 90.2342Z" fill="#06033E"/>
<path d="M116.617 87.7445L113.805 86.1243C113.58 85.9942 113.608 85.7669 113.869 85.6167L116.655 84.0109C116.915 83.8607 117.31 83.8445 117.536 83.9746L120.348 85.5948C120.574 85.7249 120.545 85.9522 120.284 86.1024L117.498 87.7077C117.238 87.8585 116.843 87.8746 116.617 87.7445Z" fill="#06033E"/>
<path d="M112.297 85.2543L109.485 83.6341C109.259 83.504 109.288 83.2767 109.548 83.1264L112.334 81.5206C112.595 81.3704 112.989 81.3543 113.215 81.4844L116.026 83.1046C116.252 83.2347 116.224 83.462 115.963 83.6122L113.177 85.218C112.916 85.3682 112.522 85.3844 112.297 85.2543Z" fill="#06033E"/>
<path d="M107.976 82.7644L105.164 81.1442C104.938 81.0142 104.967 80.7868 105.227 80.6366L108.013 79.0314C108.274 78.8812 108.668 78.8651 108.894 78.9951L111.706 80.6153C111.932 80.7454 111.903 80.9727 111.642 81.123L108.856 82.7282C108.596 82.8784 108.201 82.8945 107.976 82.7644Z" fill="#06033E"/>
<path d="M112.419 80.2045L109.607 78.5843C109.381 78.4543 109.41 78.2269 109.67 78.0767L110.591 77.546C110.852 77.3958 111.246 77.3797 111.472 77.5098L114.284 79.13C114.51 79.26 114.481 79.4874 114.22 79.6376L113.299 80.1683C113.039 80.3179 112.644 80.3346 112.419 80.2045Z" fill="#06033E"/>
<path d="M118.058 83.4535L115.246 81.8334C115.02 81.7033 115.048 81.4759 115.309 81.3257L116.23 80.7951C116.491 80.6448 116.885 80.6287 117.111 80.7588L119.922 82.379C120.149 82.5091 120.12 82.7364 119.859 82.8866L118.938 83.4173C118.677 83.5675 118.283 83.5836 118.058 83.4535Z" fill="#06033E"/>
<path d="M122.36 85.933L119.548 84.3129C119.322 84.1828 119.351 83.9554 119.612 83.8052L120.533 83.2745C120.793 83.1243 121.188 83.1082 121.414 83.2383L124.226 84.8585C124.451 84.9886 124.423 85.2159 124.162 85.3661L123.241 85.8968C122.981 86.047 122.586 86.0631 122.36 85.933Z" fill="#06033E"/>
<path d="M126.663 88.4125L123.851 86.7923C123.626 86.6623 123.654 86.4349 123.915 86.2847L124.836 85.754C125.096 85.6038 125.491 85.5877 125.716 85.7178L128.528 87.338C128.754 87.468 128.725 87.6954 128.465 87.8456L127.544 88.3763C127.283 88.5265 126.889 88.5426 126.663 88.4125Z" fill="#06033E"/>
<path d="M130.966 90.892L128.154 89.2718C127.928 89.1418 127.957 88.9144 128.217 88.7642L129.138 88.2335C129.399 88.0833 129.793 88.0672 130.019 88.1973L132.831 89.8175C133.057 89.9475 133.028 90.1749 132.767 90.3251L131.846 90.8558C131.586 91.006 131.192 91.0221 130.966 90.892Z" fill="#06033E"/>
<path d="M154.988 104.735L152.176 103.115C151.951 102.985 151.979 102.757 152.24 102.607L153.161 102.076C153.421 101.926 153.816 101.91 154.041 102.04L156.853 103.66C157.079 103.79 157.05 104.018 156.789 104.168L155.869 104.699C155.608 104.848 155.214 104.865 154.988 104.735Z" fill="#06033E"/>
<path d="M159.291 107.213L156.479 105.593C156.253 105.463 156.282 105.236 156.543 105.085L157.463 104.555C157.724 104.405 158.119 104.388 158.345 104.519L161.156 106.139C161.382 106.269 161.354 106.496 161.093 106.646L160.172 107.177C159.911 107.327 159.516 107.344 159.291 107.213Z" fill="#06033E"/>
<path d="M163.594 109.693L160.782 108.073C160.556 107.943 160.585 107.715 160.846 107.565L161.766 107.034C162.027 106.884 162.422 106.868 162.647 106.998L165.459 108.618C165.684 108.748 165.656 108.976 165.395 109.126L164.474 109.657C164.214 109.807 163.819 109.823 163.594 109.693Z" fill="#06033E"/>
<path d="M167.897 112.172L165.085 110.552C164.859 110.422 164.888 110.195 165.148 110.044L166.069 109.514C166.33 109.364 166.724 109.347 166.95 109.478L169.762 111.098C169.988 111.228 169.959 111.455 169.698 111.605L168.777 112.136C168.517 112.286 168.123 112.302 167.897 112.172Z" fill="#06033E"/>
<path d="M125.28 92.7371L122.468 91.1169C122.243 90.9868 122.271 90.7595 122.532 90.6093L125.318 89.004C125.578 88.8538 125.973 88.8377 126.198 88.9678L129.01 90.588C129.236 90.718 129.207 90.9454 128.947 91.0956L126.161 92.7008C125.901 92.8505 125.506 92.8672 125.28 92.7371Z" fill="#06033E"/>
<path d="M129.623 95.239L126.811 93.6189C126.585 93.4888 126.614 93.2614 126.875 93.1112L129.661 91.506C129.921 91.3558 130.316 91.3397 130.541 91.4697L133.353 93.0899C133.579 93.22 133.55 93.4473 133.29 93.5976L130.504 95.2028C130.243 95.353 129.849 95.3691 129.623 95.239Z" fill="#06033E"/>
<path d="M133.965 97.741L131.154 96.1208C130.928 95.9907 130.956 95.7634 131.217 95.6132L134.003 94.0079C134.264 93.8577 134.658 93.8416 134.884 93.9717L137.695 95.5919C137.921 95.722 137.893 95.9493 137.632 96.0995L134.845 97.7053C134.585 97.855 134.192 97.8711 133.965 97.741Z" fill="#06033E"/>
<path d="M138.308 100.244L135.496 98.6237C135.27 98.4937 135.299 98.2663 135.559 98.1161L138.346 96.5109C138.606 96.3607 139.001 96.3445 139.226 96.4746L142.038 98.0948C142.264 98.2249 142.235 98.4522 141.975 98.6024L139.189 100.208C138.928 100.357 138.534 100.374 138.308 100.244Z" fill="#06033E"/>
<path d="M142.651 102.746L139.839 101.126C139.613 100.996 139.642 100.768 139.902 100.618L142.689 99.0128C142.949 98.8626 143.344 98.8465 143.569 98.9766L146.381 100.597C146.606 100.727 146.578 100.954 146.318 101.104L143.532 102.71C143.27 102.86 142.876 102.876 142.651 102.746Z" fill="#06033E"/>
<path d="M146.993 105.248L144.181 103.628C143.955 103.498 143.984 103.27 144.244 103.12L147.031 101.515C147.292 101.365 147.686 101.348 147.911 101.479L150.723 103.099C150.949 103.229 150.921 103.456 150.66 103.606L147.873 105.212C147.613 105.361 147.218 105.378 146.993 105.248Z" fill="#06033E"/>
<path d="M151.335 107.75L148.523 106.13C148.297 106 148.326 105.772 148.587 105.622L151.373 104.017C151.634 103.867 152.028 103.85 152.254 103.98L155.066 105.601C155.292 105.731 155.263 105.958 155.002 106.108L152.216 107.714C151.955 107.864 151.561 107.88 151.335 107.75Z" fill="#06033E"/>
<path d="M155.678 110.253L152.866 108.633C152.64 108.502 152.669 108.275 152.929 108.125L155.715 106.52C155.976 106.369 156.37 106.353 156.596 106.483L159.408 108.104C159.634 108.234 159.605 108.461 159.344 108.611L156.558 110.217C156.298 110.367 155.904 110.383 155.678 110.253Z" fill="#06033E"/>
<path d="M160.02 112.755L157.209 111.134C156.983 111.004 157.011 110.777 157.272 110.627L160.058 109.022C160.319 108.871 160.714 108.855 160.939 108.985L163.751 110.606C163.977 110.736 163.948 110.963 163.687 111.113L160.902 112.718C160.64 112.869 160.246 112.885 160.02 112.755Z" fill="#06033E"/>
<path d="M100.454 93.0451L92.1727 88.2732C91.9472 88.1431 91.9755 87.9157 92.2361 87.7655L95.022 86.1603C95.2827 86.0101 95.6771 85.994 95.9032 86.124L104.185 90.896C104.41 91.026 104.382 91.2534 104.121 91.4036L101.335 93.0088C101.074 93.159 100.68 93.1757 100.454 93.0451Z" fill="#06033E"/>
<path d="M153.802 123.786L145.521 119.014C145.295 118.884 145.323 118.657 145.584 118.507L148.371 116.901C148.631 116.751 149.026 116.735 149.251 116.865L157.533 121.637C157.759 121.767 157.73 121.995 157.469 122.145L154.683 123.75C154.422 123.9 154.028 123.916 153.802 123.786Z" fill="#06033E"/>
<path d="M136.436 119.306L133.624 117.686C133.398 117.556 133.427 117.329 133.688 117.178L137.007 115.266C137.267 115.116 137.662 115.099 137.887 115.23L140.699 116.85C140.925 116.98 140.896 117.207 140.636 117.357L137.317 119.27C137.056 119.42 136.662 119.437 136.436 119.306Z" fill="#06033E"/>
<path d="M104.901 101.136L100.404 98.5444C100.179 98.4143 100.207 98.1869 100.468 98.0367L103.787 96.1242C104.048 95.9739 104.442 95.9578 104.667 96.0879L109.164 98.679C109.39 98.8091 109.362 99.0365 109.101 99.1867L105.782 101.099C105.521 101.249 105.127 101.266 104.901 101.136Z" fill="#06033E"/>
<path d="M132.252 116.896L127.755 114.305C127.529 114.175 127.558 113.948 127.819 113.797L131.138 111.885C131.399 111.735 131.793 111.719 132.019 111.849L136.516 114.44C136.741 114.57 136.713 114.797 136.452 114.947L133.133 116.86C132.872 117.01 132.478 117.026 132.252 116.896Z" fill="#06033E"/>
<path d="M111.166 104.746L106.67 102.155C106.444 102.025 106.472 101.797 106.733 101.647L110.052 99.7345C110.313 99.5843 110.707 99.5682 110.933 99.6982L115.43 102.289C115.656 102.419 115.627 102.647 115.366 102.797L112.047 104.71C111.786 104.859 111.392 104.876 111.166 104.746Z" fill="#06033E"/>
<path d="M110.963 99.7148L130.515 110.981C130.757 111.121 130.757 111.348 130.515 111.488L127.13 113.438C126.887 113.578 126.494 113.578 126.251 113.438L106.699 102.171L110.963 99.7148Z" fill="#06033E"/>
<path d="M148.573 123.843L151.705 125.648C151.89 125.755 151.867 125.941 151.653 126.064L150.295 126.847C150.082 126.97 149.758 126.983 149.573 126.877L146.441 125.072C146.256 124.965 146.279 124.779 146.493 124.655L147.851 123.873C148.064 123.75 148.387 123.737 148.573 123.843Z" fill="#06033E"/>
<path d="M144.194 121.321L147.326 123.126C147.511 123.232 147.488 123.419 147.274 123.542L145.917 124.324C145.703 124.447 145.38 124.46 145.195 124.354L142.063 122.549C141.878 122.443 141.901 122.256 142.115 122.133L143.472 121.351C143.686 121.228 144.009 121.214 144.194 121.321Z" fill="#06033E"/>
<path d="M139.852 118.819L142.984 120.624C143.169 120.73 143.146 120.917 142.932 121.04L141.575 121.822C141.361 121.945 141.038 121.959 140.853 121.852L137.72 120.047C137.535 119.941 137.558 119.754 137.772 119.631L139.13 118.849C139.344 118.726 139.666 118.713 139.852 118.819Z" fill="#06033E"/>
<path d="M146.592 119.939L149.724 121.744C149.909 121.851 149.886 122.037 149.672 122.16L148.314 122.943C148.101 123.066 147.777 123.079 147.592 122.973L144.46 121.168C144.275 121.061 144.298 120.875 144.512 120.751L145.87 119.969C146.084 119.846 146.407 119.832 146.592 119.939Z" fill="#06033E"/>
</g>
<path d="M192.55 114.877L109.589 67.0715C108.285 66.3198 107.604 64.4878 108.068 62.9804L126.83 2.18394C127.295 0.676558 128.729 0.0635922 130.033 0.815268L212.994 48.6203C214.298 49.372 214.979 51.2034 214.514 52.7114L195.753 113.508C195.289 115.016 193.855 115.628 192.55 114.877Z" fill="url(#paint7_radial_71_82766)"/>
<path d="M191.768 112.748L111.301 66.3411C110.052 65.6217 109.401 63.8691 109.845 62.4262L127.782 4.30485C128.227 2.86194 129.599 2.27545 130.847 2.99489L211.314 49.4014C212.563 50.1208 213.215 51.8734 212.77 53.3163L194.833 111.438C194.389 112.881 193.016 113.467 191.768 112.748Z" fill="url(#paint8_linear_71_82766)"/>
<path opacity="0.4" d="M191.768 112.748L111.301 66.3411C110.052 65.6217 109.401 63.8691 109.845 62.4262L127.782 4.30485C128.227 2.86194 129.599 2.27545 130.847 2.99489L211.314 49.4014C212.563 50.1208 213.215 51.8734 212.77 53.3163L194.833 111.438C194.389 112.881 193.016 113.467 191.768 112.748Z" fill="#06033E"/>
<path opacity="0.4" d="M191.768 112.748L111.301 66.3411C110.052 65.6217 109.401 63.8691 109.845 62.4262L127.782 4.30485C128.227 2.86194 129.599 2.27545 130.847 2.99489L211.314 49.4014C212.563 50.1208 213.215 51.8734 212.77 53.3163L194.833 111.438C194.389 112.881 193.016 113.467 191.768 112.748Z" fill="#06033E"/>
<path opacity="0.5" d="M187.444 94.9855L132.973 63.597C132.116 63.1032 131.669 61.9009 131.974 60.9109L144.293 20.9915C144.598 20.0016 145.539 19.5993 146.396 20.0925L200.868 51.481C201.724 51.9748 202.172 53.1772 201.867 54.1671L189.548 94.0865C189.243 95.0765 188.301 95.4788 187.444 94.9855Z" fill="#06033E"/>
<path d="M180.084 95.9494L125.612 64.5609C124.756 64.0671 124.309 62.8648 124.614 61.8748L136.932 21.9554C137.237 20.9655 138.179 20.5631 139.035 21.0564L193.507 52.4455C194.364 52.9393 194.811 54.1416 194.506 55.1316L182.187 95.051C181.883 96.0409 180.941 96.4432 180.084 95.9494Z" fill="url(#paint9_radial_71_82766)"/>
<g opacity="0.5">
<path d="M180.084 95.9494L125.612 64.5609C124.756 64.0671 124.309 62.8648 124.614 61.8748L136.932 21.9554C137.237 20.9655 138.179 20.5631 139.035 21.0564L193.507 52.4455C194.364 52.9393 194.811 54.1416 194.506 55.1316L182.187 95.051C181.883 96.0409 180.941 96.4432 180.084 95.9494Z" fill="#06033E"/>
</g>
<path d="M193.508 52.4455L139.036 21.0564C138.499 20.7473 137.93 20.7899 137.503 21.1082C137.76 21.1007 138.028 21.1588 138.29 21.3091L192.762 52.6976C193.618 53.1908 194.065 54.3937 193.76 55.3837L181.441 95.3031C181.327 95.6726 181.124 95.9598 180.87 96.1497C181.455 96.1324 181.975 95.7376 182.188 95.0498L194.506 55.1304C194.812 54.1416 194.364 52.9387 193.508 52.4455Z" fill="white"/>
<path opacity="0.4" d="M111.383 128.547C110.632 128.547 109.913 128.392 109.364 128.076V128.076L87.5398 115.5C86.9614 115.166 86.6431 114.69 86.6431 114.158C86.6425 113.541 87.0819 112.934 87.8466 112.493L99.08 106.019C100.453 105.229 102.467 105.151 103.669 105.842L125.493 118.418C126.071 118.752 126.389 119.228 126.39 119.76C126.39 120.377 125.951 120.985 125.186 121.425L113.952 127.899C113.208 128.328 112.273 128.547 111.383 128.547ZM101.661 106.008C100.872 106.008 100.034 106.197 99.3961 106.565L88.1626 113.038C87.5974 113.363 87.2734 113.772 87.2734 114.158C87.2734 114.54 87.59 114.802 87.8558 114.955L109.68 127.531C110.67 128.1 112.482 128.021 113.637 127.354L124.871 120.881C125.436 120.555 125.76 120.147 125.76 119.76C125.76 119.379 125.444 119.116 125.178 118.963L103.354 106.387C102.911 106.132 102.302 106.008 101.661 106.008Z" fill="#06033E"/>
<path d="M152.304 42.0001L148.936 40.0593C148.624 39.8791 148.457 39.4463 148.562 39.0929C148.668 38.739 149.007 38.5985 149.319 38.7787L152.687 40.7195C153 40.8996 153.167 41.3324 153.061 41.6858C152.955 42.0392 152.616 42.1796 152.304 42.0001Z" fill="white"/>
<path d="M160.325 46.6221L155.36 43.7605C155.047 43.5803 154.88 43.1475 154.985 42.7941C155.091 42.4401 155.43 42.2997 155.743 42.4799L160.708 45.3409C161.021 45.5211 161.188 45.9539 161.083 46.3073C160.977 46.6613 160.638 46.8023 160.325 46.6221Z" fill="white"/>
<path d="M145.512 56.9641L142.144 55.0234C141.832 54.8432 141.665 54.4104 141.77 54.057C141.876 53.703 142.215 53.5626 142.527 53.7422L145.895 55.6829C146.208 55.8631 146.375 56.2959 146.269 56.6493C146.164 57.0033 145.825 57.1443 145.512 56.9641Z" fill="white"/>
<path d="M152.663 61.0844L147.697 58.2233C147.385 58.0432 147.217 57.6104 147.323 57.257C147.428 56.903 147.767 56.7626 148.08 56.9427L153.046 59.8044C153.358 59.9846 153.525 60.4174 153.42 60.7708C153.314 61.1236 152.975 61.264 152.663 61.0844Z" fill="white"/>
<path d="M142.216 39.3329L140.112 38.1208C139.8 37.9407 139.632 37.5078 139.738 37.1545C139.843 36.8005 140.183 36.6601 140.495 36.8402L142.599 38.0523C142.911 38.2325 143.079 38.6653 142.973 39.0187C142.867 39.3721 142.528 39.5131 142.216 39.3329Z" fill="white"/>
<path d="M148.546 46.1272L142.118 42.4235C141.806 42.2434 141.638 41.8106 141.744 41.4572C141.85 41.1032 142.189 40.9628 142.501 41.1429L148.929 44.8466C149.241 45.0268 149.408 45.4596 149.303 45.813C149.197 46.167 148.858 46.3074 148.546 46.1272Z" fill="white"/>
<path d="M142.618 49.0038L140.514 47.7917C140.201 47.6116 140.034 47.1787 140.14 46.8254C140.245 46.4714 140.584 46.331 140.897 46.5111L143.001 47.7232C143.313 47.9034 143.48 48.3362 143.375 48.6896C143.269 49.043 142.93 49.184 142.618 49.0038Z" fill="white"/>
<path d="M153.438 67.8237L147.819 64.5857C147.507 64.4055 147.339 63.9727 147.445 63.6193C147.55 63.2653 147.89 63.1249 148.202 63.305L153.821 66.5431C154.134 66.7233 154.301 67.1561 154.195 67.5095C154.089 67.8629 153.751 68.0039 153.438 67.8237Z" fill="white"/>
<path d="M140.26 53.938L138.909 53.1599C138.597 52.9797 138.43 52.5469 138.535 52.1935C138.641 51.8396 138.98 51.6991 139.292 51.8793L140.643 52.6574C140.955 52.8376 141.123 53.2704 141.017 53.6238C140.911 53.9772 140.572 54.1176 140.26 53.938Z" fill="white"/>
<path d="M138.982 59.4934L137.305 58.5271C136.992 58.3469 136.825 57.9141 136.931 57.5607C137.036 57.2067 137.375 57.0663 137.688 57.2465L139.365 58.2128C139.677 58.393 139.845 58.8258 139.739 59.1792C139.634 59.5326 139.295 59.6736 138.982 59.4934Z" fill="white"/>
<path d="M145.506 63.2532L141.084 60.7058C140.772 60.5256 140.605 60.0928 140.71 59.7394C140.816 59.3855 141.155 59.245 141.467 59.4252L145.889 61.9726C146.201 62.1527 146.368 62.5855 146.263 62.9389C146.157 63.2923 145.818 63.4333 145.506 63.2532Z" fill="white"/>
<path d="M139.681 63.0426L136.503 61.2107C136.19 61.0305 136.023 60.5977 136.129 60.2443C136.234 59.8903 136.573 59.7499 136.886 59.93L140.065 61.762C140.377 61.9422 140.545 62.375 140.439 62.7284C140.333 63.0818 139.994 63.2228 139.681 63.0426Z" fill="white"/>
<path d="M158.259 70.6156L156.217 69.4392C155.905 69.259 155.738 68.8262 155.843 68.4728C155.949 68.1189 156.288 67.9784 156.6 68.1586L158.642 69.335C158.954 69.5151 159.121 69.948 159.016 70.3014C158.91 70.6547 158.571 70.7952 158.259 70.6156Z" fill="white"/>
<path d="M150.443 53.5132L144.824 50.2751C144.512 50.095 144.344 49.6621 144.45 49.3088C144.555 48.9548 144.894 48.8143 145.207 48.9945L150.826 52.2326C151.139 52.4127 151.306 52.8455 151.2 53.1989C151.095 53.5523 150.756 53.6933 150.443 53.5132Z" fill="white"/>
<path d="M151.109 50.7505L141.316 45.1071C141.004 44.927 140.836 44.4942 140.942 44.1408C141.048 43.7868 141.387 43.6464 141.699 43.8265L151.492 49.4699C151.805 49.65 151.972 50.0828 151.866 50.4362C151.761 50.7896 151.422 50.9306 151.109 50.7505Z" fill="#E8975B"/>
<path d="M145.33 53.7134L139.711 50.4753C139.399 50.2952 139.232 49.8623 139.337 49.509C139.443 49.155 139.782 49.0145 140.094 49.1947L145.713 52.4328C146.026 52.6129 146.193 53.0457 146.087 53.3991C145.982 53.7525 145.643 53.8935 145.33 53.7134Z" fill="#E8975B"/>
<path d="M154.705 55.9681L152.663 54.7917C152.351 54.6116 152.183 54.1787 152.289 53.8254C152.394 53.4714 152.734 53.331 153.046 53.5111L155.087 54.6875C155.4 54.8677 155.567 55.3005 155.462 55.6539C155.356 56.0073 155.017 56.1483 154.705 55.9681Z" fill="#E8975B"/>
<path d="M175.471 55.35L163.381 48.3835C163.069 48.2034 162.901 47.7705 163.007 47.4171C163.112 47.0632 163.452 46.9228 163.764 47.1029L175.854 54.0694C176.166 54.2496 176.334 54.6824 176.228 55.0358C176.123 55.3892 175.784 55.5296 175.471 55.35Z" fill="#E8975B"/>
<path d="M144.862 59.7346L138.107 55.8427C137.794 55.6625 137.627 55.2297 137.733 54.8763C137.838 54.5224 138.177 54.3819 138.49 54.5615L145.244 58.4534C145.557 58.6336 145.724 59.0664 145.619 59.4198C145.513 59.7737 145.174 59.9148 144.862 59.7346Z" fill="#F8359E"/>
<path d="M145.88 38.2979L140.914 35.4362C140.602 35.2561 140.434 34.8233 140.54 34.4699C140.645 34.1159 140.985 33.9755 141.297 34.1556L146.263 37.0173C146.575 37.1974 146.743 37.6303 146.637 37.9836C146.531 38.337 146.192 38.4781 145.88 38.2979Z" fill="#F8359E"/>
<path d="M138.643 65.5903L132.892 62.2763C132.579 62.0961 132.412 61.6633 132.517 61.3099C132.623 60.956 132.962 60.8155 133.275 60.9951L139.026 64.3091C139.338 64.4893 139.505 64.9221 139.4 65.2755C139.294 65.6295 138.955 65.7705 138.643 65.5903Z" fill="#E8975B"/>
<path d="M176.829 49.1444L174.367 47.7257C174.139 47.5939 174.016 47.2779 174.094 47.0194C174.171 46.761 174.419 46.658 174.648 46.7898L177.109 48.208C177.337 48.3398 177.459 48.6558 177.382 48.9148C177.304 49.1726 177.057 49.2756 176.829 49.1444Z" fill="white"/>
<path d="M181.524 51.8505L179.062 50.4317C178.834 50.2999 178.711 49.9839 178.789 49.7255C178.866 49.4671 179.114 49.3641 179.342 49.4959L181.803 50.914C182.032 51.0458 182.154 51.3618 182.077 51.6202C182 51.8786 181.752 51.9817 181.524 51.8505Z" fill="white"/>
<path d="M186.219 54.555L183.758 53.1368C183.529 53.005 183.407 52.689 183.484 52.4306C183.562 52.1721 183.81 52.0691 184.038 52.2009L186.499 53.6191C186.728 53.7509 186.85 54.0669 186.773 54.3253C186.695 54.5837 186.447 54.6868 186.219 54.555Z" fill="white"/>
<path d="M188.527 55.8872L188.453 55.8428C188.225 55.711 188.102 55.3951 188.18 55.1366C188.257 54.8782 188.505 54.7752 188.733 54.907L188.807 54.9513C189.035 55.0831 189.158 55.3991 189.08 55.6575C189.003 55.9159 188.755 56.019 188.527 55.8872Z" fill="#F8359E"/>
<defs>
<linearGradient id="paint0_linear_71_82766" x1="234.054" y1="139.085" x2="252.86" y2="139.085" gradientUnits="userSpaceOnUse">
<stop stop-color="#E39A65"/>
<stop offset="1" stop-color="#E95F8D"/>
</linearGradient>
<linearGradient id="paint1_linear_71_82766" x1="208.305" y1="113.361" x2="239.894" y2="113.361" gradientUnits="userSpaceOnUse">
<stop stop-color="#E39A65"/>
<stop offset="1" stop-color="#E95F8D"/>
</linearGradient>
<linearGradient id="paint2_linear_71_82766" x1="0" y1="123.924" x2="31.5888" y2="123.924" gradientUnits="userSpaceOnUse">
<stop stop-color="#E39A65"/>
<stop offset="1" stop-color="#E95F8D"/>
</linearGradient>
<linearGradient id="paint3_linear_71_82766" x1="36.7766" y1="121.901" x2="205.37" y2="121.901" gradientUnits="userSpaceOnUse">
<stop stop-color="#E39A65"/>
<stop offset="1" stop-color="#E95F8D"/>
</linearGradient>
<radialGradient id="paint4_radial_71_82766" cx="0" cy="0" r="1" gradientUnits="userSpaceOnUse" gradientTransform="translate(129.9 -2.68016) scale(128.767 128.519)">
<stop stop-color="#E39A65"/>
<stop offset="0.4742" stop-color="#A92FFB"/>
<stop offset="0.5947" stop-color="#891CFB"/>
<stop offset="0.7421" stop-color="#6507FA"/>
<stop offset="0.8016" stop-color="#0D0C6F"/>
</radialGradient>
<radialGradient id="paint5_radial_71_82766" cx="0" cy="0" r="1" gradientUnits="userSpaceOnUse" gradientTransform="translate(51.1436 100.53) scale(140.806 140.535)">
<stop stop-color="#E39A65"/>
<stop offset="0.4742" stop-color="#A92FFB"/>
<stop offset="0.5679" stop-color="#891CFB"/>
<stop offset="0.6825" stop-color="#6507FA"/>
<stop offset="0.7381" stop-color="#0D0C6F"/>
</radialGradient>
<radialGradient id="paint6_radial_71_82766" cx="0" cy="0" r="1" gradientUnits="userSpaceOnUse" gradientTransform="translate(64.094 72.3221) scale(126.267 126.024)">
<stop stop-color="#E39A65"/>
<stop offset="0.4742" stop-color="#A92FFB"/>
<stop offset="0.5875" stop-color="#891CFB"/>
<stop offset="0.7262" stop-color="#6507FA"/>
<stop offset="1" stop-color="#3919BB"/>
</radialGradient>
<radialGradient id="paint7_radial_71_82766" cx="0" cy="0" r="1" gradientUnits="userSpaceOnUse" gradientTransform="translate(95.5495 24.128) scale(128.793 128.545)">
<stop stop-color="#E39A65"/>
<stop offset="0.4742" stop-color="#A92FFB"/>
<stop offset="0.5875" stop-color="#891CFB"/>
<stop offset="0.7262" stop-color="#6507FA"/>
<stop offset="1" stop-color="#3919BB"/>
</radialGradient>
<linearGradient id="paint8_linear_71_82766" x1="109.706" y1="57.8713" x2="212.909" y2="57.8713" gradientUnits="userSpaceOnUse">
<stop stop-color="#3919BB"/>
<stop offset="1" stop-color="#6507FA"/>
</linearGradient>
<radialGradient id="paint9_radial_71_82766" cx="0" cy="0" r="1" gradientUnits="userSpaceOnUse" gradientTransform="translate(48.533 -3.32219) scale(200.592 200.206)">
<stop stop-color="#E39A65"/>
<stop offset="0.4742" stop-color="#A92FFB"/>
<stop offset="0.5875" stop-color="#891CFB"/>
<stop offset="0.7262" stop-color="#6507FA"/>
<stop offset="1" stop-color="#3919BB"/>
</radialGradient>
</defs>
</svg>
