<svg width="18" height="18" viewBox="0 0 18 18" fill="none" xmlns="http://www.w3.org/2000/svg">
<path d="M5.14746 4.49121C5.33731 4.49121 5.49121 4.33731 5.49121 4.14746C5.49121 3.95761 5.33731 3.80371 5.14746 3.80371C4.95761 3.80371 4.80371 3.95761 4.80371 4.14746C4.80371 4.33731 4.95761 4.49121 5.14746 4.49121Z" fill="#211E1E"/>
<path d="M5.14746 5.73926V12.6051" stroke="#211E1E" stroke-linecap="round" stroke-linejoin="round"/>
<path d="M13.1545 12.6043V8.19973C13.1533 7.49263 12.8719 6.81485 12.3719 6.31486C11.8719 5.81487 11.1941 5.53344 10.487 5.53223C9.77914 5.53223 9.10018 5.81312 8.5992 6.31324C8.09821 6.81336 7.81616 7.49184 7.81494 8.19973V12.6043" stroke="#211E1E" stroke-linecap="round" stroke-linejoin="round"/>
<path d="M7.81494 8.20051V5.73926" stroke="#211E1E" stroke-linecap="round" stroke-linejoin="round"/>
<path d="M16.5417 0.5H1.41667C1.17355 0.5 0.940394 0.596577 0.768485 0.768485C0.596577 0.940394 0.5 1.17355 0.5 1.41667V16.5417C0.5 16.7848 0.596577 17.0179 0.768485 17.1898C0.940394 17.3618 1.17355 17.4583 1.41667 17.4583H16.5417C16.7848 17.4583 17.0179 17.3618 17.1898 17.1898C17.3618 17.0179 17.4583 16.7848 17.4583 16.5417V1.41667C17.4583 1.17355 17.3618 0.940394 17.1898 0.768485C17.0179 0.596577 16.7848 0.5 16.5417 0.5Z" stroke="#211E1E" stroke-linecap="round" stroke-linejoin="round"/>
</svg>
