<svg width="152" height="22" viewBox="0 0 152 22" fill="none" xmlns="http://www.w3.org/2000/svg">
<g clip-path="url(#clip0_720_4578)">
<path d="M38.4008 13.2457V19.0799C38.4001 19.1959 38.3523 19.3069 38.2675 19.3889C38.1827 19.471 38.0678 19.5173 37.9478 19.5178H34.4999C34.4404 19.5178 34.3814 19.5065 34.3264 19.4845C34.2714 19.4625 34.2216 19.4302 34.1796 19.3896C34.1375 19.3489 34.1042 19.3006 34.0812 19.2475C34.0585 19.1944 34.0469 19.1374 34.0469 19.0799V2.62348C34.0467 2.56588 34.058 2.50883 34.0808 2.45557C34.1033 2.40231 34.1368 2.35391 34.1789 2.31319C34.221 2.27249 34.271 2.24024 34.3262 2.21832C34.3812 2.19641 34.4402 2.18528 34.4999 2.18555H37.9478C38.0678 2.18555 38.1831 2.23169 38.2681 2.31382C38.3531 2.39594 38.4008 2.50733 38.4008 2.62348V8.29366C38.4003 8.38928 38.4323 8.48239 38.4918 8.55881C38.5513 8.6352 38.6348 8.69072 38.7301 8.71683C38.8252 8.74294 38.9266 8.73823 39.0187 8.7034C39.1108 8.6686 39.1887 8.60561 39.2402 8.52404L43.1604 2.3931C43.2008 2.32963 43.2573 2.27723 43.3247 2.2409C43.3919 2.20456 43.4677 2.18551 43.5447 2.18555H47.4091C47.4903 2.18605 47.5697 2.20751 47.6395 2.24771C47.7091 2.28791 47.7664 2.34538 47.8055 2.41419C47.8443 2.48297 47.8636 2.56059 47.8611 2.63898C47.8587 2.71737 47.8344 2.79371 47.7913 2.86008L44.163 8.34968C43.0896 9.9727 41.9539 10.3442 41.2948 10.3982C41.2456 10.4018 41.1997 10.4234 41.1662 10.4584C41.1327 10.4934 41.1142 10.5394 41.1144 10.5871C41.1144 10.6377 41.1353 10.6863 41.1722 10.7221C41.2093 10.7579 41.2596 10.778 41.312 10.778H42.6774C45.7517 10.778 46.5203 12.3865 47.4156 14.4661C47.9974 15.8214 48.7789 17.5254 49.7299 18.8246C49.7774 18.8901 49.8053 18.9669 49.8109 19.0467C49.8162 19.1265 49.7991 19.2062 49.7611 19.2772C49.7231 19.3482 49.6655 19.4078 49.5949 19.4494C49.5245 19.4911 49.4433 19.5133 49.3607 19.5137H45.4963C45.4254 19.5142 45.3552 19.4986 45.2919 19.4679C45.2283 19.4372 45.1734 19.3924 45.1313 19.3372C44.0299 17.8969 43.5984 16.305 42.8363 14.7339C41.9389 12.951 40.786 12.8037 39.2509 12.8037H38.8581C38.7977 12.8028 38.7378 12.8137 38.682 12.8356C38.6262 12.8575 38.5753 12.89 38.5328 12.9313C38.4901 12.9725 38.4564 13.0215 38.4338 13.0756C38.4111 13.1296 38.3999 13.1874 38.4008 13.2457Z" fill="white"/>
<path d="M56.226 6.89062C60.7581 6.89062 63.0123 9.61364 63.0123 13.3246C63.0123 17.0355 60.7581 19.7586 56.226 19.7586C51.6939 19.7586 49.4375 17.0355 49.4375 13.3246C49.4375 9.61364 51.6917 6.89062 56.226 6.89062ZM56.226 16.1991C57.8898 16.1991 58.6584 15.0348 58.6584 13.3267C58.6584 11.6185 57.8898 10.4542 56.226 10.4542C54.5621 10.4542 53.7914 11.6185 53.7914 13.3267C53.7914 15.0348 54.56 16.1991 56.226 16.1991Z" fill="white"/>
<path d="M72.1541 12.9553C72.1541 11.6187 71.6432 11.0998 70.8488 11.0998C69.3117 11.0998 68.3906 13.0798 68.3906 15.4064V19.08C68.3902 19.196 68.3423 19.307 68.2573 19.3891C68.1725 19.4711 68.0577 19.5174 67.9376 19.5179H64.5155C64.3955 19.5179 64.2802 19.4718 64.1952 19.3897C64.1104 19.3075 64.0625 19.1961 64.0625 19.08V7.57565C64.0623 7.51806 64.0739 7.461 64.0964 7.40775C64.1192 7.35449 64.1525 7.30611 64.1945 7.26539C64.2368 7.22467 64.2869 7.19242 64.3418 7.1705C64.397 7.14858 64.456 7.13746 64.5155 7.13773H67.9376C68.0579 7.13773 68.1732 7.18387 68.258 7.26599C68.343 7.34812 68.3906 7.45951 68.3906 7.57565V8.40584C68.3906 9.70301 68.148 10.3298 67.8947 10.7553C67.8419 10.8423 67.8217 10.9442 67.8374 11.044C67.8528 11.1437 67.9035 11.2352 67.9806 11.3032C69.185 9.85037 69.7217 6.89697 72.9184 6.89697C74.5587 6.89697 76.5037 7.39094 76.5037 10.857V19.0862C76.5037 19.2024 76.4561 19.3138 76.3711 19.3959C76.2863 19.478 76.171 19.5241 76.0508 19.5241H72.6071C72.4873 19.5236 72.3723 19.4773 72.2875 19.3953C72.2027 19.3133 72.1548 19.2022 72.1541 19.0862V12.9553Z" fill="white"/>
<path d="M84.0664 6.89062C87.729 6.89062 90.2129 8.67346 90.2129 13.1046V13.7127C90.2129 13.8278 90.1661 13.9382 90.0826 14.0202C89.9991 14.1021 89.8855 14.149 89.7664 14.1506L82.555 14.2357C82.4822 14.2356 82.4103 14.2525 82.3454 14.2849C82.2806 14.3172 82.2248 14.3642 82.1827 14.4218C82.1406 14.4793 82.1136 14.5459 82.1037 14.6157C82.0936 14.6855 82.1011 14.7566 82.1256 14.8231C82.4627 15.6761 83.1668 16.1991 84.3927 16.1991C84.8144 16.2032 85.2309 16.107 85.6051 15.9192C85.9795 15.7314 86.3002 15.4577 86.5396 15.1219C86.6053 15.0393 86.6993 14.9819 86.8048 14.9602C86.9102 14.9385 87.0203 14.9539 87.115 15.0036L89.7986 16.417C89.8514 16.4446 89.8978 16.482 89.9354 16.5271C89.9731 16.5721 90.001 16.6239 90.0178 16.6795C90.0345 16.7351 90.0399 16.7934 90.033 16.8509C90.0264 16.9084 90.0081 16.9642 89.9789 17.0148C88.9742 18.7353 86.838 19.7648 84.2167 19.7648C79.6824 19.7648 77.5312 17.0418 77.5312 13.3308C77.5312 9.61987 79.5343 6.89062 84.0664 6.89062ZM85.3416 11.5189C85.4273 11.519 85.5113 11.4956 85.5836 11.4515C85.6562 11.4073 85.7141 11.3442 85.7511 11.2695C85.7878 11.1947 85.8019 11.1114 85.7919 11.0292C85.7818 10.947 85.7478 10.8692 85.6937 10.805C85.5117 10.6033 85.2843 10.4446 85.0291 10.341C84.7738 10.2374 84.4975 10.1916 84.221 10.2072C83.9329 10.1924 83.645 10.2371 83.3762 10.3384C83.1074 10.4397 82.8641 10.5952 82.6623 10.7946C82.6048 10.8577 82.5672 10.9356 82.5543 11.0188C82.5415 11.1021 82.5539 11.1872 82.59 11.2638C82.626 11.3404 82.6844 11.4053 82.7579 11.4505C82.8313 11.4958 82.9167 11.5196 83.0037 11.5189H85.3416Z" fill="white"/>
<path d="M91.3266 7.13742H92.7264C92.8464 7.13688 92.9613 7.09056 93.0461 7.00856C93.1309 6.92655 93.1787 6.81548 93.1794 6.6995V4.15912C93.179 4.10153 93.1906 4.04447 93.2133 3.99121C93.2358 3.93796 93.2693 3.88956 93.3114 3.84886C93.3535 3.80814 93.4035 3.77588 93.4587 3.75399C93.5137 3.73207 93.5727 3.72093 93.6324 3.7212H97.0545C97.114 3.72093 97.173 3.73207 97.2282 3.75399C97.2832 3.77588 97.3334 3.80814 97.3755 3.84886C97.4176 3.88956 97.4508 3.93796 97.4736 3.99121C97.4961 4.04447 97.5077 4.10153 97.5075 4.15912V6.6995C97.508 6.81548 97.556 6.92655 97.6408 7.00856C97.7256 7.09056 97.8405 7.13688 97.9605 7.13742H101.441C101.561 7.13742 101.676 7.18356 101.761 7.26569C101.846 7.34781 101.894 7.4592 101.894 7.57535V10.2735C101.893 10.3894 101.845 10.5005 101.76 10.5825C101.676 10.6645 101.561 10.7108 101.441 10.7114H97.9605C97.8403 10.7114 97.7252 10.7575 97.6402 10.8396C97.5552 10.9218 97.5075 11.0332 97.5075 11.1493V12.5689C97.5075 14.3455 98.4221 15.2193 100.837 15.3086C100.953 15.3144 101.062 15.3628 101.142 15.4439C101.222 15.5249 101.266 15.6325 101.267 15.7444V19.0693C101.267 19.1275 101.255 19.1852 101.232 19.239C101.209 19.2928 101.175 19.3416 101.133 19.3825C101.09 19.4235 101.039 19.4558 100.983 19.4776C100.927 19.4994 100.867 19.5101 100.807 19.5093C96.0605 19.4097 93.1729 17.7389 93.1729 12.5565V11.141C93.1729 11.0249 93.1251 10.9135 93.0403 10.8313C92.9553 10.7492 92.84 10.7031 92.72 10.7031H91.3202C91.2002 10.7025 91.0853 10.6562 91.0005 10.5742C90.9157 10.4922 90.8676 10.3811 90.8672 10.2652V7.56705C90.8693 7.45128 90.9189 7.34107 91.005 7.26054C91.0911 7.18003 91.2068 7.13576 91.3266 7.13742Z" fill="white"/>
<path d="M103.391 2.18555H106.838C106.898 2.18555 106.957 2.19686 107.012 2.21888C107.067 2.24088 107.117 2.27314 107.159 2.31382C107.201 2.35447 107.234 2.40275 107.257 2.45588C107.28 2.50901 107.291 2.56596 107.291 2.62348V4.7197C107.291 4.83568 107.243 4.94674 107.158 5.02874C107.073 5.11076 106.958 5.15707 106.838 5.15761H103.391C103.27 5.15761 103.155 5.11149 103.07 5.02936C102.985 4.94724 102.938 4.83585 102.938 4.7197V2.62348C102.937 2.56588 102.949 2.50883 102.971 2.45557C102.994 2.40231 103.027 2.35391 103.07 2.31319C103.112 2.27249 103.162 2.24024 103.217 2.21832C103.272 2.19641 103.331 2.18528 103.391 2.18555ZM103.391 7.13763H106.838C106.898 7.13763 106.957 7.14894 107.012 7.17096C107.067 7.19296 107.117 7.22521 107.159 7.26589C107.201 7.30655 107.234 7.35483 107.257 7.40796C107.28 7.46109 107.291 7.51804 107.291 7.57555V19.0799C107.291 19.1959 107.243 19.3069 107.158 19.3889C107.073 19.471 106.958 19.5173 106.838 19.5178H103.391C103.27 19.5178 103.155 19.4717 103.07 19.3896C102.985 19.3074 102.938 19.196 102.938 19.0799V7.57555C102.937 7.51796 102.949 7.46088 102.971 7.40763C102.994 7.35439 103.027 7.30599 103.07 7.26527C103.112 7.22455 103.162 7.19229 103.217 7.1704C103.272 7.14848 103.331 7.13736 103.391 7.13763Z" fill="white"/>
<path d="M115.104 6.89062C118.576 6.89062 120.643 8.51364 121.178 11.4027C121.189 11.4644 121.186 11.5276 121.17 11.5882C121.154 11.6488 121.124 11.7053 121.084 11.754C121.043 11.8027 120.992 11.8425 120.934 11.8707C120.877 11.8989 120.813 11.9148 120.748 11.9174L117.543 12.0918C117.438 12.096 117.334 12.0651 117.249 12.0043C117.164 11.9435 117.104 11.8564 117.077 11.7576C116.839 10.9502 116.085 10.4542 115.098 10.4542C113.434 10.4542 112.691 11.6185 112.691 13.3267C112.691 15.0348 113.434 16.1991 115.098 16.1991C116.083 16.1991 116.835 15.6885 117.075 14.8957C117.102 14.7973 117.163 14.7107 117.248 14.65C117.332 14.5893 117.436 14.5581 117.541 14.5616L120.748 14.7359C120.814 14.7385 120.877 14.7545 120.935 14.7828C120.993 14.8111 121.044 14.8511 121.085 14.9C121.125 14.949 121.155 15.0058 121.171 15.0666C121.187 15.1274 121.189 15.1909 121.178 15.2527C120.643 18.1418 118.576 19.7648 115.104 19.7648C110.572 19.7648 108.344 17.0418 108.344 13.3308C108.344 9.61987 110.572 6.89062 115.104 6.89062Z" fill="white"/>
<path d="M126.656 13.6982C126.656 15.0348 127.169 15.5662 127.962 15.5662C129.499 15.5662 130.422 13.5862 130.422 11.2575V7.5756C130.422 7.51803 130.433 7.46096 130.456 7.4077C130.479 7.35444 130.512 7.30606 130.554 7.26534C130.596 7.22462 130.646 7.19237 130.701 7.17047C130.756 7.14856 130.815 7.13741 130.875 7.1377H134.323C134.382 7.1377 134.441 7.14901 134.496 7.17101C134.551 7.19303 134.601 7.22529 134.643 7.26594C134.685 7.30662 134.719 7.3549 134.741 7.40803C134.764 7.46116 134.776 7.51811 134.776 7.5756V19.0799C134.775 19.1959 134.728 19.307 134.642 19.389C134.558 19.471 134.443 19.5173 134.323 19.5179H130.875C130.755 19.5179 130.64 19.4717 130.555 19.3896C130.47 19.3075 130.422 19.1961 130.422 19.0799V18.2498C130.422 16.9381 130.669 16.3133 130.926 15.8858C130.977 15.8023 130.998 15.7049 130.985 15.6089C130.973 15.5128 130.928 15.4234 130.858 15.3545C129.628 16.8073 129.089 19.7607 125.888 19.7607C124.25 19.7607 122.328 19.2647 122.328 15.7986V7.5756C122.328 7.51803 122.34 7.46096 122.362 7.4077C122.385 7.35444 122.418 7.30606 122.46 7.26534C122.502 7.22462 122.552 7.19237 122.607 7.17047C122.663 7.14856 122.722 7.13741 122.781 7.1377H126.203C126.263 7.13741 126.322 7.14856 126.377 7.17047C126.432 7.19237 126.482 7.22462 126.524 7.26534C126.566 7.30606 126.6 7.35444 126.622 7.4077C126.645 7.46096 126.657 7.51803 126.656 7.5756V13.6982Z" fill="white"/>
<path d="M141.84 6.89062C144.201 6.89062 148.216 7.06289 148.216 10.8755V11.1827H143.862V10.8361C143.862 10.4418 143.377 10.118 142.07 10.118C140.842 10.118 140.124 10.2923 140.124 10.6887C140.124 11.2076 141.61 11.357 143.13 11.7036C145.513 12.2474 148.56 12.5214 148.56 15.7404C148.56 18.6606 145.872 19.7752 142.183 19.7752C139.238 19.7752 135.781 18.9097 135.781 15.2942V14.9974H140.161V15.3336C140.161 16.0995 140.927 16.5457 142.413 16.5457C143.081 16.5457 144.206 16.4461 144.206 15.8525C144.206 15.1842 142.542 14.8625 141.389 14.5906C139.008 14.0448 135.781 13.7729 135.781 10.9253C135.771 8.20232 137.819 6.89062 141.84 6.89062Z" fill="white"/>
<path d="M148.77 5.70134C148.908 5.46472 149.11 5.2694 149.356 5.1368C149.607 4.9989 149.891 4.92734 150.18 4.92925C150.472 4.92705 150.759 4.99859 151.013 5.1368C151.382 5.34847 151.65 5.69182 151.76 6.09284C151.87 6.49388 151.812 6.9205 151.599 7.28078C151.458 7.51255 151.256 7.70382 151.013 7.83491C150.759 7.97394 150.472 8.04555 150.18 8.04246C149.891 8.04528 149.607 7.97363 149.356 7.83491C149.112 7.70498 148.909 7.51344 148.77 7.28078C148.626 7.04372 148.551 6.77316 148.555 6.4983C148.551 6.21882 148.625 5.94351 148.77 5.70134ZM151.299 5.84868C151.193 5.65994 151.034 5.50382 150.841 5.39833C150.639 5.28893 150.411 5.23308 150.18 5.23642C149.954 5.23492 149.732 5.29075 149.536 5.39833C149.343 5.50382 149.184 5.65994 149.079 5.84868C148.967 6.04784 148.91 6.27162 148.913 6.4983C148.91 6.72165 148.967 6.94196 149.079 7.13757C149.185 7.32353 149.344 7.47675 149.536 7.57965C149.738 7.68446 149.964 7.73931 150.193 7.73931C150.422 7.73931 150.648 7.68446 150.85 7.57965C151.042 7.47455 151.2 7.32011 151.307 7.1334C151.418 6.93762 151.474 6.71731 151.47 6.49415C151.472 6.26822 151.413 6.04575 151.299 5.84868ZM150.251 5.62868C150.431 5.6197 150.609 5.67345 150.751 5.78019C150.811 5.82743 150.859 5.88737 150.892 5.95536C150.924 6.02335 150.94 6.09764 150.938 6.17246C150.942 6.28756 150.903 6.40024 150.828 6.49002C150.75 6.58074 150.643 6.64473 150.524 6.67267L150.953 7.35132H150.569L150.18 6.73908H149.905V7.35132H149.562V5.62868H150.251ZM149.914 6.45887H150.234C150.323 6.46242 150.41 6.43521 150.481 6.38208C150.513 6.35717 150.538 6.32548 150.555 6.28949C150.572 6.25348 150.581 6.21415 150.579 6.17453C150.581 6.13701 150.574 6.09959 150.557 6.06555C150.541 6.03151 150.516 6.00194 150.485 5.97944C150.411 5.9305 150.323 5.90642 150.234 5.91095H149.914V6.45887Z" fill="#6155F5"/>
<path d="M22.6927 2.01322C22.6899 1.47725 22.4672 0.96426 22.0735 0.586827C21.68 0.209394 21.1474 -0.00164651 20.593 9.6748e-06H14.0643C12.8663 9.6748e-06 12.3103 0.587367 12.364 1.78906C12.4005 2.61925 12.3919 3.46604 12.364 4.30245C12.3296 5.44396 12.364 6.57304 12.3446 7.76436C12.3446 8.2853 12.3446 8.75229 12.3446 9.21719C12.3446 10.4625 10.3137 10.5393 10.3351 9.21719C10.3351 9.21719 10.3351 7.68549 10.3351 6.89059C10.3351 5.10983 10.3351 3.32908 10.3351 1.54832C10.334 1.14187 10.1665 0.752377 9.8692 0.464976C9.5719 0.177575 9.16901 0.015635 8.74859 0.0145395C6.34836 0.00485397 3.94814 0.00485397 1.54791 0.0145395C0.596834 0.0145395 0.00214689 0.616428 0 1.53379C0 1.91982 0 2.30585 0 2.69396V19.25C0 19.6547 0 20.0595 0 20.4621C0 21.3836 0.624744 21.9585 1.57152 21.9606C3.96746 21.9606 6.36195 21.9606 8.75503 21.9606C9.75333 21.9606 10.3437 21.3815 10.3437 20.4102C10.3437 18.5921 10.3201 16.7719 10.3437 14.9538V14.9185C10.3716 13.6732 12.3081 13.6732 12.3318 14.9185C12.3328 14.9351 12.3328 14.9517 12.3318 14.9683C12.3575 16.7615 12.3318 18.5547 12.3425 20.3479C12.3425 21.4126 12.9114 21.9585 14.0257 21.9585H17.4993C18.5341 21.9585 19.5689 21.9585 20.6037 21.9585C21.1585 21.9558 21.6894 21.7402 22.0799 21.3593C22.4705 20.9782 22.6886 20.4629 22.6862 19.9266V19.8996C22.6862 17.7993 22.6862 15.7003 22.6862 13.6026C22.6862 12.4445 22.0765 11.907 20.8356 11.9568C19.9768 11.9942 19.1009 11.9858 18.2336 11.9568C17.0549 11.9215 15.8591 11.99 14.6869 11.8675H14.659C13.5619 11.7492 13.5533 10.1927 14.6482 10.0578C14.9174 10.024 15.1884 10.006 15.4598 10.0038C17.3147 9.97889 19.1696 10.0038 21.0245 9.99342C22.1259 9.99342 22.6884 9.44132 22.6905 8.36623C22.6905 7.24547 22.6905 6.12681 22.6905 5.00813C22.6927 4.01398 22.6969 3.01361 22.6927 2.01322Z" fill="#6155F5"/>
</g>
<defs>
<clipPath id="clip0_720_4578">
<rect width="152" height="22" fill="white"/>
</clipPath>
</defs>
</svg>
